{"glyphs":{"0":{"ha":836,"x_min":78,"x_max":759,"o":"m 418 -13 q 166 95 254 -13 q 78 402 78 203 l 78 604 q 167 914 78 806 q 419 1023 255 1023 q 670 914 582 1023 q 759 604 759 806 l 759 402 q 670 95 759 203 q 418 -13 582 -13 m 418 140 q 535 202 501 140 q 569 417 569 264 l 569 588 q 535 807 569 744 q 418 870 501 870 q 301 807 335 870 q 268 588 268 744 l 268 417 q 301 202 268 264 q 418 140 335 140 m 418 399 q 357 413 380 399 q 335 466 335 427 l 335 543 q 357 595 335 581 q 418 610 380 610 q 478 595 456 610 q 500 543 500 581 l 500 466 q 477 413 500 427 q 418 399 455 399 z "},"1":{"ha":836,"x_min":92,"x_max":765,"o":"m 117 0 l 117 160 l 354 160 l 354 812 l 319 812 q 238 690 297 734 q 104 648 179 646 l 92 811 q 253 868 181 813 q 357 1010 326 923 l 562 1010 l 562 160 l 765 160 l 765 0 l 117 0 z "},"2":{"ha":836,"x_min":78,"x_max":759,"o":"m 78 0 l 78 211 q 125 396 78 331 q 297 516 172 461 l 418 567 q 512 621 485 596 q 539 708 539 646 l 539 740 q 511 841 539 812 q 418 870 482 870 q 329 835 355 870 q 297 693 303 799 l 90 706 q 175 949 98 875 q 417 1023 251 1023 q 666 952 586 1023 q 746 744 746 881 l 746 682 q 692 521 746 578 q 533 418 638 465 l 410 367 q 309 306 332 332 q 285 213 285 279 l 285 160 l 759 160 l 759 0 l 78 0 z "},"3":{"ha":836,"x_min":66,"x_max":759,"o":"m 418 -13 q 156 62 237 -13 q 66 285 74 136 l 274 298 q 313 174 283 203 q 420 145 343 145 q 521 176 491 145 q 551 274 551 206 l 551 319 q 518 422 551 391 q 415 452 485 452 l 293 452 l 293 610 l 415 610 q 503 631 479 610 q 528 708 528 652 l 528 758 q 501 840 528 816 q 414 865 475 865 q 330 836 356 865 q 297 735 304 807 l 90 747 q 174 958 98 893 q 407 1023 249 1023 q 653 963 572 1023 q 735 774 735 904 l 735 739 q 686 610 735 659 q 562 553 638 562 l 562 516 q 702 449 645 508 q 759 302 759 391 l 759 270 q 673 55 759 122 q 418 -13 587 -13 z "},"4":{"ha":836,"x_min":66,"x_max":816,"o":"m 249 407 l 470 407 l 470 779 l 249 407 m 816 254 l 677 254 l 677 0 l 470 0 l 470 254 l 66 254 l 66 407 l 418 1010 l 677 1010 l 677 407 l 816 407 l 816 254 z "},"5":{"ha":836,"x_min":66,"x_max":759,"o":"m 415 -13 q 152 56 230 -13 q 66 302 74 125 l 274 314 q 312 174 283 207 q 417 140 341 140 q 523 176 495 140 q 551 290 551 211 l 551 347 q 520 456 551 423 q 402 490 489 490 l 101 490 l 101 1010 l 721 1010 l 721 857 l 308 857 l 308 652 l 467 652 q 686 585 612 652 q 759 379 759 518 l 759 268 q 676 64 759 141 q 415 -13 592 -13 z "},"6":{"ha":836,"x_min":78,"x_max":759,"o":"m 418 -13 q 162 78 245 -13 q 78 342 78 168 l 78 662 q 164 932 78 842 q 420 1023 249 1023 q 648 963 573 1023 q 747 768 723 904 l 530 739 q 492 843 516 817 q 407 870 468 870 q 313 824 341 870 q 285 667 285 778 l 285 542 l 299 542 q 378 607 330 583 q 505 631 426 631 q 694 556 630 631 q 759 337 759 480 l 759 297 q 673 65 759 143 q 418 -13 587 -13 m 417 140 q 518 180 489 140 q 548 298 548 220 l 548 326 q 518 451 548 409 q 417 494 489 494 q 315 451 345 494 q 285 326 285 409 l 285 298 q 315 178 285 216 q 417 140 345 140 z "},"7":{"ha":836,"x_min":78,"x_max":759,"o":"m 256 0 q 372 482 318 318 q 551 845 427 646 l 78 845 l 78 1010 l 759 1010 l 759 845 q 578 442 635 620 q 481 0 520 264 l 256 0 z "},"8":{"ha":836,"x_min":78,"x_max":759,"o":"m 418 -13 q 162 54 245 -13 q 78 260 78 121 l 78 294 q 128 446 78 386 q 269 514 178 505 l 269 551 q 149 607 197 558 q 101 735 101 655 l 101 782 q 179 963 101 904 q 418 1023 256 1023 q 657 963 580 1023 q 735 782 735 904 l 735 735 q 687 607 735 655 q 567 551 639 558 l 567 514 q 708 445 658 505 q 759 294 759 385 l 759 260 q 675 54 759 121 q 418 -13 591 -13 m 418 606 q 502 630 476 606 q 528 716 528 654 l 528 758 q 502 842 528 818 q 418 865 476 865 q 334 842 360 865 q 308 758 308 818 l 308 716 q 334 630 308 654 q 418 606 360 606 m 418 145 q 523 179 495 145 q 551 284 551 212 l 551 313 q 523 420 551 385 q 418 455 495 455 q 313 420 341 455 q 285 313 285 385 l 285 284 q 313 179 285 212 q 418 145 341 145 z "},"9":{"ha":836,"x_min":78,"x_max":759,"o":"m 419 516 q 521 559 491 516 q 551 684 551 601 l 551 712 q 521 832 551 794 q 419 870 491 870 q 318 830 347 870 q 288 712 288 789 l 288 684 q 318 559 288 601 q 419 516 347 516 m 415 -13 q 188 47 264 -13 q 88 242 112 107 l 307 271 q 344 166 319 192 q 431 140 369 140 q 523 187 496 140 q 551 346 551 234 l 551 468 l 537 468 q 457 402 505 426 q 331 379 409 379 q 143 454 207 379 q 78 673 78 529 l 78 713 q 164 945 78 867 q 418 1023 249 1023 q 675 932 591 1023 q 759 668 759 842 l 759 348 q 674 79 759 170 q 415 -13 588 -13 z "},"\u0000":{"ha":0,"x_min":0,"x_max":0,"o":""},"\r":{"ha":0,"x_min":0,"x_max":0,"o":""}," ":{"ha":836,"x_min":0,"x_max":0,"o":""},"A":{"ha":836,"x_min":32,"x_max":806,"o":"m 516 412 l 422 842 l 319 412 l 516 412 m 607 0 l 552 251 l 282 251 l 221 0 l 32 0 l 293 1010 l 544 1010 l 806 0 l 607 0 z "},"À":{"ha":836,"x_min":32,"x_max":806,"o":"m 516 412 l 422 842 l 319 412 l 516 412 m 607 0 l 552 251 l 282 251 l 221 0 l 32 0 l 293 1010 l 544 1010 l 806 0 l 607 0 m 400 1136 l 148 1389 l 413 1389 l 543 1136 l 400 1136 z "},"Á":{"ha":836,"x_min":32,"x_max":806,"o":"m 516 412 l 422 842 l 319 412 l 516 412 m 607 0 l 552 251 l 282 251 l 221 0 l 32 0 l 293 1010 l 544 1010 l 806 0 l 607 0 m 268 1136 l 398 1389 l 663 1389 l 409 1136 l 268 1136 z "},"Â":{"ha":836,"x_min":32,"x_max":806,"o":"m 516 412 l 422 842 l 319 412 l 516 412 m 607 0 l 552 251 l 282 251 l 221 0 l 32 0 l 293 1010 l 544 1010 l 806 0 l 607 0 m 193 1128 l 126 1222 l 338 1418 l 495 1418 l 710 1222 l 643 1128 l 417 1265 l 193 1128 z "},"Ã":{"ha":836,"x_min":32,"x_max":806,"o":"m 516 412 l 422 842 l 319 412 l 516 412 m 607 0 l 552 251 l 282 251 l 221 0 l 32 0 l 293 1010 l 544 1010 l 806 0 l 607 0 m 524 1149 q 444 1168 473 1149 q 394 1213 414 1187 q 358 1258 374 1237 q 321 1278 342 1278 q 285 1258 301 1278 q 271 1179 270 1237 l 271 1162 l 136 1162 l 136 1181 q 184 1350 136 1283 q 314 1417 231 1417 q 395 1398 365 1417 q 446 1352 424 1379 q 481 1308 466 1328 q 516 1288 496 1288 q 552 1308 537 1288 q 566 1386 567 1328 l 566 1404 l 701 1404 l 701 1385 q 654 1216 701 1283 q 524 1149 607 1149 z "},"Ä":{"ha":836,"x_min":32,"x_max":806,"o":"m 516 412 l 422 842 l 319 412 l 516 412 m 607 0 l 552 251 l 282 251 l 221 0 l 32 0 l 293 1010 l 544 1010 l 806 0 l 607 0 m 271 1134 q 195 1153 225 1134 q 165 1220 165 1172 l 165 1235 q 195 1306 165 1285 q 271 1326 225 1326 q 347 1306 318 1326 q 376 1235 376 1285 l 376 1220 q 347 1153 376 1172 q 271 1134 317 1134 m 564 1134 q 489 1153 518 1134 q 460 1220 460 1172 l 460 1235 q 489 1306 460 1285 q 564 1326 518 1326 q 641 1306 612 1326 q 670 1235 670 1285 l 670 1220 q 641 1153 670 1172 q 564 1134 611 1134 z "},"Å":{"ha":836,"x_min":32,"x_max":806,"o":"m 516 412 l 422 842 l 319 412 l 516 412 m 607 0 l 552 251 l 282 251 l 221 0 l 32 0 l 293 1010 l 544 1010 l 806 0 l 607 0 m 418 1110 q 251 1157 314 1110 q 187 1301 187 1203 l 187 1341 q 251 1487 187 1439 q 418 1535 314 1535 q 586 1487 523 1535 q 649 1341 649 1439 l 649 1301 q 585 1157 649 1203 q 418 1110 521 1110 m 418 1215 q 482 1234 460 1215 q 504 1301 504 1254 l 504 1341 q 482 1409 504 1388 q 418 1431 460 1431 q 354 1409 375 1431 q 332 1341 332 1388 l 332 1301 q 354 1234 332 1254 q 418 1215 375 1215 z "},"Ā":{"ha":836,"x_min":32,"x_max":806,"o":"m 516 412 l 422 842 l 319 412 l 516 412 m 607 0 l 552 251 l 282 251 l 221 0 l 32 0 l 293 1010 l 544 1010 l 806 0 l 607 0 m 163 1183 l 163 1342 l 673 1342 l 673 1183 l 163 1183 z "},"Ă":{"ha":836,"x_min":32,"x_max":806,"o":"m 516 412 l 422 842 l 319 412 l 516 412 m 607 0 l 552 251 l 282 251 l 221 0 l 32 0 l 293 1010 l 544 1010 l 806 0 l 607 0 m 418 1128 q 195 1198 271 1128 q 117 1415 119 1268 l 288 1415 q 319 1293 289 1327 q 418 1259 348 1259 q 517 1293 487 1259 q 548 1415 547 1327 l 718 1415 q 641 1198 717 1268 q 418 1128 564 1128 z "},"Ą":{"ha":836,"x_min":32,"x_max":872,"o":"m 516 412 l 422 842 l 319 412 l 516 412 m 607 0 l 552 251 l 282 251 l 221 0 l 32 0 l 293 1010 l 544 1010 l 806 0 l 607 0 m 730 -279 q 582 -238 636 -279 q 528 -121 528 -197 q 583 6 528 -49 q 706 82 638 61 l 737 29 q 689 -21 699 5 q 678 -74 678 -48 q 699 -125 678 -109 q 764 -141 720 -141 q 813 -138 784 -141 q 872 -129 841 -134 l 872 -263 q 798 -275 835 -271 q 730 -279 761 -279 z "},"Ǻ":{"ha":836,"x_min":32,"x_max":806,"o":"m 516 412 l 422 842 l 319 412 l 516 412 m 607 0 l 552 251 l 282 251 l 221 0 l 32 0 l 293 1010 l 544 1010 l 806 0 l 607 0 m 418 1110 q 251 1157 314 1110 q 187 1301 187 1203 l 187 1341 q 251 1487 187 1439 q 418 1535 314 1535 q 586 1487 523 1535 q 649 1341 649 1439 l 649 1301 q 585 1157 649 1203 q 418 1110 521 1110 m 418 1215 q 482 1234 460 1215 q 504 1301 504 1254 l 504 1341 q 482 1409 504 1388 q 418 1431 460 1431 q 354 1409 375 1431 q 332 1341 332 1388 l 332 1301 q 354 1234 332 1254 q 418 1215 375 1215 m 346 1515 l 476 1768 l 741 1768 l 487 1515 l 346 1515 z "},"B":{"ha":836,"x_min":82,"x_max":759,"o":"m 82 0 l 82 1010 l 431 1010 q 657 951 582 1010 q 731 773 731 893 l 731 725 q 698 607 731 649 q 592 553 664 566 l 592 516 q 715 456 672 508 q 759 326 759 405 l 759 263 q 677 66 759 131 q 429 0 596 0 l 82 0 m 290 596 l 412 596 q 499 621 473 596 q 525 702 525 645 l 525 754 q 499 833 525 809 q 412 857 473 857 l 290 857 l 290 596 m 290 153 l 415 153 q 520 181 487 153 q 552 277 552 210 l 552 332 q 520 426 552 396 q 415 455 487 455 l 290 455 l 290 153 z "},"C":{"ha":836,"x_min":78,"x_max":784,"o":"m 433 -13 q 167 73 256 -13 q 78 328 78 158 l 78 677 q 167 936 78 850 q 434 1023 256 1023 q 693 938 611 1023 q 784 665 775 854 l 577 653 q 540 820 569 778 q 432 862 510 862 q 319 817 352 862 q 285 662 285 771 l 285 343 q 319 193 285 237 q 432 148 352 148 q 539 189 510 148 q 577 352 568 230 l 784 340 q 693 71 777 154 q 433 -13 610 -13 z "},"Ç":{"ha":836,"x_min":78,"x_max":784,"o":"m 433 -13 q 167 73 256 -13 q 78 328 78 158 l 78 677 q 167 936 78 850 q 434 1023 256 1023 q 693 938 611 1023 q 784 665 775 854 l 577 653 q 540 820 569 778 q 432 862 510 862 q 319 817 352 862 q 285 662 285 771 l 285 343 q 319 193 285 237 q 432 148 352 148 q 539 189 510 148 q 577 352 568 230 l 784 340 q 693 71 777 154 q 433 -13 610 -13 m 399 0 l 423 53 q 574 4 516 42 q 631 -112 631 -33 q 562 -240 631 -199 q 398 -280 492 -280 q 226 -243 292 -280 q 155 -124 160 -206 l 331 -111 q 347 -145 333 -135 q 389 -154 360 -154 q 437 -140 420 -154 q 453 -82 453 -125 q 442 -27 453 -45 q 399 0 431 -9 z "},"Ć":{"ha":836,"x_min":78,"x_max":784,"o":"m 433 -13 q 167 73 256 -13 q 78 328 78 158 l 78 677 q 167 936 78 850 q 434 1023 256 1023 q 693 938 611 1023 q 784 665 775 854 l 577 653 q 540 820 569 778 q 432 862 510 862 q 319 817 352 862 q 285 662 285 771 l 285 343 q 319 193 285 237 q 432 148 352 148 q 539 189 510 148 q 577 352 568 230 l 784 340 q 693 71 777 154 q 433 -13 610 -13 m 312 1136 l 442 1389 l 707 1389 l 453 1136 l 312 1136 z "},"Ĉ":{"ha":836,"x_min":78,"x_max":784,"o":"m 433 -13 q 167 73 256 -13 q 78 328 78 158 l 78 677 q 167 936 78 850 q 434 1023 256 1023 q 693 938 611 1023 q 784 665 775 854 l 577 653 q 540 820 569 778 q 432 862 510 862 q 319 817 352 862 q 285 662 285 771 l 285 343 q 319 193 285 237 q 432 148 352 148 q 539 189 510 148 q 577 352 568 230 l 784 340 q 693 71 777 154 q 433 -13 610 -13 m 210 1128 l 143 1222 l 355 1418 l 511 1418 l 726 1222 l 659 1128 l 433 1265 l 210 1128 z "},"Ċ":{"ha":836,"x_min":78,"x_max":784,"o":"m 433 -13 q 167 73 256 -13 q 78 328 78 158 l 78 677 q 167 936 78 850 q 434 1023 256 1023 q 693 938 611 1023 q 784 665 775 854 l 577 653 q 540 820 569 778 q 432 862 510 862 q 319 817 352 862 q 285 662 285 771 l 285 343 q 319 193 285 237 q 432 148 352 148 q 539 189 510 148 q 577 352 568 230 l 784 340 q 693 71 777 154 q 433 -13 610 -13 m 434 1134 q 335 1153 372 1134 q 297 1220 297 1172 l 297 1235 q 335 1306 297 1285 q 434 1326 372 1326 q 534 1306 496 1326 q 572 1235 572 1285 l 572 1220 q 533 1153 572 1172 q 434 1134 495 1134 z "},"Č":{"ha":836,"x_min":78,"x_max":784,"o":"m 433 -13 q 167 73 256 -13 q 78 328 78 158 l 78 677 q 167 936 78 850 q 434 1023 256 1023 q 693 938 611 1023 q 784 665 775 854 l 577 653 q 540 820 569 778 q 432 862 510 862 q 319 817 352 862 q 285 662 285 771 l 285 343 q 319 193 285 237 q 432 148 352 148 q 539 189 510 148 q 577 352 568 230 l 784 340 q 693 71 777 154 q 433 -13 610 -13 m 357 1141 l 143 1337 l 210 1432 l 436 1295 l 659 1432 l 726 1337 l 514 1141 l 357 1141 z "},"D":{"ha":836,"x_min":82,"x_max":759,"o":"m 82 0 l 82 1010 l 412 1010 q 667 910 574 1010 q 759 645 759 811 l 759 360 q 666 98 759 196 q 410 0 573 0 l 82 0 m 290 160 l 393 160 q 515 210 479 160 q 551 375 551 260 l 551 630 q 515 799 551 747 q 393 850 479 850 l 290 850 l 290 160 z "},"Ď":{"ha":836,"x_min":82,"x_max":759,"o":"m 82 0 l 82 1010 l 412 1010 q 667 910 574 1010 q 759 645 759 811 l 759 360 q 666 98 759 196 q 410 0 573 0 l 82 0 m 290 160 l 393 160 q 515 210 479 160 q 551 375 551 260 l 551 630 q 515 799 551 747 q 393 850 479 850 l 290 850 l 290 160 m 341 1141 l 126 1337 l 193 1432 l 419 1295 l 643 1432 l 710 1337 l 497 1141 l 341 1141 z "},"E":{"ha":836,"x_min":82,"x_max":759,"o":"m 82 0 l 82 1010 l 759 1010 l 759 850 l 290 850 l 290 621 l 701 621 l 701 461 l 290 461 l 290 160 l 759 160 l 759 0 l 82 0 z "},"È":{"ha":836,"x_min":82,"x_max":759,"o":"m 82 0 l 82 1010 l 759 1010 l 759 850 l 290 850 l 290 621 l 701 621 l 701 461 l 290 461 l 290 160 l 759 160 l 759 0 l 82 0 m 431 1136 l 178 1389 l 443 1389 l 573 1136 l 431 1136 z "},"É":{"ha":836,"x_min":82,"x_max":759,"o":"m 82 0 l 82 1010 l 759 1010 l 759 850 l 290 850 l 290 621 l 701 621 l 701 461 l 290 461 l 290 160 l 759 160 l 759 0 l 82 0 m 303 1134 l 433 1386 l 698 1386 l 444 1134 l 303 1134 z "},"Ê":{"ha":836,"x_min":82,"x_max":759,"o":"m 82 0 l 82 1010 l 759 1010 l 759 850 l 290 850 l 290 621 l 701 621 l 701 461 l 290 461 l 290 160 l 759 160 l 759 0 l 82 0 m 207 1128 l 140 1222 l 352 1418 l 509 1418 l 723 1222 l 657 1128 l 431 1265 l 207 1128 z "},"Ë":{"ha":836,"x_min":82,"x_max":759,"o":"m 82 0 l 82 1010 l 759 1010 l 759 850 l 290 850 l 290 621 l 701 621 l 701 461 l 290 461 l 290 160 l 759 160 l 759 0 l 82 0 m 292 1134 q 215 1153 245 1134 q 186 1220 186 1172 l 186 1235 q 215 1306 186 1285 q 292 1326 245 1326 q 367 1306 338 1326 q 396 1235 396 1285 l 396 1220 q 367 1153 396 1172 q 292 1134 337 1134 m 585 1134 q 509 1153 538 1134 q 480 1220 480 1172 l 480 1235 q 509 1306 480 1285 q 585 1326 538 1326 q 662 1306 633 1326 q 691 1235 691 1285 l 691 1220 q 661 1153 691 1172 q 585 1134 631 1134 z "},"Ē":{"ha":836,"x_min":82,"x_max":759,"o":"m 82 0 l 82 1010 l 759 1010 l 759 850 l 290 850 l 290 621 l 701 621 l 701 461 l 290 461 l 290 160 l 759 160 l 759 0 l 82 0 m 177 1183 l 177 1342 l 687 1342 l 687 1183 l 177 1183 z "},"Ĕ":{"ha":836,"x_min":82,"x_max":759,"o":"m 82 0 l 82 1010 l 759 1010 l 759 850 l 290 850 l 290 621 l 701 621 l 701 461 l 290 461 l 290 160 l 759 160 l 759 0 l 82 0 m 432 1128 q 209 1198 285 1128 q 131 1415 133 1268 l 302 1415 q 333 1293 303 1327 q 432 1259 362 1259 q 531 1293 501 1259 q 562 1415 561 1327 l 732 1415 q 655 1198 731 1268 q 432 1128 578 1128 z "},"Ė":{"ha":836,"x_min":82,"x_max":759,"o":"m 82 0 l 82 1010 l 759 1010 l 759 850 l 290 850 l 290 621 l 701 621 l 701 461 l 290 461 l 290 160 l 759 160 l 759 0 l 82 0 m 432 1134 q 332 1153 370 1134 q 294 1220 294 1172 l 294 1235 q 332 1306 294 1285 q 432 1326 370 1326 q 532 1306 494 1326 q 569 1235 569 1285 l 569 1220 q 531 1153 569 1172 q 432 1134 492 1134 z "},"Ę":{"ha":836,"x_min":82,"x_max":759,"o":"m 615 -279 q 467 -238 521 -279 q 413 -121 413 -197 q 468 6 413 -49 q 591 82 523 61 l 622 29 q 574 -21 585 5 q 563 -74 563 -48 q 584 -125 563 -109 q 649 -141 605 -141 q 698 -138 669 -141 q 758 -129 726 -134 l 758 -263 q 683 -275 720 -271 q 615 -279 646 -279 m 82 0 l 82 1010 l 759 1010 l 759 850 l 290 850 l 290 621 l 701 621 l 701 461 l 290 461 l 290 160 l 759 160 l 759 0 l 82 0 z "},"Ě":{"ha":836,"x_min":82,"x_max":759,"o":"m 82 0 l 82 1010 l 759 1010 l 759 850 l 290 850 l 290 621 l 701 621 l 701 461 l 290 461 l 290 160 l 759 160 l 759 0 l 82 0 m 357 1141 l 143 1337 l 210 1432 l 436 1295 l 659 1432 l 726 1337 l 514 1141 l 357 1141 z "},"F":{"ha":836,"x_min":129,"x_max":777,"o":"m 129 0 l 129 1010 l 777 1010 l 777 850 l 336 850 l 336 544 l 696 544 l 696 384 l 336 384 l 336 0 l 129 0 z "},"G":{"ha":836,"x_min":78,"x_max":765,"o":"m 426 -13 q 167 79 256 -13 q 78 337 78 170 l 78 669 q 167 931 78 838 q 422 1023 256 1023 q 668 943 586 1023 q 759 706 750 864 l 551 693 q 515 826 543 789 q 423 862 487 862 q 315 814 345 862 q 285 654 285 765 l 285 352 q 315 195 285 242 q 424 148 345 148 q 529 198 500 148 q 557 360 558 247 l 420 360 l 420 520 l 765 520 l 765 341 q 677 79 765 170 q 426 -13 588 -13 z "},"Ĝ":{"ha":836,"x_min":78,"x_max":765,"o":"m 426 -13 q 167 79 256 -13 q 78 337 78 170 l 78 669 q 167 931 78 838 q 422 1023 256 1023 q 668 943 586 1023 q 759 706 750 864 l 551 693 q 515 826 543 789 q 423 862 487 862 q 315 814 345 862 q 285 654 285 765 l 285 352 q 315 195 285 242 q 424 148 345 148 q 529 198 500 148 q 557 360 558 247 l 420 360 l 420 520 l 765 520 l 765 341 q 677 79 765 170 q 426 -13 588 -13 m 198 1128 l 131 1222 l 343 1418 l 500 1418 l 715 1222 l 648 1128 l 422 1265 l 198 1128 z "},"Ğ":{"ha":836,"x_min":78,"x_max":765,"o":"m 426 -13 q 167 79 256 -13 q 78 337 78 170 l 78 669 q 167 931 78 838 q 422 1023 256 1023 q 668 943 586 1023 q 759 706 750 864 l 551 693 q 515 826 543 789 q 423 862 487 862 q 315 814 345 862 q 285 654 285 765 l 285 352 q 315 195 285 242 q 424 148 345 148 q 529 198 500 148 q 557 360 558 247 l 420 360 l 420 520 l 765 520 l 765 341 q 677 79 765 170 q 426 -13 588 -13 m 423 1128 q 200 1198 277 1128 q 122 1415 124 1268 l 293 1415 q 324 1293 294 1327 q 423 1259 354 1259 q 522 1293 492 1259 q 553 1415 552 1327 l 723 1415 q 646 1198 722 1268 q 423 1128 569 1128 z "},"Ġ":{"ha":836,"x_min":78,"x_max":765,"o":"m 426 -13 q 167 79 256 -13 q 78 337 78 170 l 78 669 q 167 931 78 838 q 422 1023 256 1023 q 668 943 586 1023 q 759 706 750 864 l 551 693 q 515 826 543 789 q 423 862 487 862 q 315 814 345 862 q 285 654 285 765 l 285 352 q 315 195 285 242 q 424 148 345 148 q 529 198 500 148 q 557 360 558 247 l 420 360 l 420 520 l 765 520 l 765 341 q 677 79 765 170 q 426 -13 588 -13 m 429 1134 q 330 1153 367 1134 q 292 1220 292 1172 l 292 1235 q 330 1306 292 1285 q 429 1326 367 1326 q 529 1306 491 1326 q 567 1235 567 1285 l 567 1220 q 528 1153 567 1172 q 429 1134 490 1134 z "},"Ģ":{"ha":836,"x_min":78,"x_max":765,"o":"m 237 -379 l 322 -126 l 587 -126 l 380 -379 l 237 -379 m 426 -13 q 167 79 256 -13 q 78 337 78 170 l 78 669 q 167 931 78 838 q 422 1023 256 1023 q 668 943 586 1023 q 759 706 750 864 l 551 693 q 515 826 543 789 q 423 862 487 862 q 315 814 345 862 q 285 654 285 765 l 285 352 q 315 195 285 242 q 424 148 345 148 q 529 198 500 148 q 557 360 558 247 l 420 360 l 420 520 l 765 520 l 765 341 q 677 79 765 170 q 426 -13 588 -13 z "},"H":{"ha":836,"x_min":82,"x_max":754,"o":"m 82 0 l 82 1010 l 290 1010 l 290 638 l 545 638 l 545 1010 l 754 1010 l 754 0 l 545 0 l 545 477 l 290 477 l 290 0 l 82 0 z "},"Ĥ":{"ha":836,"x_min":82,"x_max":754,"o":"m 82 0 l 82 1010 l 290 1010 l 290 638 l 545 638 l 545 1010 l 754 1010 l 754 0 l 545 0 l 545 477 l 290 477 l 290 0 l 82 0 m 193 1128 l 126 1222 l 338 1418 l 495 1418 l 710 1222 l 643 1128 l 417 1265 l 193 1128 z "},"I":{"ha":836,"x_min":82,"x_max":754,"o":"m 82 0 l 82 160 l 314 160 l 314 850 l 82 850 l 82 1010 l 754 1010 l 754 850 l 521 850 l 521 160 l 754 160 l 754 0 l 82 0 z "},"Ì":{"ha":836,"x_min":82,"x_max":754,"o":"m 82 0 l 82 160 l 314 160 l 314 850 l 82 850 l 82 1010 l 754 1010 l 754 850 l 521 850 l 521 160 l 754 160 l 754 0 l 82 0 m 400 1136 l 148 1389 l 413 1389 l 543 1136 l 400 1136 z "},"Í":{"ha":836,"x_min":82,"x_max":754,"o":"m 82 0 l 82 160 l 314 160 l 314 850 l 82 850 l 82 1010 l 754 1010 l 754 850 l 521 850 l 521 160 l 754 160 l 754 0 l 82 0 m 268 1136 l 398 1389 l 663 1389 l 409 1136 l 268 1136 z "},"Î":{"ha":836,"x_min":82,"x_max":754,"o":"m 82 0 l 82 160 l 314 160 l 314 850 l 82 850 l 82 1010 l 754 1010 l 754 850 l 521 850 l 521 160 l 754 160 l 754 0 l 82 0 m 193 1128 l 126 1222 l 338 1418 l 495 1418 l 710 1222 l 643 1128 l 417 1265 l 193 1128 z "},"Ï":{"ha":836,"x_min":82,"x_max":754,"o":"m 82 0 l 82 160 l 314 160 l 314 850 l 82 850 l 82 1010 l 754 1010 l 754 850 l 521 850 l 521 160 l 754 160 l 754 0 l 82 0 m 271 1134 q 195 1153 225 1134 q 165 1220 165 1172 l 165 1235 q 195 1306 165 1285 q 271 1326 225 1326 q 347 1306 318 1326 q 376 1235 376 1285 l 376 1220 q 347 1153 376 1172 q 271 1134 317 1134 m 564 1134 q 489 1153 518 1134 q 460 1220 460 1172 l 460 1235 q 489 1306 460 1285 q 564 1326 518 1326 q 641 1306 612 1326 q 670 1235 670 1285 l 670 1220 q 641 1153 670 1172 q 564 1134 611 1134 z "},"Ĩ":{"ha":836,"x_min":82,"x_max":754,"o":"m 82 0 l 82 160 l 314 160 l 314 850 l 82 850 l 82 1010 l 754 1010 l 754 850 l 521 850 l 521 160 l 754 160 l 754 0 l 82 0 m 524 1149 q 444 1168 473 1149 q 394 1213 414 1187 q 358 1258 374 1237 q 321 1278 342 1278 q 285 1258 301 1278 q 271 1179 270 1237 l 271 1162 l 136 1162 l 136 1181 q 184 1350 136 1283 q 314 1417 231 1417 q 395 1398 365 1417 q 446 1352 424 1379 q 481 1308 466 1328 q 516 1288 496 1288 q 552 1308 537 1288 q 566 1386 567 1328 l 566 1404 l 701 1404 l 701 1385 q 654 1216 701 1283 q 524 1149 607 1149 z "},"Ī":{"ha":836,"x_min":82,"x_max":754,"o":"m 82 0 l 82 160 l 314 160 l 314 850 l 82 850 l 82 1010 l 754 1010 l 754 850 l 521 850 l 521 160 l 754 160 l 754 0 l 82 0 m 163 1183 l 163 1342 l 673 1342 l 673 1183 l 163 1183 z "},"Ĭ":{"ha":836,"x_min":82,"x_max":754,"o":"m 82 0 l 82 160 l 314 160 l 314 850 l 82 850 l 82 1010 l 754 1010 l 754 850 l 521 850 l 521 160 l 754 160 l 754 0 l 82 0 m 418 1128 q 195 1198 271 1128 q 117 1415 119 1268 l 288 1415 q 319 1293 289 1327 q 418 1259 348 1259 q 517 1293 487 1259 q 548 1415 547 1327 l 718 1415 q 641 1198 717 1268 q 418 1128 564 1128 z "},"Į":{"ha":836,"x_min":82,"x_max":754,"o":"m 82 0 l 82 160 l 314 160 l 314 850 l 82 850 l 82 1010 l 754 1010 l 754 850 l 521 850 l 521 160 l 754 160 l 754 0 l 82 0 m 521 -279 q 374 -238 428 -279 q 319 -121 319 -197 q 374 6 319 -49 q 497 82 429 61 l 529 29 q 480 -21 491 5 q 470 -74 470 -48 q 491 -125 470 -109 q 556 -141 511 -141 q 604 -138 576 -141 q 664 -129 633 -134 l 664 -263 q 590 -275 626 -271 q 521 -279 553 -279 z "},"İ":{"ha":836,"x_min":82,"x_max":754,"o":"m 82 0 l 82 160 l 314 160 l 314 850 l 82 850 l 82 1010 l 754 1010 l 754 850 l 521 850 l 521 160 l 754 160 l 754 0 l 82 0 m 418 1134 q 318 1153 356 1134 q 280 1220 280 1172 l 280 1235 q 318 1306 280 1285 q 418 1326 356 1326 q 518 1306 480 1326 q 556 1235 556 1285 l 556 1220 q 517 1153 556 1172 q 418 1134 479 1134 z "},"J":{"ha":836,"x_min":54,"x_max":735,"o":"m 403 -13 q 144 72 225 -13 q 54 347 63 157 l 263 361 q 299 190 271 232 q 399 148 327 148 q 496 188 465 148 q 528 326 528 229 l 528 850 l 268 850 l 268 1010 l 735 1010 l 735 323 q 653 76 735 164 q 403 -13 572 -13 z "},"Ĵ":{"ha":836,"x_min":54,"x_max":787,"o":"m 403 -13 q 144 72 225 -13 q 54 347 63 157 l 263 361 q 299 190 271 232 q 399 148 327 148 q 496 188 465 148 q 528 326 528 229 l 528 850 l 268 850 l 268 1010 l 735 1010 l 735 323 q 653 76 735 164 q 403 -13 572 -13 m 270 1128 l 203 1222 l 415 1418 l 572 1418 l 787 1222 l 720 1128 l 494 1265 l 270 1128 z "},"K":{"ha":836,"x_min":82,"x_max":801,"o":"m 290 444 l 290 0 l 82 0 l 82 1010 l 290 1010 l 290 605 l 335 605 l 583 1010 l 801 1010 l 490 544 l 797 0 l 582 0 l 338 444 l 290 444 z "},"Ķ":{"ha":836,"x_min":82,"x_max":801,"o":"m 290 444 l 290 0 l 82 0 l 82 1010 l 290 1010 l 290 605 l 335 605 l 583 1010 l 801 1010 l 490 544 l 797 0 l 582 0 l 338 444 l 290 444 m 256 -379 l 341 -126 l 606 -126 l 399 -379 l 256 -379 z "},"L":{"ha":836,"x_min":140,"x_max":754,"o":"m 140 0 l 140 1010 l 348 1010 l 348 160 l 754 160 l 754 0 l 140 0 z "},"Ĺ":{"ha":836,"x_min":140,"x_max":754,"o":"m 140 0 l 140 1010 l 348 1010 l 348 160 l 754 160 l 754 0 l 140 0 m 150 1136 l 280 1389 l 545 1389 l 292 1136 l 150 1136 z "},"Ļ":{"ha":836,"x_min":140,"x_max":754,"o":"m 140 0 l 140 1010 l 348 1010 l 348 160 l 754 160 l 754 0 l 140 0 m 279 -379 l 364 -126 l 629 -126 l 422 -379 l 279 -379 z "},"Ľ":{"ha":836,"x_min":140,"x_max":798,"o":"m 140 0 l 140 1010 l 348 1010 l 348 160 l 754 160 l 754 0 l 140 0 m 470 638 l 535 1010 l 798 1010 l 590 638 l 470 638 z "},"M":{"ha":836,"x_min":66,"x_max":770,"o":"m 350 292 l 230 701 l 249 0 l 66 0 l 66 1010 l 269 1010 l 422 503 l 573 1010 l 770 1010 l 770 0 l 587 0 l 607 693 l 489 292 l 350 292 z "},"N":{"ha":836,"x_min":82,"x_max":754,"o":"m 505 0 l 260 731 l 260 0 l 82 0 l 82 1010 l 314 1010 l 576 245 l 576 1010 l 754 1010 l 754 0 l 505 0 z "},"Ñ":{"ha":836,"x_min":82,"x_max":754,"o":"m 505 0 l 260 731 l 260 0 l 82 0 l 82 1010 l 314 1010 l 576 245 l 576 1010 l 754 1010 l 754 0 l 505 0 m 529 1149 q 449 1168 479 1149 q 399 1213 419 1187 q 363 1258 379 1237 q 326 1278 347 1278 q 290 1258 306 1278 q 277 1179 275 1237 l 277 1162 l 141 1162 l 141 1181 q 189 1350 141 1283 q 319 1417 236 1417 q 400 1398 370 1417 q 451 1352 429 1379 q 486 1308 471 1328 q 521 1288 501 1288 q 557 1308 542 1288 q 571 1386 572 1328 l 571 1404 l 706 1404 l 706 1385 q 659 1216 706 1283 q 529 1149 612 1149 z "},"Ń":{"ha":836,"x_min":82,"x_max":754,"o":"m 505 0 l 260 731 l 260 0 l 82 0 l 82 1010 l 314 1010 l 576 245 l 576 1010 l 754 1010 l 754 0 l 505 0 m 301 1136 l 431 1389 l 696 1389 l 442 1136 l 301 1136 z "},"Ņ":{"ha":836,"x_min":82,"x_max":754,"o":"m 230 -379 l 314 -126 l 580 -126 l 372 -379 l 230 -379 m 505 0 l 260 731 l 260 0 l 82 0 l 82 1010 l 314 1010 l 576 245 l 576 1010 l 754 1010 l 754 0 l 505 0 z "},"Ň":{"ha":836,"x_min":82,"x_max":754,"o":"m 505 0 l 260 731 l 260 0 l 82 0 l 82 1010 l 314 1010 l 576 245 l 576 1010 l 754 1010 l 754 0 l 505 0 m 346 1141 l 131 1337 l 198 1432 l 424 1295 l 648 1432 l 715 1337 l 503 1141 l 346 1141 z "},"O":{"ha":836,"x_min":78,"x_max":759,"o":"m 418 -13 q 165 76 253 -13 q 78 324 78 164 l 78 681 q 166 932 78 842 q 419 1023 254 1023 q 672 932 585 1023 q 759 681 759 842 l 759 324 q 671 76 759 164 q 418 -13 583 -13 m 418 148 q 520 190 490 148 q 551 340 551 232 l 551 665 q 520 818 551 774 q 418 862 490 862 q 316 818 346 862 q 285 665 285 774 l 285 340 q 316 190 285 232 q 418 148 346 148 z "},"Ò":{"ha":836,"x_min":78,"x_max":759,"o":"m 418 -13 q 165 76 253 -13 q 78 324 78 164 l 78 681 q 166 932 78 842 q 419 1023 254 1023 q 672 932 585 1023 q 759 681 759 842 l 759 324 q 671 76 759 164 q 418 -13 583 -13 m 418 148 q 520 190 490 148 q 551 340 551 232 l 551 665 q 520 818 551 774 q 418 862 490 862 q 316 818 346 862 q 285 665 285 774 l 285 340 q 316 190 285 232 q 418 148 346 148 m 400 1136 l 148 1389 l 413 1389 l 543 1136 l 400 1136 z "},"Ó":{"ha":836,"x_min":78,"x_max":759,"o":"m 418 -13 q 165 76 253 -13 q 78 324 78 164 l 78 681 q 166 932 78 842 q 419 1023 254 1023 q 672 932 585 1023 q 759 681 759 842 l 759 324 q 671 76 759 164 q 418 -13 583 -13 m 418 148 q 520 190 490 148 q 551 340 551 232 l 551 665 q 520 818 551 774 q 418 862 490 862 q 316 818 346 862 q 285 665 285 774 l 285 340 q 316 190 285 232 q 418 148 346 148 m 304 1136 l 434 1389 l 699 1389 l 446 1136 l 304 1136 z "},"Ô":{"ha":836,"x_min":78,"x_max":759,"o":"m 418 -13 q 165 76 253 -13 q 78 324 78 164 l 78 681 q 166 932 78 842 q 419 1023 254 1023 q 672 932 585 1023 q 759 681 759 842 l 759 324 q 671 76 759 164 q 418 -13 583 -13 m 418 148 q 520 190 490 148 q 551 340 551 232 l 551 665 q 520 818 551 774 q 418 862 490 862 q 316 818 346 862 q 285 665 285 774 l 285 340 q 316 190 285 232 q 418 148 346 148 m 193 1128 l 126 1222 l 338 1418 l 495 1418 l 710 1222 l 643 1128 l 417 1265 l 193 1128 z "},"Õ":{"ha":836,"x_min":78,"x_max":759,"o":"m 418 -13 q 165 76 253 -13 q 78 324 78 164 l 78 681 q 166 932 78 842 q 419 1023 254 1023 q 672 932 585 1023 q 759 681 759 842 l 759 324 q 671 76 759 164 q 418 -13 583 -13 m 418 148 q 520 190 490 148 q 551 340 551 232 l 551 665 q 520 818 551 774 q 418 862 490 862 q 316 818 346 862 q 285 665 285 774 l 285 340 q 316 190 285 232 q 418 148 346 148 m 524 1149 q 444 1168 473 1149 q 394 1213 414 1187 q 358 1258 374 1237 q 321 1278 342 1278 q 285 1258 301 1278 q 271 1179 270 1237 l 271 1162 l 136 1162 l 136 1181 q 184 1350 136 1283 q 314 1417 231 1417 q 395 1398 365 1417 q 446 1352 424 1379 q 481 1308 466 1328 q 516 1288 496 1288 q 552 1308 537 1288 q 566 1386 567 1328 l 566 1404 l 701 1404 l 701 1385 q 654 1216 701 1283 q 524 1149 607 1149 z "},"Ö":{"ha":836,"x_min":78,"x_max":759,"o":"m 418 -13 q 165 76 253 -13 q 78 324 78 164 l 78 681 q 166 932 78 842 q 419 1023 254 1023 q 672 932 585 1023 q 759 681 759 842 l 759 324 q 671 76 759 164 q 418 -13 583 -13 m 418 148 q 520 190 490 148 q 551 340 551 232 l 551 665 q 520 818 551 774 q 418 862 490 862 q 316 818 346 862 q 285 665 285 774 l 285 340 q 316 190 285 232 q 418 148 346 148 m 271 1134 q 195 1153 225 1134 q 165 1220 165 1172 l 165 1235 q 195 1306 165 1285 q 271 1326 225 1326 q 347 1306 318 1326 q 376 1235 376 1285 l 376 1220 q 347 1153 376 1172 q 271 1134 317 1134 m 564 1134 q 489 1153 518 1134 q 460 1220 460 1172 l 460 1235 q 489 1306 460 1285 q 564 1326 518 1326 q 641 1306 612 1326 q 670 1235 670 1285 l 670 1220 q 641 1153 670 1172 q 564 1134 611 1134 z "},"Ō":{"ha":836,"x_min":78,"x_max":759,"o":"m 418 -13 q 165 76 253 -13 q 78 324 78 164 l 78 681 q 166 932 78 842 q 419 1023 254 1023 q 672 932 585 1023 q 759 681 759 842 l 759 324 q 671 76 759 164 q 418 -13 583 -13 m 418 148 q 520 190 490 148 q 551 340 551 232 l 551 665 q 520 818 551 774 q 418 862 490 862 q 316 818 346 862 q 285 665 285 774 l 285 340 q 316 190 285 232 q 418 148 346 148 m 163 1183 l 163 1342 l 673 1342 l 673 1183 l 163 1183 z "},"Ŏ":{"ha":836,"x_min":78,"x_max":759,"o":"m 418 -13 q 165 76 253 -13 q 78 324 78 164 l 78 681 q 166 932 78 842 q 419 1023 254 1023 q 672 932 585 1023 q 759 681 759 842 l 759 324 q 671 76 759 164 q 418 -13 583 -13 m 418 148 q 520 190 490 148 q 551 340 551 232 l 551 665 q 520 818 551 774 q 418 862 490 862 q 316 818 346 862 q 285 665 285 774 l 285 340 q 316 190 285 232 q 418 148 346 148 m 418 1128 q 195 1198 271 1128 q 117 1415 119 1268 l 288 1415 q 319 1293 289 1327 q 418 1259 348 1259 q 517 1293 487 1259 q 548 1415 547 1327 l 718 1415 q 641 1198 717 1268 q 418 1128 564 1128 z "},"Ő":{"ha":836,"x_min":78,"x_max":759,"o":"m 418 -13 q 165 76 253 -13 q 78 324 78 164 l 78 681 q 166 932 78 842 q 419 1023 254 1023 q 672 932 585 1023 q 759 681 759 842 l 759 324 q 671 76 759 164 q 418 -13 583 -13 m 418 148 q 520 190 490 148 q 551 340 551 232 l 551 665 q 520 818 551 774 q 418 862 490 862 q 316 818 346 862 q 285 665 285 774 l 285 340 q 316 190 285 232 q 418 148 346 148 m 484 1136 l 539 1389 l 747 1389 l 593 1136 l 484 1136 m 217 1136 l 273 1389 l 481 1389 l 327 1136 l 217 1136 z "},"P":{"ha":836,"x_min":82,"x_max":761,"o":"m 82 0 l 82 1010 l 437 1010 q 676 943 591 1010 q 761 734 761 875 l 761 592 q 677 389 761 453 q 437 324 593 324 l 290 324 l 290 0 l 82 0 m 290 481 l 426 481 q 523 508 491 481 q 554 609 554 535 l 554 720 q 523 822 554 794 q 426 850 491 850 l 290 850 l 290 481 z "},"Q":{"ha":836,"x_min":78,"x_max":759,"o":"m 729 -256 q 426 -227 523 -292 q 330 21 328 -162 q 142 126 206 42 q 78 347 78 211 l 78 681 q 166 932 78 842 q 419 1023 254 1023 q 672 932 585 1023 q 759 681 759 842 l 759 347 q 691 121 759 207 q 491 16 622 34 q 546 -87 495 -64 q 707 -88 597 -110 l 729 -256 m 418 167 q 520 211 490 167 q 551 362 551 256 l 551 667 q 520 816 551 773 q 418 859 490 859 q 316 816 346 859 q 285 667 285 773 l 285 362 q 316 211 285 256 q 418 167 346 167 z "},"R":{"ha":836,"x_min":82,"x_max":785,"o":"m 290 528 l 429 528 q 528 555 499 528 q 558 654 558 582 l 558 727 q 528 823 558 795 q 429 850 499 850 l 290 850 l 290 528 m 290 0 l 82 0 l 82 1010 l 458 1010 q 683 940 610 1010 q 756 736 756 870 l 756 650 q 712 476 756 543 q 581 385 668 409 l 785 0 l 566 0 l 372 369 l 290 369 l 290 0 z "},"Ŕ":{"ha":836,"x_min":82,"x_max":785,"o":"m 290 528 l 429 528 q 528 555 499 528 q 558 654 558 582 l 558 727 q 528 823 558 795 q 429 850 499 850 l 290 850 l 290 528 m 290 0 l 82 0 l 82 1010 l 458 1010 q 683 940 610 1010 q 756 736 756 870 l 756 650 q 712 476 756 543 q 581 385 668 409 l 785 0 l 566 0 l 372 369 l 290 369 l 290 0 m 308 1136 l 438 1389 l 703 1389 l 449 1136 l 308 1136 z "},"Ŗ":{"ha":836,"x_min":82,"x_max":785,"o":"m 290 528 l 429 528 q 528 555 499 528 q 558 654 558 582 l 558 727 q 528 823 558 795 q 429 850 499 850 l 290 850 l 290 528 m 290 0 l 82 0 l 82 1010 l 458 1010 q 683 940 610 1010 q 756 736 756 870 l 756 650 q 712 476 756 543 q 581 385 668 409 l 785 0 l 566 0 l 372 369 l 290 369 l 290 0 m 208 -379 l 293 -126 l 558 -126 l 351 -379 l 208 -379 z "},"Ř":{"ha":836,"x_min":82,"x_max":785,"o":"m 290 528 l 429 528 q 528 555 499 528 q 558 654 558 582 l 558 727 q 528 823 558 795 q 429 850 499 850 l 290 850 l 290 528 m 290 0 l 82 0 l 82 1010 l 458 1010 q 683 940 610 1010 q 756 736 756 870 l 756 650 q 712 476 756 543 q 581 385 668 409 l 785 0 l 566 0 l 372 369 l 290 369 l 290 0 m 328 1141 l 114 1337 l 181 1432 l 407 1295 l 630 1432 l 697 1337 l 485 1141 l 328 1141 z "},"S":{"ha":836,"x_min":63,"x_max":768,"o":"m 409 -11 q 219 18 306 -11 q 63 101 133 47 l 119 256 q 254 178 183 207 q 414 149 324 149 q 523 182 487 149 q 559 273 559 216 q 519 363 559 335 q 372 424 479 391 q 151 538 215 471 q 87 723 87 605 q 172 937 87 855 q 414 1020 256 1020 q 585 989 501 1020 q 726 912 669 958 l 679 764 q 552 834 615 809 q 422 859 489 859 q 327 831 360 859 q 294 746 294 803 q 333 662 294 692 q 486 596 371 631 q 705 480 643 548 q 768 292 768 413 q 670 69 768 149 q 409 -11 572 -11 z "},"Ś":{"ha":836,"x_min":63,"x_max":768,"o":"m 409 -11 q 219 18 306 -11 q 63 101 133 47 l 119 256 q 254 178 183 207 q 414 149 324 149 q 523 182 487 149 q 559 273 559 216 q 519 363 559 335 q 372 424 479 391 q 151 538 215 471 q 87 723 87 605 q 172 937 87 855 q 414 1020 256 1020 q 585 989 501 1020 q 726 912 669 958 l 679 764 q 552 834 615 809 q 422 859 489 859 q 327 831 360 859 q 294 746 294 803 q 333 662 294 692 q 486 596 371 631 q 705 480 643 548 q 768 292 768 413 q 670 69 768 149 q 409 -11 572 -11 m 266 1136 l 396 1389 l 662 1389 l 408 1136 l 266 1136 z "},"Ŝ":{"ha":836,"x_min":63,"x_max":768,"o":"m 409 -11 q 219 18 306 -11 q 63 101 133 47 l 119 256 q 254 178 183 207 q 414 149 324 149 q 523 182 487 149 q 559 273 559 216 q 519 363 559 335 q 372 424 479 391 q 151 538 215 471 q 87 723 87 605 q 172 937 87 855 q 414 1020 256 1020 q 585 989 501 1020 q 726 912 669 958 l 679 764 q 552 834 615 809 q 422 859 489 859 q 327 831 360 859 q 294 746 294 803 q 333 662 294 692 q 486 596 371 631 q 705 480 643 548 q 768 292 768 413 q 670 69 768 149 q 409 -11 572 -11 m 192 1128 l 125 1222 l 337 1418 l 494 1418 l 708 1222 l 641 1128 l 415 1265 l 192 1128 z "},"Ş":{"ha":836,"x_min":63,"x_max":768,"o":"m 409 -11 q 219 18 306 -11 q 63 101 133 47 l 119 256 q 254 178 183 207 q 414 149 324 149 q 523 182 487 149 q 559 273 559 216 q 519 363 559 335 q 372 424 479 391 q 151 538 215 471 q 87 723 87 605 q 172 937 87 855 q 414 1020 256 1020 q 585 989 501 1020 q 726 912 669 958 l 679 764 q 552 834 615 809 q 422 859 489 859 q 327 831 360 859 q 294 746 294 803 q 333 662 294 692 q 486 596 371 631 q 705 480 643 548 q 768 292 768 413 q 670 69 768 149 q 409 -11 572 -11 m 381 0 l 405 53 q 556 4 499 42 q 614 -112 614 -33 q 544 -240 614 -199 q 380 -280 475 -280 q 208 -243 274 -280 q 138 -124 143 -206 l 313 -111 q 329 -145 316 -135 q 371 -154 342 -154 q 419 -140 403 -154 q 436 -82 436 -125 q 424 -27 436 -45 q 381 0 413 -9 z "},"Š":{"ha":836,"x_min":63,"x_max":768,"o":"m 409 -11 q 219 18 306 -11 q 63 101 133 47 l 119 256 q 254 178 183 207 q 414 149 324 149 q 523 182 487 149 q 559 273 559 216 q 519 363 559 335 q 372 424 479 391 q 151 538 215 471 q 87 723 87 605 q 172 937 87 855 q 414 1020 256 1020 q 585 989 501 1020 q 726 912 669 958 l 679 764 q 552 834 615 809 q 422 859 489 859 q 327 831 360 859 q 294 746 294 803 q 333 662 294 692 q 486 596 371 631 q 705 480 643 548 q 768 292 768 413 q 670 69 768 149 q 409 -11 572 -11 m 340 1141 l 125 1337 l 192 1432 l 418 1295 l 641 1432 l 708 1337 l 496 1141 l 340 1141 z "},"Ș":{"ha":836,"x_min":63,"x_max":768,"o":"m 409 -11 q 219 18 306 -11 q 63 101 133 47 l 119 256 q 254 178 183 207 q 414 149 324 149 q 523 182 487 149 q 559 273 559 216 q 519 363 559 335 q 372 424 479 391 q 151 538 215 471 q 87 723 87 605 q 172 937 87 855 q 414 1020 256 1020 q 585 989 501 1020 q 726 912 669 958 l 679 764 q 552 834 615 809 q 422 859 489 859 q 327 831 360 859 q 294 746 294 803 q 333 662 294 692 q 486 596 371 631 q 705 480 643 548 q 768 292 768 413 q 670 69 768 149 q 409 -11 572 -11 m 212 -379 l 297 -126 l 562 -126 l 355 -379 l 212 -379 z "},"T":{"ha":836,"x_min":51,"x_max":787,"o":"m 314 0 l 314 850 l 51 850 l 51 1010 l 787 1010 l 787 850 l 521 850 l 521 0 l 314 0 z "},"Ţ":{"ha":836,"x_min":51,"x_max":787,"o":"m 314 0 l 314 850 l 51 850 l 51 1010 l 787 1010 l 787 850 l 521 850 l 521 0 l 314 0 m 370 0 l 394 53 q 545 4 487 42 q 602 -112 602 -33 q 533 -240 602 -199 q 369 -280 463 -280 q 197 -243 263 -280 q 126 -124 131 -206 l 302 -111 q 318 -145 304 -135 q 360 -154 331 -154 q 408 -140 391 -154 q 424 -82 424 -125 q 413 -27 424 -45 q 370 0 402 -9 z "},"Ť":{"ha":836,"x_min":51,"x_max":787,"o":"m 314 0 l 314 850 l 51 850 l 51 1010 l 787 1010 l 787 850 l 521 850 l 521 0 l 314 0 m 341 1141 l 126 1337 l 193 1432 l 419 1295 l 643 1432 l 710 1337 l 497 1141 l 341 1141 z "},"Ț":{"ha":836,"x_min":51,"x_max":787,"o":"m 314 0 l 314 850 l 51 850 l 51 1010 l 787 1010 l 787 850 l 521 850 l 521 0 l 314 0 m 221 -379 l 306 -126 l 571 -126 l 364 -379 l 221 -379 z "},"U":{"ha":836,"x_min":82,"x_max":754,"o":"m 418 -13 q 164 75 246 -13 q 82 347 82 163 l 82 1010 l 290 1010 l 290 352 q 319 198 290 240 q 418 155 348 155 q 516 198 487 155 q 545 352 545 240 l 545 1010 l 754 1010 l 754 347 q 672 75 754 163 q 418 -13 590 -13 z "},"Ù":{"ha":836,"x_min":82,"x_max":754,"o":"m 418 -13 q 164 75 246 -13 q 82 347 82 163 l 82 1010 l 290 1010 l 290 352 q 319 198 290 240 q 418 155 348 155 q 516 198 487 155 q 545 352 545 240 l 545 1010 l 754 1010 l 754 347 q 672 75 754 163 q 418 -13 590 -13 m 400 1136 l 148 1389 l 413 1389 l 543 1136 l 400 1136 z "},"Ú":{"ha":836,"x_min":82,"x_max":754,"o":"m 418 -13 q 164 75 246 -13 q 82 347 82 163 l 82 1010 l 290 1010 l 290 352 q 319 198 290 240 q 418 155 348 155 q 516 198 487 155 q 545 352 545 240 l 545 1010 l 754 1010 l 754 347 q 672 75 754 163 q 418 -13 590 -13 m 268 1136 l 398 1389 l 663 1389 l 409 1136 l 268 1136 z "},"Û":{"ha":836,"x_min":82,"x_max":754,"o":"m 418 -13 q 164 75 246 -13 q 82 347 82 163 l 82 1010 l 290 1010 l 290 352 q 319 198 290 240 q 418 155 348 155 q 516 198 487 155 q 545 352 545 240 l 545 1010 l 754 1010 l 754 347 q 672 75 754 163 q 418 -13 590 -13 m 193 1128 l 126 1222 l 338 1418 l 495 1418 l 710 1222 l 643 1128 l 417 1265 l 193 1128 z "},"Ü":{"ha":836,"x_min":82,"x_max":754,"o":"m 418 -13 q 164 75 246 -13 q 82 347 82 163 l 82 1010 l 290 1010 l 290 352 q 319 198 290 240 q 418 155 348 155 q 516 198 487 155 q 545 352 545 240 l 545 1010 l 754 1010 l 754 347 q 672 75 754 163 q 418 -13 590 -13 m 271 1134 q 195 1153 225 1134 q 165 1220 165 1172 l 165 1235 q 195 1306 165 1285 q 271 1326 225 1326 q 347 1306 318 1326 q 376 1235 376 1285 l 376 1220 q 347 1153 376 1172 q 271 1134 317 1134 m 564 1134 q 489 1153 518 1134 q 460 1220 460 1172 l 460 1235 q 489 1306 460 1285 q 564 1326 518 1326 q 641 1306 612 1326 q 670 1235 670 1285 l 670 1220 q 641 1153 670 1172 q 564 1134 611 1134 z "},"Ũ":{"ha":836,"x_min":82,"x_max":754,"o":"m 418 -13 q 164 75 246 -13 q 82 347 82 163 l 82 1010 l 290 1010 l 290 352 q 319 198 290 240 q 418 155 348 155 q 516 198 487 155 q 545 352 545 240 l 545 1010 l 754 1010 l 754 347 q 672 75 754 163 q 418 -13 590 -13 m 524 1149 q 444 1168 473 1149 q 394 1213 414 1187 q 358 1258 374 1237 q 321 1278 342 1278 q 285 1258 301 1278 q 271 1179 270 1237 l 271 1162 l 136 1162 l 136 1181 q 184 1350 136 1283 q 314 1417 231 1417 q 395 1398 365 1417 q 446 1352 424 1379 q 481 1308 466 1328 q 516 1288 496 1288 q 552 1308 537 1288 q 566 1386 567 1328 l 566 1404 l 701 1404 l 701 1385 q 654 1216 701 1283 q 524 1149 607 1149 z "},"Ū":{"ha":836,"x_min":82,"x_max":754,"o":"m 418 -13 q 164 75 246 -13 q 82 347 82 163 l 82 1010 l 290 1010 l 290 352 q 319 198 290 240 q 418 155 348 155 q 516 198 487 155 q 545 352 545 240 l 545 1010 l 754 1010 l 754 347 q 672 75 754 163 q 418 -13 590 -13 m 163 1183 l 163 1342 l 673 1342 l 673 1183 l 163 1183 z "},"Ŭ":{"ha":836,"x_min":82,"x_max":754,"o":"m 418 -13 q 164 75 246 -13 q 82 347 82 163 l 82 1010 l 290 1010 l 290 352 q 319 198 290 240 q 418 155 348 155 q 516 198 487 155 q 545 352 545 240 l 545 1010 l 754 1010 l 754 347 q 672 75 754 163 q 418 -13 590 -13 m 418 1128 q 195 1198 271 1128 q 117 1415 119 1268 l 288 1415 q 319 1293 289 1327 q 418 1259 348 1259 q 517 1293 487 1259 q 548 1415 547 1327 l 718 1415 q 641 1198 717 1268 q 418 1128 564 1128 z "},"Ů":{"ha":836,"x_min":82,"x_max":754,"o":"m 418 -13 q 164 75 246 -13 q 82 347 82 163 l 82 1010 l 290 1010 l 290 352 q 319 198 290 240 q 418 155 348 155 q 516 198 487 155 q 545 352 545 240 l 545 1010 l 754 1010 l 754 347 q 672 75 754 163 q 418 -13 590 -13 m 418 1110 q 251 1157 314 1110 q 187 1301 187 1203 l 187 1341 q 251 1487 187 1439 q 418 1535 314 1535 q 586 1487 523 1535 q 649 1341 649 1439 l 649 1301 q 585 1157 649 1203 q 418 1110 521 1110 m 418 1215 q 482 1234 460 1215 q 504 1301 504 1254 l 504 1341 q 482 1409 504 1388 q 418 1431 460 1431 q 354 1409 375 1431 q 332 1341 332 1388 l 332 1301 q 354 1234 332 1254 q 418 1215 375 1215 z "},"Ű":{"ha":836,"x_min":82,"x_max":759,"o":"m 418 -13 q 164 75 246 -13 q 82 347 82 163 l 82 1010 l 290 1010 l 290 352 q 319 198 290 240 q 418 155 348 155 q 516 198 487 155 q 545 352 545 240 l 545 1010 l 754 1010 l 754 347 q 672 75 754 163 q 418 -13 590 -13 m 495 1136 l 551 1389 l 759 1389 l 605 1136 l 495 1136 m 229 1136 l 284 1389 l 492 1389 l 338 1136 l 229 1136 z "},"Ų":{"ha":836,"x_min":82,"x_max":754,"o":"m 497 -279 q 350 -238 404 -279 q 295 -121 295 -197 q 350 6 295 -49 q 473 82 405 61 l 505 29 q 456 -21 467 5 q 446 -74 446 -48 q 467 -125 446 -109 q 532 -141 487 -141 q 580 -138 552 -141 q 640 -129 609 -134 l 640 -263 q 566 -275 602 -271 q 497 -279 529 -279 m 418 -13 q 164 75 246 -13 q 82 347 82 163 l 82 1010 l 290 1010 l 290 352 q 319 198 290 240 q 418 155 348 155 q 516 198 487 155 q 545 352 545 240 l 545 1010 l 754 1010 l 754 347 q 672 75 754 163 q 418 -13 590 -13 z "},"V":{"ha":836,"x_min":32,"x_max":806,"o":"m 553 0 l 284 0 l 32 1010 l 239 1010 l 418 178 l 606 1010 l 806 1010 l 553 0 z "},"W":{"ha":836,"x_min":27,"x_max":809,"o":"m 509 0 l 419 491 l 331 0 l 146 0 l 27 1010 l 206 1010 l 258 250 l 343 758 l 491 758 l 581 261 l 631 1010 l 809 1010 l 689 0 l 509 0 z "},"Ŵ":{"ha":836,"x_min":27,"x_max":809,"o":"m 509 0 l 419 491 l 331 0 l 146 0 l 27 1010 l 206 1010 l 258 250 l 343 758 l 491 758 l 581 261 l 631 1010 l 809 1010 l 689 0 l 509 0 m 193 1128 l 126 1222 l 338 1418 l 495 1418 l 710 1222 l 643 1128 l 417 1265 l 193 1128 z "},"Ẁ":{"ha":836,"x_min":27,"x_max":809,"o":"m 509 0 l 419 491 l 331 0 l 146 0 l 27 1010 l 206 1010 l 258 250 l 343 758 l 491 758 l 581 261 l 631 1010 l 809 1010 l 689 0 l 509 0 m 403 1136 l 150 1389 l 415 1389 l 545 1136 l 403 1136 z "},"Ẃ":{"ha":836,"x_min":27,"x_max":809,"o":"m 509 0 l 419 491 l 331 0 l 146 0 l 27 1010 l 206 1010 l 258 250 l 343 758 l 491 758 l 581 261 l 631 1010 l 809 1010 l 689 0 l 509 0 m 270 1136 l 400 1389 l 665 1389 l 412 1136 l 270 1136 z "},"Ẅ":{"ha":836,"x_min":27,"x_max":809,"o":"m 509 0 l 419 491 l 331 0 l 146 0 l 27 1010 l 206 1010 l 258 250 l 343 758 l 491 758 l 581 261 l 631 1010 l 809 1010 l 689 0 l 509 0 m 280 1134 q 204 1153 234 1134 q 174 1220 174 1172 l 174 1235 q 204 1306 174 1285 q 280 1326 234 1326 q 356 1306 327 1326 q 385 1235 385 1285 l 385 1220 q 355 1153 385 1172 q 280 1134 326 1134 m 573 1134 q 497 1153 527 1134 q 468 1220 468 1172 l 468 1235 q 497 1306 468 1285 q 573 1326 527 1326 q 650 1306 621 1326 q 679 1235 679 1285 l 679 1220 q 650 1153 679 1172 q 573 1134 620 1134 z "},"X":{"ha":836,"x_min":39,"x_max":797,"o":"m 588 0 l 414 330 l 242 0 l 39 0 l 321 519 l 68 1010 l 283 1010 l 438 713 l 593 1010 l 797 1010 l 530 520 l 794 0 l 588 0 z "},"Y":{"ha":836,"x_min":29,"x_max":806,"o":"m 521 0 l 314 0 l 314 379 l 29 1010 l 239 1010 l 419 563 l 597 1010 l 806 1010 l 521 379 l 521 0 z "},"Ý":{"ha":836,"x_min":29,"x_max":806,"o":"m 521 0 l 314 0 l 314 379 l 29 1010 l 239 1010 l 419 563 l 597 1010 l 806 1010 l 521 379 l 521 0 m 268 1136 l 398 1389 l 663 1389 l 409 1136 l 268 1136 z "},"Ŷ":{"ha":836,"x_min":29,"x_max":806,"o":"m 521 0 l 314 0 l 314 379 l 29 1010 l 239 1010 l 419 563 l 597 1010 l 806 1010 l 521 379 l 521 0 m 193 1128 l 126 1222 l 338 1418 l 495 1418 l 710 1222 l 643 1128 l 417 1265 l 193 1128 z "},"Ÿ":{"ha":836,"x_min":29,"x_max":806,"o":"m 521 0 l 314 0 l 314 379 l 29 1010 l 239 1010 l 419 563 l 597 1010 l 806 1010 l 521 379 l 521 0 m 271 1134 q 195 1153 225 1134 q 165 1220 165 1172 l 165 1235 q 195 1306 165 1285 q 271 1326 225 1326 q 347 1306 318 1326 q 376 1235 376 1285 l 376 1220 q 347 1153 376 1172 q 271 1134 317 1134 m 564 1134 q 489 1153 518 1134 q 460 1220 460 1172 l 460 1235 q 489 1306 460 1285 q 564 1326 518 1326 q 641 1306 612 1326 q 670 1235 670 1285 l 670 1220 q 641 1153 670 1172 q 564 1134 611 1134 z "},"Ỳ":{"ha":836,"x_min":29,"x_max":806,"o":"m 521 0 l 314 0 l 314 379 l 29 1010 l 239 1010 l 419 563 l 597 1010 l 806 1010 l 521 379 l 521 0 m 400 1136 l 148 1389 l 413 1389 l 543 1136 l 400 1136 z "},"Z":{"ha":836,"x_min":78,"x_max":759,"o":"m 759 0 l 78 0 l 78 160 l 544 850 l 78 850 l 78 1010 l 759 1010 l 759 850 l 298 160 l 759 160 l 759 0 z "},"Ź":{"ha":836,"x_min":78,"x_max":759,"o":"m 759 0 l 78 0 l 78 160 l 544 850 l 78 850 l 78 1010 l 759 1010 l 759 850 l 298 160 l 759 160 l 759 0 m 303 1136 l 433 1389 l 698 1389 l 444 1136 l 303 1136 z "},"Ż":{"ha":836,"x_min":78,"x_max":759,"o":"m 759 0 l 78 0 l 78 160 l 544 850 l 78 850 l 78 1010 l 759 1010 l 759 850 l 298 160 l 759 160 l 759 0 m 418 1134 q 318 1153 356 1134 q 280 1220 280 1172 l 280 1235 q 318 1306 280 1285 q 418 1326 356 1326 q 518 1306 480 1326 q 556 1235 556 1285 l 556 1220 q 517 1153 556 1172 q 418 1134 479 1134 z "},"Ž":{"ha":836,"x_min":78,"x_max":759,"o":"m 759 0 l 78 0 l 78 160 l 544 850 l 78 850 l 78 1010 l 759 1010 l 759 850 l 298 160 l 759 160 l 759 0 m 341 1141 l 126 1337 l 193 1432 l 419 1295 l 643 1432 l 710 1337 l 497 1141 l 341 1141 z "},"Æ":{"ha":836,"x_min":21,"x_max":803,"o":"m 367 862 l 261 399 l 402 399 l 402 862 l 367 862 m 402 251 l 229 251 l 170 0 l 21 0 l 266 1010 l 803 1010 l 803 862 l 580 862 l 580 616 l 782 616 l 782 470 l 580 470 l 580 148 l 803 148 l 803 0 l 402 0 l 402 251 z "},"Ǽ":{"ha":836,"x_min":21,"x_max":804,"o":"m 367 862 l 261 399 l 402 399 l 402 862 l 367 862 m 402 251 l 229 251 l 170 0 l 21 0 l 266 1010 l 803 1010 l 803 862 l 580 862 l 580 616 l 782 616 l 782 470 l 580 470 l 580 148 l 803 148 l 803 0 l 402 0 l 402 251 m 409 1136 l 539 1389 l 804 1389 l 551 1136 l 409 1136 z "},"Ð":{"ha":836,"x_min":6,"x_max":759,"o":"m 82 0 l 82 487 l 6 487 l 6 624 l 82 624 l 82 1010 l 412 1010 q 667 910 574 1010 q 759 645 759 811 l 759 360 q 666 98 759 196 q 410 0 573 0 l 82 0 m 290 160 l 393 160 q 515 210 479 160 q 551 375 551 260 l 551 630 q 515 799 551 747 q 393 850 479 850 l 290 850 l 290 624 l 418 624 l 418 487 l 290 487 l 290 160 z "},"Ø":{"ha":836,"x_min":78,"x_max":759,"o":"m 274 287 l 477 855 q 450 861 465 860 q 418 862 436 862 q 301 815 335 862 q 268 650 268 768 l 268 355 q 269 318 268 335 q 274 287 270 301 m 418 148 q 536 194 503 148 q 569 355 569 240 l 569 636 q 566 681 569 660 q 558 716 563 701 l 355 157 q 383 150 367 152 q 418 148 399 148 m 418 -13 q 360 -9 388 -13 q 308 0 332 -5 l 260 -126 l 107 -126 l 179 66 q 104 179 129 110 q 78 340 78 249 l 78 665 q 166 929 78 835 q 419 1023 254 1023 q 473 1020 447 1023 q 524 1011 500 1016 l 571 1136 l 723 1136 l 653 947 q 732 830 706 902 q 759 665 759 759 l 759 340 q 671 80 759 173 q 418 -13 583 -13 z "},"Ǿ":{"ha":836,"x_min":78,"x_max":759,"o":"m 274 287 l 477 855 q 450 861 465 860 q 418 862 436 862 q 301 815 335 862 q 268 650 268 768 l 268 355 q 269 318 268 335 q 274 287 270 301 m 418 148 q 536 194 503 148 q 569 355 569 240 l 569 636 q 566 681 569 660 q 558 716 563 701 l 355 157 q 383 150 367 152 q 418 148 399 148 m 418 -13 q 360 -9 388 -13 q 308 0 332 -5 l 260 -126 l 107 -126 l 179 66 q 104 179 129 110 q 78 340 78 249 l 78 665 q 166 929 78 835 q 419 1023 254 1023 q 473 1020 447 1023 q 524 1011 500 1016 l 571 1136 l 723 1136 l 653 947 q 732 830 706 902 q 759 665 759 759 l 759 340 q 671 80 759 173 q 418 -13 583 -13 m 304 1136 l 434 1389 l 699 1389 l 446 1136 l 304 1136 z "},"Þ":{"ha":836,"x_min":82,"x_max":761,"o":"m 82 0 l 82 1010 l 290 1010 l 290 854 l 437 854 q 678 782 595 854 q 761 576 761 711 l 761 437 q 678 237 761 306 q 437 168 595 168 l 290 168 l 290 0 l 82 0 m 290 326 l 413 326 q 521 353 489 326 q 553 447 553 380 l 553 572 q 521 666 553 639 q 413 693 489 693 l 290 693 l 290 326 z "},"Đ":{"ha":836,"x_min":6,"x_max":759,"o":"m 82 0 l 82 487 l 6 487 l 6 624 l 82 624 l 82 1010 l 412 1010 q 667 910 574 1010 q 759 645 759 811 l 759 360 q 666 98 759 196 q 410 0 573 0 l 82 0 m 290 160 l 393 160 q 515 210 479 160 q 551 375 551 260 l 551 630 q 515 799 551 747 q 393 850 479 850 l 290 850 l 290 624 l 418 624 l 418 487 l 290 487 l 290 160 z "},"Ħ":{"ha":836,"x_min":-4,"x_max":840,"o":"m 297 535 l 540 535 l 540 699 l 297 699 l 297 535 m 297 375 l 297 0 l 88 0 l 88 699 l -4 699 l -4 836 l 88 836 l 88 1010 l 297 1010 l 297 836 l 540 836 l 540 1010 l 747 1010 l 747 836 l 840 836 l 840 699 l 747 699 l 747 0 l 540 0 l 540 375 l 297 375 z "},"Ĳ":{"ha":836,"x_min":63,"x_max":773,"o":"m 226 0 l 63 0 l 63 1010 l 226 1010 l 226 0 m 549 -13 q 370 66 429 -13 q 309 332 311 144 l 471 346 q 485 174 472 216 q 543 133 499 133 q 596 170 581 133 q 611 285 611 207 l 611 866 l 446 866 l 446 1010 l 773 1010 l 773 280 q 718 66 773 144 q 549 -13 663 -13 z "},"Ŀ":{"ha":836,"x_min":140,"x_max":833,"o":"m 140 0 l 140 1010 l 348 1010 l 348 160 l 754 160 l 754 0 l 140 0 m 696 495 q 596 514 634 495 q 558 581 558 533 l 558 596 q 596 667 558 646 q 696 687 634 687 q 795 667 758 687 q 833 596 833 646 l 833 581 q 795 514 833 533 q 696 495 756 495 z "},"Ł":{"ha":836,"x_min":52,"x_max":754,"o":"m 140 0 l 140 423 l 52 394 l 52 525 l 140 554 l 140 1010 l 348 1010 l 348 625 l 620 717 l 620 586 l 348 494 l 348 160 l 754 160 l 754 0 l 140 0 z "},"Ŋ":{"ha":836,"x_min":82,"x_max":754,"o":"m 466 -264 q 385 -255 427 -264 q 303 -231 343 -246 l 326 -86 q 388 -108 360 -100 q 442 -116 417 -116 q 518 -83 490 -116 q 545 30 545 -49 l 545 718 q 521 825 545 790 q 455 860 496 860 q 374 826 412 860 q 290 727 336 792 l 290 0 l 82 0 l 82 1010 l 290 1010 l 290 860 l 324 860 q 414 981 356 939 q 547 1023 472 1023 q 694 958 634 1023 q 754 773 754 894 l 754 10 q 670 -196 754 -129 q 466 -264 587 -264 z "},"Œ":{"ha":836,"x_min":43,"x_max":806,"o":"m 333 0 q 120 97 197 0 q 43 356 43 194 l 43 655 q 120 914 43 817 q 335 1010 197 1010 l 806 1010 l 806 862 l 580 862 l 580 621 l 759 621 l 759 473 l 580 473 l 580 148 l 806 148 l 806 0 l 333 0 m 350 155 l 402 155 l 402 855 l 350 855 q 249 803 278 855 q 220 645 220 751 l 220 367 q 249 208 220 261 q 350 155 278 155 z "},"Ŧ":{"ha":836,"x_min":51,"x_max":787,"o":"m 314 0 l 314 376 l 119 376 l 119 513 l 314 513 l 314 850 l 51 850 l 51 1010 l 787 1010 l 787 850 l 521 850 l 521 513 l 717 513 l 717 376 l 521 376 l 521 0 l 314 0 z "},"Α":{"ha":836,"x_min":32,"x_max":806,"o":"m 516 412 l 422 842 l 319 412 l 516 412 m 607 0 l 552 251 l 282 251 l 221 0 l 32 0 l 293 1010 l 544 1010 l 806 0 l 607 0 z "},"Ά":{"ha":836,"x_min":-11,"x_max":806,"o":"m 516 412 l 422 842 l 319 412 l 516 412 m 607 0 l 552 251 l 282 251 l 221 0 l 32 0 l 293 1010 l 544 1010 l 806 0 l 607 0 m -11 884 l 48 1136 l 303 1136 l 119 884 l -11 884 z "},"Β":{"ha":836,"x_min":82,"x_max":759,"o":"m 82 0 l 82 1010 l 431 1010 q 657 951 582 1010 q 731 773 731 893 l 731 725 q 698 607 731 649 q 592 553 664 566 l 592 516 q 715 456 672 508 q 759 326 759 405 l 759 263 q 677 66 759 131 q 429 0 596 0 l 82 0 m 290 596 l 412 596 q 499 621 473 596 q 525 702 525 645 l 525 754 q 499 833 525 809 q 412 857 473 857 l 290 857 l 290 596 m 290 153 l 415 153 q 520 181 487 153 q 552 277 552 210 l 552 332 q 520 426 552 396 q 415 455 487 455 l 290 455 l 290 153 z "},"Γ":{"ha":836,"x_min":129,"x_max":777,"o":"m 129 0 l 129 1010 l 777 1010 l 777 850 l 336 850 l 336 0 l 129 0 z "},"Δ":{"ha":836,"x_min":49,"x_max":787,"o":"m 49 0 l 49 160 l 279 1010 l 566 1010 l 787 160 l 787 0 l 49 0 m 593 160 l 418 861 l 234 160 l 593 160 z "},"Ε":{"ha":836,"x_min":82,"x_max":759,"o":"m 82 0 l 82 1010 l 759 1010 l 759 850 l 290 850 l 290 621 l 701 621 l 701 461 l 290 461 l 290 160 l 759 160 l 759 0 l 82 0 z "},"Έ":{"ha":836,"x_min":-182,"x_max":759,"o":"m 82 0 l 82 1010 l 759 1010 l 759 850 l 290 850 l 290 621 l 701 621 l 701 461 l 290 461 l 290 160 l 759 160 l 759 0 l 82 0 m -182 884 l -122 1136 l 133 1136 l -52 884 l -182 884 z "},"Ζ":{"ha":836,"x_min":78,"x_max":759,"o":"m 759 0 l 78 0 l 78 160 l 544 850 l 78 850 l 78 1010 l 759 1010 l 759 850 l 298 160 l 759 160 l 759 0 z "},"Η":{"ha":836,"x_min":82,"x_max":754,"o":"m 82 0 l 82 1010 l 290 1010 l 290 638 l 545 638 l 545 1010 l 754 1010 l 754 0 l 545 0 l 545 477 l 290 477 l 290 0 l 82 0 z "},"Ή":{"ha":836,"x_min":-203,"x_max":754,"o":"m 82 0 l 82 1010 l 290 1010 l 290 638 l 545 638 l 545 1010 l 754 1010 l 754 0 l 545 0 l 545 477 l 290 477 l 290 0 l 82 0 m -203 884 l -144 1136 l 111 1136 l -73 884 l -203 884 z "},"Θ":{"ha":836,"x_min":69,"x_max":766,"o":"m 418 -13 q 160 79 250 -13 q 69 340 69 170 l 69 665 q 160 930 69 837 q 419 1023 251 1023 q 676 930 586 1023 q 766 665 766 837 l 766 340 q 676 79 766 170 q 418 -13 586 -13 m 418 148 q 544 194 505 148 q 583 355 583 241 l 583 650 q 544 814 583 765 q 418 862 505 862 q 292 814 331 862 q 253 650 253 765 l 253 355 q 292 194 253 241 q 418 148 331 148 m 322 439 l 322 583 l 515 583 l 515 439 l 322 439 z "},"Ι":{"ha":836,"x_min":82,"x_max":754,"o":"m 82 0 l 82 160 l 314 160 l 314 850 l 82 850 l 82 1010 l 754 1010 l 754 850 l 521 850 l 521 160 l 754 160 l 754 0 l 82 0 z "},"Ί":{"ha":836,"x_min":-203,"x_max":754,"o":"m 82 0 l 82 160 l 314 160 l 314 850 l 82 850 l 82 1010 l 754 1010 l 754 850 l 521 850 l 521 160 l 754 160 l 754 0 l 82 0 m -203 884 l -144 1136 l 111 1136 l -73 884 l -203 884 z "},"Ϊ":{"ha":836,"x_min":82,"x_max":754,"o":"m 82 0 l 82 160 l 314 160 l 314 850 l 82 850 l 82 1010 l 754 1010 l 754 850 l 521 850 l 521 160 l 754 160 l 754 0 l 82 0 m 271 1134 q 195 1153 225 1134 q 165 1220 165 1172 l 165 1235 q 195 1306 165 1285 q 271 1326 225 1326 q 347 1306 318 1326 q 376 1235 376 1285 l 376 1220 q 347 1153 376 1172 q 271 1134 317 1134 m 564 1134 q 489 1153 518 1134 q 460 1220 460 1172 l 460 1235 q 489 1306 460 1285 q 564 1326 518 1326 q 641 1306 612 1326 q 670 1235 670 1285 l 670 1220 q 641 1153 670 1172 q 564 1134 611 1134 z "},"Κ":{"ha":836,"x_min":82,"x_max":801,"o":"m 290 444 l 290 0 l 82 0 l 82 1010 l 290 1010 l 290 605 l 335 605 l 583 1010 l 801 1010 l 490 544 l 797 0 l 582 0 l 338 444 l 290 444 z "},"Λ":{"ha":836,"x_min":32,"x_max":806,"o":"m 607 0 l 422 842 l 221 0 l 32 0 l 293 1010 l 544 1010 l 806 0 l 607 0 z "},"Μ":{"ha":836,"x_min":66,"x_max":770,"o":"m 350 292 l 230 701 l 249 0 l 66 0 l 66 1010 l 269 1010 l 422 503 l 573 1010 l 770 1010 l 770 0 l 587 0 l 607 693 l 489 292 l 350 292 z "},"Ν":{"ha":836,"x_min":82,"x_max":754,"o":"m 505 0 l 260 731 l 260 0 l 82 0 l 82 1010 l 314 1010 l 576 245 l 576 1010 l 754 1010 l 754 0 l 505 0 z "},"Ξ":{"ha":836,"x_min":78,"x_max":759,"o":"m 78 850 l 78 1010 l 759 1010 l 759 850 l 78 850 m 106 461 l 106 621 l 730 621 l 730 461 l 106 461 m 78 0 l 78 160 l 759 160 l 759 0 l 78 0 z "},"Ο":{"ha":836,"x_min":78,"x_max":759,"o":"m 418 -13 q 165 76 253 -13 q 78 324 78 164 l 78 681 q 166 932 78 842 q 419 1023 254 1023 q 672 932 585 1023 q 759 681 759 842 l 759 324 q 671 76 759 164 q 418 -13 583 -13 m 418 148 q 520 190 490 148 q 551 340 551 232 l 551 665 q 520 818 551 774 q 418 862 490 862 q 316 818 346 862 q 285 665 285 774 l 285 340 q 316 190 285 232 q 418 148 346 148 z "},"Ό":{"ha":836,"x_min":-72,"x_max":760,"o":"m 419 -13 q 167 76 254 -13 q 80 324 80 164 l 80 681 q 167 932 80 842 q 420 1023 255 1023 q 673 932 586 1023 q 760 681 760 842 l 760 324 q 672 76 760 164 q 419 -13 585 -13 m 419 148 q 521 190 491 148 q 552 340 552 232 l 552 665 q 521 818 552 774 q 419 862 491 862 q 317 818 347 862 q 287 665 287 774 l 287 340 q 317 190 287 232 q 419 148 347 148 m -72 884 l -13 1136 l 242 1136 l 58 884 l -72 884 z "},"Π":{"ha":836,"x_min":82,"x_max":754,"o":"m 82 0 l 82 1010 l 754 1010 l 754 0 l 545 0 l 545 850 l 290 850 l 290 0 l 82 0 z "},"Ρ":{"ha":836,"x_min":82,"x_max":761,"o":"m 82 0 l 82 1010 l 437 1010 q 676 943 591 1010 q 761 734 761 875 l 761 592 q 677 389 761 453 q 437 324 593 324 l 290 324 l 290 0 l 82 0 m 290 481 l 426 481 q 523 508 491 481 q 554 609 554 535 l 554 720 q 523 822 554 794 q 426 850 491 850 l 290 850 l 290 481 z "},"Σ":{"ha":836,"x_min":93,"x_max":731,"o":"m 731 0 l 93 0 l 93 160 l 451 518 l 93 850 l 93 1010 l 731 1010 l 731 850 l 311 850 l 592 590 l 592 461 l 297 160 l 731 160 l 731 0 z "},"Τ":{"ha":836,"x_min":51,"x_max":787,"o":"m 314 0 l 314 850 l 51 850 l 51 1010 l 787 1010 l 787 850 l 521 850 l 521 0 l 314 0 z "},"Υ":{"ha":836,"x_min":29,"x_max":806,"o":"m 521 0 l 314 0 l 314 379 l 29 1010 l 239 1010 l 419 563 l 597 1010 l 806 1010 l 521 379 l 521 0 z "},"Ύ":{"ha":836,"x_min":-210,"x_max":806,"o":"m 521 0 l 314 0 l 314 379 l 29 1010 l 239 1010 l 419 563 l 597 1010 l 806 1010 l 521 379 l 521 0 m -210 884 l -150 1136 l 105 1136 l -80 884 l -210 884 z "},"Ϋ":{"ha":836,"x_min":29,"x_max":806,"o":"m 521 0 l 314 0 l 314 379 l 29 1010 l 239 1010 l 419 563 l 597 1010 l 806 1010 l 521 379 l 521 0 m 271 1134 q 195 1153 225 1134 q 165 1220 165 1172 l 165 1235 q 195 1306 165 1285 q 271 1326 225 1326 q 347 1306 318 1326 q 376 1235 376 1285 l 376 1220 q 347 1153 376 1172 q 271 1134 317 1134 m 564 1134 q 489 1153 518 1134 q 460 1220 460 1172 l 460 1235 q 489 1306 460 1285 q 564 1326 518 1326 q 641 1306 612 1326 q 670 1235 670 1285 l 670 1220 q 641 1153 670 1172 q 564 1134 611 1134 z "},"Φ":{"ha":836,"x_min":56,"x_max":780,"o":"m 519 114 l 503 114 l 503 -13 l 332 -13 l 332 114 l 317 114 q 122 200 189 114 q 56 437 56 287 l 56 568 q 122 809 56 721 q 318 896 189 896 l 332 896 l 332 1023 l 503 1023 l 503 896 l 519 896 q 713 809 646 896 q 780 568 780 721 l 780 437 q 713 200 780 287 q 519 114 646 114 m 525 744 l 496 744 l 496 266 l 525 266 q 588 310 569 266 q 607 437 607 354 l 607 568 q 588 698 607 652 q 525 744 569 744 m 314 266 l 338 266 l 338 744 l 314 744 q 248 698 268 744 q 229 568 229 652 l 229 437 q 248 310 229 354 q 314 266 268 266 z "},"Χ":{"ha":836,"x_min":39,"x_max":797,"o":"m 588 0 l 414 330 l 242 0 l 39 0 l 321 519 l 68 1010 l 283 1010 l 438 713 l 593 1010 l 797 1010 l 530 520 l 794 0 l 588 0 z "},"Ψ":{"ha":836,"x_min":67,"x_max":769,"o":"m 504 0 l 332 0 l 332 239 q 133 346 199 259 q 67 574 67 433 l 67 1010 l 239 1010 l 239 583 q 261 455 239 500 q 333 399 283 410 l 333 1010 l 503 1010 l 503 399 q 576 455 553 410 q 598 583 598 500 l 598 1010 l 769 1010 l 769 574 q 703 346 769 433 q 504 239 636 259 l 504 0 z "},"Ω":{"ha":836,"x_min":66,"x_max":770,"o":"m 379 0 l 66 0 l 66 136 l 198 136 l 198 251 q 98 356 130 287 q 66 516 66 426 l 66 665 q 156 931 66 840 q 418 1023 246 1023 q 680 931 590 1023 q 770 665 770 840 l 770 516 q 738 356 770 426 q 638 251 706 287 l 638 136 l 770 136 l 770 0 l 457 0 l 457 290 q 538 365 514 307 q 562 516 562 423 l 562 672 q 527 818 562 775 q 418 860 492 860 q 309 818 343 860 q 274 672 274 775 l 274 516 q 298 365 274 423 q 379 290 322 307 l 379 0 z "},"Ώ":{"ha":836,"x_min":-115,"x_max":770,"o":"m 379 0 l 66 0 l 66 136 l 198 136 l 198 251 q 98 356 130 287 q 66 516 66 426 l 66 665 q 156 931 66 840 q 418 1023 246 1023 q 680 931 590 1023 q 770 665 770 840 l 770 516 q 738 356 770 426 q 638 251 706 287 l 638 136 l 770 136 l 770 0 l 457 0 l 457 290 q 538 365 514 307 q 562 516 562 423 l 562 672 q 527 818 562 775 q 418 860 492 860 q 309 818 343 860 q 274 672 274 775 l 274 516 q 298 365 274 423 q 379 290 322 307 l 379 0 m -115 884 l -56 1136 l 199 1136 l 15 884 l -115 884 z "},"Ω":{"ha":836,"x_min":66,"x_max":770,"o":"m 379 0 l 66 0 l 66 136 l 198 136 l 198 251 q 98 356 130 287 q 66 516 66 426 l 66 665 q 156 931 66 840 q 418 1023 246 1023 q 680 931 590 1023 q 770 665 770 840 l 770 516 q 738 356 770 426 q 638 251 706 287 l 638 136 l 770 136 l 770 0 l 457 0 l 457 290 q 538 365 514 307 q 562 516 562 423 l 562 672 q 527 818 562 775 q 418 860 492 860 q 309 818 343 860 q 274 672 274 775 l 274 516 q 298 365 274 423 q 379 290 322 307 l 379 0 z "},"Ђ":{"ha":836,"x_min":29,"x_max":773,"o":"m 165 0 l 165 850 l 29 850 l 29 1010 l 572 1010 l 572 850 l 374 850 l 374 657 l 470 657 q 695 585 617 657 q 773 367 773 513 l 773 288 q 695 71 773 143 q 470 0 617 0 l 470 158 q 547 187 520 158 q 574 290 574 216 l 574 365 q 547 469 574 439 q 470 499 520 499 l 374 499 l 374 0 l 165 0 z "},"Є":{"ha":836,"x_min":78,"x_max":784,"o":"m 784 340 q 693 72 777 157 q 433 -13 609 -13 q 168 73 258 -13 q 78 328 78 159 l 78 677 q 168 935 78 847 q 434 1023 258 1023 q 691 939 607 1023 q 784 665 775 856 l 577 653 q 539 819 568 775 q 431 862 510 862 q 318 819 351 862 q 285 662 285 775 l 285 621 l 477 621 l 477 461 l 285 461 l 285 343 q 318 190 285 232 q 431 148 351 148 q 539 189 510 148 q 577 352 568 231 l 784 340 z "},"Ѕ":{"ha":836,"x_min":63,"x_max":768,"o":"m 409 -11 q 219 18 306 -11 q 63 101 133 47 l 119 256 q 254 178 183 207 q 414 149 324 149 q 523 182 487 149 q 559 273 559 216 q 519 363 559 335 q 372 424 479 391 q 151 538 215 471 q 87 723 87 605 q 172 937 87 855 q 414 1020 256 1020 q 585 989 501 1020 q 726 912 669 958 l 679 764 q 552 834 615 809 q 422 859 489 859 q 327 831 360 859 q 294 746 294 803 q 333 662 294 692 q 486 596 371 631 q 705 480 643 548 q 768 292 768 413 q 670 69 768 149 q 409 -11 572 -11 z "},"І":{"ha":836,"x_min":82,"x_max":754,"o":"m 82 0 l 82 160 l 314 160 l 314 850 l 82 850 l 82 1010 l 754 1010 l 754 850 l 521 850 l 521 160 l 754 160 l 754 0 l 82 0 z "},"Ї":{"ha":836,"x_min":82,"x_max":754,"o":"m 82 0 l 82 160 l 314 160 l 314 850 l 82 850 l 82 1010 l 754 1010 l 754 850 l 521 850 l 521 160 l 754 160 l 754 0 l 82 0 m 271 1134 q 195 1153 225 1134 q 165 1220 165 1172 l 165 1235 q 195 1306 165 1285 q 271 1326 225 1326 q 347 1306 318 1326 q 376 1235 376 1285 l 376 1220 q 347 1153 376 1172 q 271 1134 317 1134 m 564 1134 q 489 1153 518 1134 q 460 1220 460 1172 l 460 1235 q 489 1306 460 1285 q 564 1326 518 1326 q 641 1306 612 1326 q 670 1235 670 1285 l 670 1220 q 641 1153 670 1172 q 564 1134 611 1134 z "},"Ј":{"ha":836,"x_min":54,"x_max":735,"o":"m 403 -13 q 144 72 225 -13 q 54 347 63 157 l 263 361 q 299 190 271 232 q 399 148 327 148 q 496 188 465 148 q 528 326 528 229 l 528 850 l 268 850 l 268 1010 l 735 1010 l 735 323 q 653 76 735 164 q 403 -13 572 -13 z "},"Љ":{"ha":836,"x_min":-6,"x_max":775,"o":"m 249 184 q 202 40 247 88 q 76 -8 157 -8 q 35 -4 56 -8 q -6 5 14 0 l 16 159 q 33 154 25 157 q 51 153 42 152 q 78 169 67 153 q 91 232 90 186 l 100 1010 l 510 1010 l 510 686 l 572 686 q 723 624 670 686 q 775 446 775 563 l 775 251 q 722 64 775 128 q 571 0 669 0 l 350 0 l 350 865 l 255 865 l 249 184 m 510 145 l 544 145 q 597 173 580 145 q 615 269 615 201 l 615 424 q 597 517 615 490 q 544 544 580 544 l 510 544 l 510 145 z "},"Њ":{"ha":836,"x_min":62,"x_max":775,"o":"m 510 145 l 545 145 q 598 173 581 145 q 615 269 615 201 l 615 424 q 598 517 615 490 q 545 544 581 544 l 510 544 l 510 145 m 222 477 l 222 0 l 62 0 l 62 1010 l 222 1010 l 222 638 l 350 638 l 350 1010 l 510 1010 l 510 686 l 573 686 q 724 626 673 686 q 775 446 775 566 l 775 251 q 724 63 775 126 q 572 0 673 0 l 350 0 l 350 477 l 222 477 z "},"Ћ":{"ha":836,"x_min":27,"x_max":773,"o":"m 371 0 l 164 0 l 164 850 l 27 850 l 27 1010 l 578 1010 l 578 850 l 371 850 l 371 626 l 475 626 q 699 559 625 626 q 773 356 773 492 l 773 0 l 564 0 l 564 348 q 542 441 564 413 q 470 468 519 468 l 371 468 l 371 0 z "},"Џ":{"ha":836,"x_min":82,"x_max":754,"o":"m 314 -189 l 314 0 l 82 0 l 82 1010 l 290 1010 l 290 160 l 545 160 l 545 1010 l 754 1010 l 754 0 l 521 0 l 521 -189 l 314 -189 z "},"А":{"ha":836,"x_min":32,"x_max":806,"o":"m 516 412 l 422 842 l 319 412 l 516 412 m 607 0 l 552 251 l 282 251 l 221 0 l 32 0 l 293 1010 l 544 1010 l 806 0 l 607 0 z "},"Б":{"ha":836,"x_min":82,"x_max":770,"o":"m 82 0 l 82 1010 l 711 1010 l 711 850 l 290 850 l 290 622 l 457 622 q 689 552 607 622 q 770 354 770 482 l 770 284 q 689 74 770 148 q 458 0 609 0 l 82 0 m 290 160 l 434 160 q 532 192 503 160 q 562 292 562 223 l 562 335 q 532 434 562 403 q 434 465 503 465 l 290 465 l 290 160 z "},"В":{"ha":836,"x_min":82,"x_max":759,"o":"m 82 0 l 82 1010 l 431 1010 q 657 951 582 1010 q 731 773 731 893 l 731 725 q 698 607 731 649 q 592 553 664 566 l 592 516 q 715 456 672 508 q 759 326 759 405 l 759 263 q 677 66 759 131 q 429 0 596 0 l 82 0 m 290 596 l 412 596 q 499 621 473 596 q 525 702 525 645 l 525 754 q 499 833 525 809 q 412 857 473 857 l 290 857 l 290 596 m 290 153 l 415 153 q 520 181 487 153 q 552 277 552 210 l 552 332 q 520 426 552 396 q 415 455 487 455 l 290 455 l 290 153 z "},"Г":{"ha":836,"x_min":129,"x_max":777,"o":"m 129 0 l 129 1010 l 777 1010 l 777 850 l 336 850 l 336 0 l 129 0 z "},"Ѓ":{"ha":836,"x_min":129,"x_max":777,"o":"m 129 0 l 129 1010 l 777 1010 l 777 850 l 336 850 l 336 0 l 129 0 m 311 1136 l 441 1389 l 706 1389 l 452 1136 l 311 1136 z "},"Д":{"ha":836,"x_min":15,"x_max":801,"o":"m 293 187 l 293 160 l 514 160 l 514 850 l 345 850 l 341 384 q 329 265 340 314 q 293 187 318 215 m 205 0 l 205 -189 l 15 -189 l 15 160 l 96 160 q 138 235 124 183 q 154 389 153 287 l 160 1010 l 703 1010 l 703 160 l 801 160 l 801 -189 l 611 -189 l 611 0 l 205 0 z "},"Е":{"ha":836,"x_min":82,"x_max":759,"o":"m 82 0 l 82 1010 l 759 1010 l 759 850 l 290 850 l 290 621 l 701 621 l 701 461 l 290 461 l 290 160 l 759 160 l 759 0 l 82 0 z "},"Ѐ":{"ha":836,"x_min":82,"x_max":759,"o":"m 82 0 l 82 1010 l 759 1010 l 759 850 l 290 850 l 290 621 l 701 621 l 701 461 l 290 461 l 290 160 l 759 160 l 759 0 l 82 0 m 389 1136 l 136 1389 l 402 1389 l 532 1136 l 389 1136 z "},"Ё":{"ha":836,"x_min":82,"x_max":759,"o":"m 82 0 l 82 1010 l 759 1010 l 759 850 l 290 850 l 290 621 l 701 621 l 701 461 l 290 461 l 290 160 l 759 160 l 759 0 l 82 0 m 288 1134 q 211 1153 241 1134 q 182 1220 182 1172 l 182 1235 q 211 1306 182 1285 q 288 1326 241 1326 q 364 1306 335 1326 q 393 1235 393 1285 l 393 1220 q 363 1153 393 1172 q 288 1134 333 1134 m 581 1134 q 505 1153 534 1134 q 476 1220 476 1172 l 476 1235 q 505 1306 476 1285 q 581 1326 534 1326 q 658 1306 629 1326 q 687 1235 687 1285 l 687 1220 q 657 1153 687 1172 q 581 1134 628 1134 z "},"Ж":{"ha":836,"x_min":28,"x_max":808,"o":"m 294 455 l 193 0 l 30 0 l 172 566 l 28 1010 l 193 1010 l 301 595 l 343 595 l 343 1010 l 494 1010 l 494 595 l 537 595 l 644 1010 l 808 1010 l 670 559 l 806 0 l 643 0 l 543 455 l 494 455 l 494 0 l 343 0 l 343 455 l 294 455 z "},"З":{"ha":836,"x_min":66,"x_max":759,"o":"m 418 -13 q 160 60 245 -13 q 66 285 74 133 l 274 298 q 316 177 283 208 q 418 145 350 145 q 520 176 490 145 q 551 274 551 207 l 551 319 q 517 422 551 391 q 413 452 484 452 l 293 452 l 293 610 l 413 610 q 501 631 475 610 q 528 708 528 652 l 528 758 q 501 841 528 817 q 414 865 475 865 q 330 836 356 865 q 297 735 304 807 l 90 747 q 177 956 98 889 q 409 1023 255 1023 q 654 963 573 1023 q 735 774 735 903 l 735 739 q 688 610 735 659 q 562 553 641 562 l 562 516 q 705 450 650 508 q 759 302 759 393 l 759 270 q 678 57 759 128 q 418 -13 597 -13 z "},"И":{"ha":836,"x_min":82,"x_max":754,"o":"m 571 0 l 571 726 l 331 0 l 82 0 l 82 1010 l 265 1010 l 265 246 l 521 1010 l 754 1010 l 754 0 l 571 0 z "},"Ѝ":{"ha":836,"x_min":82,"x_max":754,"o":"m 571 0 l 571 726 l 331 0 l 82 0 l 82 1010 l 265 1010 l 265 246 l 521 1010 l 754 1010 l 754 0 l 571 0 m 380 1136 l 128 1389 l 393 1389 l 523 1136 l 380 1136 z "},"Й":{"ha":836,"x_min":82,"x_max":754,"o":"m 571 0 l 571 726 l 331 0 l 82 0 l 82 1010 l 265 1010 l 265 246 l 521 1010 l 754 1010 l 754 0 l 571 0 m 420 1128 q 211 1192 295 1128 q 129 1403 128 1256 l 309 1415 q 332 1295 308 1331 q 420 1259 356 1259 q 509 1295 485 1259 q 532 1415 533 1331 l 712 1403 q 629 1192 713 1256 q 420 1128 545 1128 z "},"К":{"ha":836,"x_min":82,"x_max":801,"o":"m 290 444 l 290 0 l 82 0 l 82 1010 l 290 1010 l 290 605 l 335 605 l 583 1010 l 801 1010 l 490 544 l 797 0 l 582 0 l 338 444 l 290 444 z "},"Ќ":{"ha":836,"x_min":82,"x_max":801,"o":"m 290 444 l 290 0 l 82 0 l 82 1010 l 290 1010 l 290 605 l 335 605 l 583 1010 l 801 1010 l 490 544 l 797 0 l 582 0 l 338 444 l 290 444 m 348 1136 l 479 1389 l 744 1389 l 490 1136 l 348 1136 z "},"Л":{"ha":836,"x_min":13,"x_max":754,"o":"m 545 0 l 545 850 l 374 850 l 370 298 q 308 62 369 140 q 131 -15 247 -15 q 73 -10 102 -15 q 13 4 43 -5 l 35 164 q 66 155 52 159 q 93 152 81 152 q 146 186 128 152 q 165 314 164 221 l 170 1010 l 754 1010 l 754 0 l 545 0 z "},"М":{"ha":836,"x_min":66,"x_max":770,"o":"m 350 292 l 230 701 l 249 0 l 66 0 l 66 1010 l 269 1010 l 422 503 l 573 1010 l 770 1010 l 770 0 l 587 0 l 607 693 l 489 292 l 350 292 z "},"Н":{"ha":836,"x_min":82,"x_max":754,"o":"m 82 0 l 82 1010 l 290 1010 l 290 638 l 545 638 l 545 1010 l 754 1010 l 754 0 l 545 0 l 545 477 l 290 477 l 290 0 l 82 0 z "},"О":{"ha":836,"x_min":78,"x_max":759,"o":"m 418 -13 q 165 76 253 -13 q 78 324 78 164 l 78 681 q 166 932 78 842 q 419 1023 254 1023 q 672 932 585 1023 q 759 681 759 842 l 759 324 q 671 76 759 164 q 418 -13 583 -13 m 418 148 q 520 190 490 148 q 551 340 551 232 l 551 665 q 520 818 551 774 q 418 862 490 862 q 316 818 346 862 q 285 665 285 774 l 285 340 q 316 190 285 232 q 418 148 346 148 z "},"П":{"ha":836,"x_min":82,"x_max":754,"o":"m 82 0 l 82 1010 l 754 1010 l 754 0 l 545 0 l 545 850 l 290 850 l 290 0 l 82 0 z "},"Р":{"ha":836,"x_min":82,"x_max":761,"o":"m 82 0 l 82 1010 l 437 1010 q 676 943 591 1010 q 761 734 761 875 l 761 592 q 677 389 761 453 q 437 324 593 324 l 290 324 l 290 0 l 82 0 m 290 481 l 426 481 q 523 508 491 481 q 554 609 554 535 l 554 720 q 523 822 554 794 q 426 850 491 850 l 290 850 l 290 481 z "},"С":{"ha":836,"x_min":78,"x_max":784,"o":"m 433 -13 q 167 73 256 -13 q 78 328 78 158 l 78 677 q 167 936 78 850 q 434 1023 256 1023 q 693 938 611 1023 q 784 665 775 854 l 577 653 q 540 820 569 778 q 432 862 510 862 q 319 817 352 862 q 285 662 285 771 l 285 343 q 319 193 285 237 q 432 148 352 148 q 539 189 510 148 q 577 352 568 230 l 784 340 q 693 71 777 154 q 433 -13 610 -13 z "},"Т":{"ha":836,"x_min":51,"x_max":787,"o":"m 314 0 l 314 850 l 51 850 l 51 1010 l 787 1010 l 787 850 l 521 850 l 521 0 l 314 0 z "},"У":{"ha":836,"x_min":45,"x_max":789,"o":"m 217 -6 q 142 -1 181 -6 q 64 11 104 4 l 83 172 q 152 159 120 163 q 207 155 183 155 q 297 180 263 155 q 350 266 331 205 l 356 292 l 280 292 l 45 1010 l 249 1010 l 415 485 l 587 1010 l 789 1010 l 525 218 q 408 47 485 101 q 217 -6 332 -6 z "},"Ў":{"ha":836,"x_min":45,"x_max":789,"o":"m 217 -6 q 142 -1 181 -6 q 64 11 104 4 l 83 172 q 152 159 120 163 q 207 155 183 155 q 297 180 263 155 q 350 266 331 205 l 356 292 l 280 292 l 45 1010 l 249 1010 l 415 485 l 587 1010 l 789 1010 l 525 218 q 408 47 485 101 q 217 -6 332 -6 m 418 1128 q 209 1192 293 1128 q 126 1403 125 1256 l 307 1415 q 330 1295 306 1331 q 418 1259 354 1259 q 506 1295 482 1259 q 529 1415 530 1331 l 710 1403 q 627 1192 711 1256 q 418 1128 543 1128 z "},"Ф":{"ha":836,"x_min":56,"x_max":780,"o":"m 519 114 l 503 114 l 503 -13 l 332 -13 l 332 114 l 317 114 q 122 200 189 114 q 56 437 56 287 l 56 568 q 122 809 56 721 q 318 896 189 896 l 332 896 l 332 1023 l 503 1023 l 503 896 l 519 896 q 713 809 646 896 q 780 568 780 721 l 780 437 q 713 200 780 287 q 519 114 646 114 m 525 744 l 496 744 l 496 266 l 525 266 q 588 310 569 266 q 607 437 607 354 l 607 568 q 588 698 607 652 q 525 744 569 744 m 314 266 l 338 266 l 338 744 l 314 744 q 248 698 268 744 q 229 568 229 652 l 229 437 q 248 310 229 354 q 314 266 268 266 z "},"Х":{"ha":836,"x_min":39,"x_max":797,"o":"m 588 0 l 414 330 l 242 0 l 39 0 l 321 519 l 68 1010 l 283 1010 l 438 713 l 593 1010 l 797 1010 l 530 520 l 794 0 l 588 0 z "},"Ц":{"ha":836,"x_min":82,"x_max":812,"o":"m 604 -189 l 604 0 l 82 0 l 82 1010 l 290 1010 l 290 160 l 506 160 l 506 1010 l 713 1010 l 713 160 l 812 160 l 812 -189 l 604 -189 z "},"Ч":{"ha":836,"x_min":78,"x_max":749,"o":"m 749 1010 l 749 0 l 542 0 l 542 331 l 413 331 q 159 403 240 331 q 78 630 78 476 l 78 1010 l 285 1010 l 285 633 q 317 522 285 557 q 413 487 348 487 l 542 487 l 542 1010 l 749 1010 z "},"Ш":{"ha":836,"x_min":58,"x_max":778,"o":"m 58 0 l 58 1010 l 230 1010 l 230 150 l 335 150 l 335 1010 l 501 1010 l 501 150 l 606 150 l 606 1010 l 778 1010 l 778 0 l 58 0 z "},"Щ":{"ha":836,"x_min":58,"x_max":827,"o":"m 827 -229 l 650 -229 l 650 0 l 58 0 l 58 1010 l 230 1010 l 230 150 l 335 150 l 335 1010 l 501 1010 l 501 150 l 606 150 l 606 1010 l 778 1010 l 778 150 l 827 150 l 827 -229 z "},"Ъ":{"ha":836,"x_min":15,"x_max":775,"o":"m 482 0 l 181 0 l 181 850 l 15 850 l 15 1010 l 383 1010 l 383 686 l 484 686 q 703 621 630 686 q 775 423 775 556 l 775 274 q 703 68 775 135 q 482 0 630 0 m 383 160 l 458 160 q 545 190 519 160 q 572 292 572 220 l 572 400 q 545 499 572 470 q 458 529 519 529 l 383 529 l 383 160 z "},"Ы":{"ha":836,"x_min":66,"x_max":770,"o":"m 66 0 l 66 1010 l 237 1010 l 237 686 l 273 686 q 458 622 398 686 q 519 431 519 559 l 519 266 q 458 66 519 131 q 271 0 396 0 l 66 0 m 598 0 l 598 1010 l 770 1010 l 770 0 l 598 0 m 237 150 l 270 150 q 333 181 313 150 q 352 284 352 211 l 352 409 q 333 509 352 481 q 270 538 313 538 l 237 538 l 237 150 z "},"Ь":{"ha":836,"x_min":82,"x_max":788,"o":"m 82 0 l 82 1010 l 290 1010 l 290 686 l 465 686 q 707 621 626 686 q 788 424 788 556 l 788 273 q 706 69 788 138 q 463 0 625 0 l 82 0 m 290 160 l 434 160 q 545 189 509 160 q 581 289 581 218 l 581 403 q 545 500 581 471 q 434 529 509 529 l 290 529 l 290 160 z "},"Э":{"ha":836,"x_min":66,"x_max":773,"o":"m 418 -13 q 160 73 245 -13 q 66 340 74 158 l 274 352 q 311 190 282 232 q 420 148 341 148 q 537 194 508 148 q 566 343 566 241 l 566 461 l 360 461 l 360 621 l 566 621 l 566 662 q 533 818 566 773 q 419 862 500 862 q 311 818 340 862 q 274 653 282 774 l 66 665 q 160 936 74 850 q 417 1023 245 1023 q 684 936 596 1023 q 773 677 773 848 l 773 328 q 684 73 773 159 q 418 -13 596 -13 z "},"Ю":{"ha":836,"x_min":58,"x_max":778,"o":"m 547 -13 q 376 64 433 -13 q 318 277 318 141 l 318 463 l 229 463 l 229 0 l 58 0 l 58 1010 l 229 1010 l 229 620 l 318 620 l 318 727 q 376 944 318 866 q 548 1023 434 1023 q 720 944 662 1023 q 778 727 778 866 l 778 277 q 720 64 778 141 q 547 -13 662 -13 m 547 145 q 594 176 582 145 q 606 277 606 207 l 606 727 q 594 831 606 799 q 547 864 582 864 q 499 831 511 864 q 486 727 486 799 l 486 277 q 499 176 486 207 q 547 145 511 145 z "},"Я":{"ha":836,"x_min":51,"x_max":754,"o":"m 407 528 l 545 528 l 545 850 l 407 850 q 307 822 336 850 q 278 727 278 794 l 278 654 q 307 556 278 585 q 407 528 336 528 m 545 369 l 456 369 l 271 0 l 51 0 l 249 389 q 122 480 164 415 q 80 650 80 545 l 80 736 q 155 941 80 871 q 378 1010 230 1010 l 754 1010 l 754 0 l 545 0 l 545 369 z "},"Ґ":{"ha":836,"x_min":129,"x_max":777,"o":"m 129 0 l 129 1010 l 569 1010 l 569 1199 l 777 1199 l 777 850 l 336 850 l 336 0 l 129 0 z "},"a":{"ha":836,"x_min":66,"x_max":798,"o":"m 342 122 q 420 137 384 122 q 487 181 456 152 l 487 308 l 336 308 q 276 288 297 308 q 255 212 255 268 q 275 146 255 169 q 342 122 295 122 m 290 -13 q 129 45 192 -13 q 66 206 66 104 q 133 366 66 311 q 311 422 201 422 l 487 422 l 487 520 q 460 598 487 574 q 376 622 432 622 q 292 598 319 622 q 253 508 265 574 l 83 538 q 177 717 107 663 q 383 770 246 770 q 608 711 529 770 q 687 528 687 653 l 687 223 q 715 156 687 169 q 798 152 744 143 l 798 3 q 646 8 706 -18 q 566 114 586 33 l 534 114 q 434 25 499 62 q 290 -13 370 -13 z "},"à":{"ha":836,"x_min":66,"x_max":798,"o":"m 342 122 q 420 137 384 122 q 487 181 456 152 l 487 308 l 336 308 q 276 288 297 308 q 255 212 255 268 q 275 146 255 169 q 342 122 295 122 m 290 -13 q 129 45 192 -13 q 66 206 66 104 q 133 366 66 311 q 311 422 201 422 l 487 422 l 487 520 q 460 598 487 574 q 376 622 432 622 q 292 598 319 622 q 253 508 265 574 l 83 538 q 177 717 107 663 q 383 770 246 770 q 608 711 529 770 q 687 528 687 653 l 687 223 q 715 156 687 169 q 798 152 744 143 l 798 3 q 646 8 706 -18 q 566 114 586 33 l 534 114 q 434 25 499 62 q 290 -13 370 -13 m 386 884 l 134 1136 l 399 1136 l 529 884 l 386 884 z "},"á":{"ha":836,"x_min":66,"x_max":798,"o":"m 342 122 q 420 137 384 122 q 487 181 456 152 l 487 308 l 336 308 q 276 288 297 308 q 255 212 255 268 q 275 146 255 169 q 342 122 295 122 m 290 -13 q 129 45 192 -13 q 66 206 66 104 q 133 366 66 311 q 311 422 201 422 l 487 422 l 487 520 q 460 598 487 574 q 376 622 432 622 q 292 598 319 622 q 253 508 265 574 l 83 538 q 177 717 107 663 q 383 770 246 770 q 608 711 529 770 q 687 528 687 653 l 687 223 q 715 156 687 169 q 798 152 744 143 l 798 3 q 646 8 706 -18 q 566 114 586 33 l 534 114 q 434 25 499 62 q 290 -13 370 -13 m 254 884 l 384 1136 l 649 1136 l 395 884 l 254 884 z "},"â":{"ha":836,"x_min":66,"x_max":798,"o":"m 342 122 q 420 137 384 122 q 487 181 456 152 l 487 308 l 336 308 q 276 288 297 308 q 255 212 255 268 q 275 146 255 169 q 342 122 295 122 m 290 -13 q 129 45 192 -13 q 66 206 66 104 q 133 366 66 311 q 311 422 201 422 l 487 422 l 487 520 q 460 598 487 574 q 376 622 432 622 q 292 598 319 622 q 253 508 265 574 l 83 538 q 177 717 107 663 q 383 770 246 770 q 608 711 529 770 q 687 528 687 653 l 687 223 q 715 156 687 169 q 798 152 744 143 l 798 3 q 646 8 706 -18 q 566 114 586 33 l 534 114 q 434 25 499 62 q 290 -13 370 -13 m 182 875 l 115 970 l 327 1165 l 484 1165 l 698 970 l 631 875 l 405 1013 l 182 875 z "},"ã":{"ha":836,"x_min":66,"x_max":798,"o":"m 342 122 q 420 137 384 122 q 487 181 456 152 l 487 308 l 336 308 q 276 288 297 308 q 255 212 255 268 q 275 146 255 169 q 342 122 295 122 m 290 -13 q 129 45 192 -13 q 66 206 66 104 q 133 366 66 311 q 311 422 201 422 l 487 422 l 487 520 q 460 598 487 574 q 376 622 432 622 q 292 598 319 622 q 253 508 265 574 l 83 538 q 177 717 107 663 q 383 770 246 770 q 608 711 529 770 q 687 528 687 653 l 687 223 q 715 156 687 169 q 798 152 744 143 l 798 3 q 646 8 706 -18 q 566 114 586 33 l 534 114 q 434 25 499 62 q 290 -13 370 -13 m 510 896 q 430 915 460 896 q 380 961 400 934 q 344 1005 360 985 q 307 1025 328 1025 q 271 1005 287 1025 q 258 927 256 985 l 258 909 l 122 909 l 122 928 q 170 1097 122 1030 q 301 1164 217 1164 q 381 1145 351 1164 q 432 1100 410 1126 q 467 1056 452 1076 q 503 1035 482 1035 q 538 1056 523 1035 q 552 1134 553 1076 l 552 1152 l 687 1152 l 687 1133 q 640 963 687 1030 q 510 896 593 896 z "},"ä":{"ha":836,"x_min":66,"x_max":798,"o":"m 342 122 q 420 137 384 122 q 487 181 456 152 l 487 308 l 336 308 q 276 288 297 308 q 255 212 255 268 q 275 146 255 169 q 342 122 295 122 m 290 -13 q 129 45 192 -13 q 66 206 66 104 q 133 366 66 311 q 311 422 201 422 l 487 422 l 487 520 q 460 598 487 574 q 376 622 432 622 q 292 598 319 622 q 253 508 265 574 l 83 538 q 177 717 107 663 q 383 770 246 770 q 608 711 529 770 q 687 528 687 653 l 687 223 q 715 156 687 169 q 798 152 744 143 l 798 3 q 646 8 706 -18 q 566 114 586 33 l 534 114 q 434 25 499 62 q 290 -13 370 -13 m 258 881 q 181 900 211 881 q 152 967 152 919 l 152 982 q 181 1053 152 1033 q 258 1073 211 1073 q 333 1053 304 1073 q 362 982 362 1033 l 362 967 q 333 900 362 919 q 258 881 303 881 m 551 881 q 475 900 504 881 q 446 967 446 919 l 446 982 q 475 1053 446 1033 q 551 1073 504 1073 q 628 1053 598 1073 q 657 982 657 1033 l 657 967 q 627 900 657 919 q 551 881 597 881 z "},"å":{"ha":836,"x_min":66,"x_max":798,"o":"m 342 122 q 420 137 384 122 q 487 181 456 152 l 487 308 l 336 308 q 276 288 297 308 q 255 212 255 268 q 275 146 255 169 q 342 122 295 122 m 290 -13 q 129 45 192 -13 q 66 206 66 104 q 133 366 66 311 q 311 422 201 422 l 487 422 l 487 520 q 460 598 487 574 q 376 622 432 622 q 292 598 319 622 q 253 508 265 574 l 83 538 q 177 717 107 663 q 383 770 246 770 q 608 711 529 770 q 687 528 687 653 l 687 223 q 715 156 687 169 q 798 152 744 143 l 798 3 q 646 8 706 -18 q 566 114 586 33 l 534 114 q 434 25 499 62 q 290 -13 370 -13 m 395 857 q 228 904 292 857 q 164 1048 164 951 l 164 1088 q 228 1235 164 1187 q 395 1283 292 1283 q 563 1235 500 1283 q 626 1088 626 1187 l 626 1048 q 563 904 626 951 q 395 857 499 857 m 395 962 q 459 982 437 962 q 481 1048 481 1001 l 481 1088 q 459 1157 481 1135 q 395 1178 437 1178 q 331 1157 352 1178 q 309 1088 309 1135 l 309 1048 q 331 982 309 1001 q 395 962 352 962 z "},"ā":{"ha":836,"x_min":66,"x_max":798,"o":"m 342 122 q 420 137 384 122 q 487 181 456 152 l 487 308 l 336 308 q 276 288 297 308 q 255 212 255 268 q 275 146 255 169 q 342 122 295 122 m 290 -13 q 129 45 192 -13 q 66 206 66 104 q 133 366 66 311 q 311 422 201 422 l 487 422 l 487 520 q 460 598 487 574 q 376 622 432 622 q 292 598 319 622 q 253 508 265 574 l 83 538 q 177 717 107 663 q 383 770 246 770 q 608 711 529 770 q 687 528 687 653 l 687 223 q 715 156 687 169 q 798 152 744 143 l 798 3 q 646 8 706 -18 q 566 114 586 33 l 534 114 q 434 25 499 62 q 290 -13 370 -13 m 140 931 l 140 1090 l 650 1090 l 650 931 l 140 931 z "},"ă":{"ha":836,"x_min":66,"x_max":798,"o":"m 342 122 q 420 137 384 122 q 487 181 456 152 l 487 308 l 336 308 q 276 288 297 308 q 255 212 255 268 q 275 146 255 169 q 342 122 295 122 m 290 -13 q 129 45 192 -13 q 66 206 66 104 q 133 366 66 311 q 311 422 201 422 l 487 422 l 487 520 q 460 598 487 574 q 376 622 432 622 q 292 598 319 622 q 253 508 265 574 l 83 538 q 177 717 107 663 q 383 770 246 770 q 608 711 529 770 q 687 528 687 653 l 687 223 q 715 156 687 169 q 798 152 744 143 l 798 3 q 646 8 706 -18 q 566 114 586 33 l 534 114 q 434 25 499 62 q 290 -13 370 -13 m 395 875 q 172 945 249 875 q 95 1163 96 1015 l 265 1163 q 296 1040 266 1074 q 395 1006 326 1006 q 494 1040 465 1006 q 525 1163 524 1074 l 696 1163 q 618 945 694 1015 q 395 875 542 875 z "},"ą":{"ha":836,"x_min":66,"x_max":850,"o":"m 342 122 q 420 137 384 122 q 487 181 456 152 l 487 308 l 336 308 q 276 288 297 308 q 255 212 255 268 q 275 146 255 169 q 342 122 295 122 m 290 -13 q 129 45 192 -13 q 66 206 66 104 q 133 366 66 311 q 311 422 201 422 l 487 422 l 487 520 q 460 598 487 574 q 376 622 432 622 q 292 598 319 622 q 253 508 265 574 l 83 538 q 177 717 107 663 q 383 770 246 770 q 608 711 529 770 q 687 528 687 653 l 687 223 q 715 156 687 169 q 798 152 744 143 l 798 3 q 646 8 706 -18 q 566 114 586 33 l 534 114 q 434 25 499 62 q 290 -13 370 -13 m 707 -279 q 559 -238 614 -279 q 505 -121 505 -197 q 560 6 505 -49 q 683 82 615 61 l 715 29 q 666 -21 677 5 q 655 -74 655 -48 q 676 -125 655 -109 q 741 -141 697 -141 q 790 -138 761 -141 q 850 -129 818 -134 l 850 -263 q 775 -275 812 -271 q 707 -279 739 -279 z "},"ǻ":{"ha":836,"x_min":66,"x_max":798,"o":"m 342 122 q 420 137 384 122 q 487 181 456 152 l 487 308 l 336 308 q 276 288 297 308 q 255 212 255 268 q 275 146 255 169 q 342 122 295 122 m 290 -13 q 129 45 192 -13 q 66 206 66 104 q 133 366 66 311 q 311 422 201 422 l 487 422 l 487 520 q 460 598 487 574 q 376 622 432 622 q 292 598 319 622 q 253 508 265 574 l 83 538 q 177 717 107 663 q 383 770 246 770 q 608 711 529 770 q 687 528 687 653 l 687 223 q 715 156 687 169 q 798 152 744 143 l 798 3 q 646 8 706 -18 q 566 114 586 33 l 534 114 q 434 25 499 62 q 290 -13 370 -13 m 395 857 q 228 904 292 857 q 164 1048 164 951 l 164 1088 q 228 1235 164 1187 q 395 1283 292 1283 q 563 1235 500 1283 q 626 1088 626 1187 l 626 1048 q 563 904 626 951 q 395 857 499 857 m 395 962 q 459 982 437 962 q 481 1048 481 1001 l 481 1088 q 459 1157 481 1135 q 395 1178 437 1178 q 331 1157 352 1178 q 309 1088 309 1135 l 309 1048 q 331 982 309 1001 q 395 962 352 962 m 304 1263 l 434 1515 l 699 1515 l 446 1263 l 304 1263 z "},"b":{"ha":836,"x_min":92,"x_max":744,"o":"m 410 -10 q 242 14 327 -10 q 92 78 158 38 l 92 1010 l 299 1010 l 299 631 l 335 631 q 413 735 360 699 q 539 770 466 770 q 690 700 636 770 q 744 513 744 630 l 744 268 q 658 61 744 133 q 410 -10 572 -10 m 419 141 q 508 171 480 141 q 537 270 537 201 l 537 481 q 512 577 537 547 q 443 607 487 607 q 370 588 405 607 q 299 527 335 568 l 299 174 q 355 150 327 158 q 419 141 384 141 z "},"c":{"ha":836,"x_min":92,"x_max":747,"o":"m 429 -13 q 179 61 265 -13 q 92 274 92 135 l 92 485 q 179 696 92 622 q 428 770 266 770 q 656 700 580 770 q 747 495 732 630 l 547 480 q 513 586 542 556 q 423 617 485 617 q 328 585 357 617 q 299 475 299 553 l 299 282 q 328 172 299 205 q 426 140 357 140 q 515 165 487 140 q 547 253 543 189 l 747 237 q 667 51 740 114 q 429 -13 595 -13 z "},"ç":{"ha":836,"x_min":92,"x_max":747,"o":"m 429 -13 q 179 61 265 -13 q 92 274 92 135 l 92 485 q 179 696 92 622 q 428 770 266 770 q 656 700 580 770 q 747 495 732 630 l 547 480 q 513 586 542 556 q 423 617 485 617 q 328 585 357 617 q 299 475 299 553 l 299 282 q 328 172 299 205 q 426 140 357 140 q 515 165 487 140 q 547 253 543 189 l 747 237 q 667 51 740 114 q 429 -13 595 -13 m 424 0 l 448 53 q 599 4 542 42 q 657 -112 657 -33 q 587 -240 657 -199 q 423 -280 518 -280 q 251 -243 317 -280 q 181 -124 186 -206 l 356 -111 q 372 -145 359 -135 q 414 -154 385 -154 q 462 -140 446 -154 q 479 -82 479 -125 q 467 -27 479 -45 q 424 0 456 -9 z "},"ć":{"ha":836,"x_min":92,"x_max":747,"o":"m 429 -13 q 179 61 265 -13 q 92 274 92 135 l 92 485 q 179 696 92 622 q 428 770 266 770 q 656 700 580 770 q 747 495 732 630 l 547 480 q 513 586 542 556 q 423 617 485 617 q 328 585 357 617 q 299 475 299 553 l 299 282 q 328 172 299 205 q 426 140 357 140 q 515 165 487 140 q 547 253 543 189 l 747 237 q 667 51 740 114 q 429 -13 595 -13 m 312 884 l 442 1136 l 707 1136 l 453 884 l 312 884 z "},"ĉ":{"ha":836,"x_min":92,"x_max":747,"o":"m 429 -13 q 179 61 265 -13 q 92 274 92 135 l 92 485 q 179 696 92 622 q 428 770 266 770 q 656 700 580 770 q 747 495 732 630 l 547 480 q 513 586 542 556 q 423 617 485 617 q 328 585 357 617 q 299 475 299 553 l 299 282 q 328 172 299 205 q 426 140 357 140 q 515 165 487 140 q 547 253 543 189 l 747 237 q 667 51 740 114 q 429 -13 595 -13 m 202 875 l 135 970 l 347 1165 l 504 1165 l 718 970 l 652 875 l 426 1013 l 202 875 z "},"ċ":{"ha":836,"x_min":92,"x_max":747,"o":"m 429 -13 q 179 61 265 -13 q 92 274 92 135 l 92 485 q 179 696 92 622 q 428 770 266 770 q 656 700 580 770 q 747 495 732 630 l 547 480 q 513 586 542 556 q 423 617 485 617 q 328 585 357 617 q 299 475 299 553 l 299 282 q 328 172 299 205 q 426 140 357 140 q 515 165 487 140 q 547 253 543 189 l 747 237 q 667 51 740 114 q 429 -13 595 -13 m 426 881 q 326 900 364 881 q 288 967 288 919 l 288 982 q 326 1053 288 1033 q 426 1073 364 1073 q 525 1053 487 1073 q 563 982 563 1033 l 563 967 q 525 900 563 919 q 426 881 486 881 z "},"č":{"ha":836,"x_min":92,"x_max":747,"o":"m 429 -13 q 179 61 265 -13 q 92 274 92 135 l 92 485 q 179 696 92 622 q 428 770 266 770 q 656 700 580 770 q 747 495 732 630 l 547 480 q 513 586 542 556 q 423 617 485 617 q 328 585 357 617 q 299 475 299 553 l 299 282 q 328 172 299 205 q 426 140 357 140 q 515 165 487 140 q 547 253 543 189 l 747 237 q 667 51 740 114 q 429 -13 595 -13 m 348 889 l 134 1085 l 201 1179 l 427 1043 l 650 1179 l 717 1085 l 505 889 l 348 889 z "},"d":{"ha":836,"x_min":92,"x_max":744,"o":"m 393 150 q 467 170 432 150 q 537 231 501 191 l 537 578 q 478 607 509 597 q 415 616 447 616 q 328 585 356 616 q 299 487 299 554 l 299 275 q 324 181 299 212 q 393 150 348 150 m 503 126 q 425 25 477 62 q 299 -13 372 -13 q 145 61 197 -13 q 92 245 92 134 l 92 490 q 169 694 92 620 q 381 768 246 768 q 463 759 423 768 q 537 736 503 751 l 537 1010 l 744 1010 l 744 0 l 537 0 l 537 126 l 503 126 z "},"ď":{"ha":836,"x_min":92,"x_max":1148,"o":"m 393 150 q 467 170 432 150 q 537 231 501 191 l 537 578 q 478 607 509 597 q 415 616 447 616 q 328 585 356 616 q 299 487 299 554 l 299 275 q 324 181 299 212 q 393 150 348 150 m 503 126 q 425 25 477 62 q 299 -13 372 -13 q 145 61 197 -13 q 92 245 92 134 l 92 490 q 169 694 92 620 q 381 768 246 768 q 463 759 423 768 q 537 736 503 751 l 537 1010 l 744 1010 l 744 0 l 537 0 l 537 126 l 503 126 m 819 890 l 885 1263 l 1148 1263 l 939 890 l 819 890 z "},"e":{"ha":836,"x_min":92,"x_max":755,"o":"m 755 174 q 643 30 716 72 q 424 -13 571 -13 q 185 59 278 -13 q 92 269 92 130 l 92 490 q 181 697 92 624 q 419 770 269 770 q 657 696 571 770 q 744 482 744 621 l 744 338 l 299 338 l 299 258 q 330 160 299 193 q 431 126 360 126 q 524 146 489 126 q 581 221 559 167 l 755 174 m 299 505 l 299 452 l 537 452 l 537 496 q 510 604 537 572 q 418 636 484 636 q 326 606 352 636 q 299 505 299 576 z "},"è":{"ha":836,"x_min":92,"x_max":755,"o":"m 755 174 q 643 30 716 72 q 424 -13 571 -13 q 185 59 278 -13 q 92 269 92 130 l 92 490 q 181 697 92 624 q 419 770 269 770 q 657 696 571 770 q 744 482 744 621 l 744 338 l 299 338 l 299 258 q 330 160 299 193 q 431 126 360 126 q 524 146 489 126 q 581 221 559 167 l 755 174 m 299 505 l 299 452 l 537 452 l 537 496 q 510 604 537 572 q 418 636 484 636 q 326 606 352 636 q 299 505 299 576 m 405 884 l 153 1136 l 418 1136 l 548 884 l 405 884 z "},"é":{"ha":836,"x_min":92,"x_max":755,"o":"m 755 174 q 643 30 716 72 q 424 -13 571 -13 q 185 59 278 -13 q 92 269 92 130 l 92 490 q 181 697 92 624 q 419 770 269 770 q 657 696 571 770 q 744 482 744 621 l 744 338 l 299 338 l 299 258 q 330 160 299 193 q 431 126 360 126 q 524 146 489 126 q 581 221 559 167 l 755 174 m 299 505 l 299 452 l 537 452 l 537 496 q 510 604 537 572 q 418 636 484 636 q 326 606 352 636 q 299 505 299 576 m 290 884 l 420 1136 l 686 1136 l 432 884 l 290 884 z "},"ê":{"ha":836,"x_min":92,"x_max":755,"o":"m 755 174 q 643 30 716 72 q 424 -13 571 -13 q 185 59 278 -13 q 92 269 92 130 l 92 490 q 181 697 92 624 q 419 770 269 770 q 657 696 571 770 q 744 482 744 621 l 744 338 l 299 338 l 299 258 q 330 160 299 193 q 431 126 360 126 q 524 146 489 126 q 581 221 559 167 l 755 174 m 299 505 l 299 452 l 537 452 l 537 496 q 510 604 537 572 q 418 636 484 636 q 326 606 352 636 q 299 505 299 576 m 198 875 l 131 970 l 343 1165 l 500 1165 l 715 970 l 648 875 l 422 1013 l 198 875 z "},"ë":{"ha":836,"x_min":92,"x_max":755,"o":"m 755 174 q 643 30 716 72 q 424 -13 571 -13 q 185 59 278 -13 q 92 269 92 130 l 92 490 q 181 697 92 624 q 419 770 269 770 q 657 696 571 770 q 744 482 744 621 l 744 338 l 299 338 l 299 258 q 330 160 299 193 q 431 126 360 126 q 524 146 489 126 q 581 221 559 167 l 755 174 m 299 505 l 299 452 l 537 452 l 537 496 q 510 604 537 572 q 418 636 484 636 q 326 606 352 636 q 299 505 299 576 m 277 881 q 200 900 230 881 q 170 967 170 919 l 170 982 q 200 1053 170 1033 q 277 1073 230 1073 q 352 1053 323 1073 q 381 982 381 1033 l 381 967 q 352 900 381 919 q 277 881 322 881 m 569 881 q 494 900 523 881 q 465 967 465 919 l 465 982 q 494 1053 465 1033 q 569 1073 523 1073 q 646 1053 617 1073 q 676 982 676 1033 l 676 967 q 646 900 676 919 q 569 881 616 881 z "},"ē":{"ha":836,"x_min":92,"x_max":755,"o":"m 755 174 q 643 30 716 72 q 424 -13 571 -13 q 185 59 278 -13 q 92 269 92 130 l 92 490 q 181 697 92 624 q 419 770 269 770 q 657 696 571 770 q 744 482 744 621 l 744 338 l 299 338 l 299 258 q 330 160 299 193 q 431 126 360 126 q 524 146 489 126 q 581 221 559 167 l 755 174 m 299 505 l 299 452 l 537 452 l 537 496 q 510 604 537 572 q 418 636 484 636 q 326 606 352 636 q 299 505 299 576 m 168 931 l 168 1090 l 678 1090 l 678 931 l 168 931 z "},"ĕ":{"ha":836,"x_min":92,"x_max":755,"o":"m 755 174 q 643 30 716 72 q 424 -13 571 -13 q 185 59 278 -13 q 92 269 92 130 l 92 490 q 181 697 92 624 q 419 770 269 770 q 657 696 571 770 q 744 482 744 621 l 744 338 l 299 338 l 299 258 q 330 160 299 193 q 431 126 360 126 q 524 146 489 126 q 581 221 559 167 l 755 174 m 299 505 l 299 452 l 537 452 l 537 496 q 510 604 537 572 q 418 636 484 636 q 326 606 352 636 q 299 505 299 576 m 414 875 q 191 945 268 875 q 114 1163 115 1015 l 284 1163 q 315 1040 285 1074 q 414 1006 345 1006 q 513 1040 484 1006 q 544 1163 543 1074 l 715 1163 q 637 945 713 1015 q 414 875 561 875 z "},"ė":{"ha":836,"x_min":92,"x_max":755,"o":"m 755 174 q 643 30 716 72 q 424 -13 571 -13 q 185 59 278 -13 q 92 269 92 130 l 92 490 q 181 697 92 624 q 419 770 269 770 q 657 696 571 770 q 744 482 744 621 l 744 338 l 299 338 l 299 258 q 330 160 299 193 q 431 126 360 126 q 524 146 489 126 q 581 221 559 167 l 755 174 m 299 505 l 299 452 l 537 452 l 537 496 q 510 604 537 572 q 418 636 484 636 q 326 606 352 636 q 299 505 299 576 m 423 881 q 323 900 361 881 q 285 967 285 919 l 285 982 q 323 1053 285 1033 q 423 1073 361 1073 q 523 1053 485 1073 q 561 982 561 1033 l 561 967 q 522 900 561 919 q 423 881 484 881 z "},"ę":{"ha":836,"x_min":92,"x_max":755,"o":"m 583 -279 q 436 -238 490 -279 q 381 -121 381 -197 q 436 6 381 -49 q 559 82 491 61 l 591 29 q 542 -21 553 5 q 532 -74 532 -48 q 552 -125 532 -109 q 617 -141 573 -141 q 666 -138 638 -141 q 726 -129 694 -134 l 726 -263 q 652 -275 688 -271 q 583 -279 615 -279 m 755 174 q 643 30 716 72 q 424 -13 571 -13 q 185 59 278 -13 q 92 269 92 130 l 92 490 q 181 697 92 624 q 419 770 269 770 q 657 696 571 770 q 744 482 744 621 l 744 338 l 299 338 l 299 258 q 330 160 299 193 q 431 126 360 126 q 524 146 489 126 q 581 221 559 167 l 755 174 m 299 505 l 299 452 l 537 452 l 537 496 q 510 604 537 572 q 418 636 484 636 q 326 606 352 636 q 299 505 299 576 z "},"ě":{"ha":836,"x_min":92,"x_max":755,"o":"m 755 174 q 643 30 716 72 q 424 -13 571 -13 q 185 59 278 -13 q 92 269 92 130 l 92 490 q 181 697 92 624 q 419 770 269 770 q 657 696 571 770 q 744 482 744 621 l 744 338 l 299 338 l 299 258 q 330 160 299 193 q 431 126 360 126 q 524 146 489 126 q 581 221 559 167 l 755 174 m 299 505 l 299 452 l 537 452 l 537 496 q 510 604 537 572 q 418 636 484 636 q 326 606 352 636 q 299 505 299 576 m 346 889 l 131 1085 l 198 1179 l 424 1043 l 648 1179 l 715 1085 l 503 889 l 346 889 z "},"f":{"ha":836,"x_min":87,"x_max":758,"o":"m 274 0 l 274 605 l 87 605 l 87 758 l 274 758 l 274 801 q 355 980 274 914 q 568 1045 436 1045 q 667 1037 619 1045 q 758 1014 715 1029 l 734 875 q 662 894 697 888 q 592 900 626 900 q 511 873 540 900 q 482 788 482 846 l 482 758 l 744 758 l 744 605 l 482 605 l 482 0 l 274 0 z "},"h":{"ha":836,"x_min":92,"x_max":744,"o":"m 92 0 l 92 1010 l 299 1010 l 299 631 l 335 631 q 415 733 360 696 q 542 770 470 770 q 689 708 635 770 q 744 539 744 645 l 744 0 l 537 0 l 537 490 q 515 578 537 548 q 451 607 492 607 q 372 580 412 607 q 299 503 333 552 l 299 0 l 92 0 z "},"ĥ":{"ha":836,"x_min":-100,"x_max":744,"o":"m 92 0 l 92 1010 l 299 1010 l 299 631 l 335 631 q 415 733 360 696 q 542 770 470 770 q 689 708 635 770 q 744 539 744 645 l 744 0 l 537 0 l 537 490 q 515 578 537 548 q 451 607 492 607 q 372 580 412 607 q 299 503 333 552 l 299 0 l 92 0 m -33 1128 l -100 1222 l 112 1418 l 269 1418 l 484 1222 l 417 1128 l 191 1265 l -33 1128 z "},"i":{"ha":836,"x_min":101,"x_max":735,"o":"m 101 0 l 101 153 l 314 153 l 314 605 l 101 605 l 101 758 l 521 758 l 521 153 l 735 153 l 735 0 l 101 0 m 428 881 q 328 900 366 881 q 290 967 290 919 l 290 982 q 328 1053 290 1033 q 428 1073 366 1073 q 528 1053 490 1073 q 566 982 566 1033 l 566 967 q 527 900 566 919 q 428 881 489 881 z "},"ì":{"ha":836,"x_min":101,"x_max":735,"o":"m 101 0 l 101 153 l 314 153 l 314 605 l 101 605 l 101 758 l 521 758 l 521 153 l 735 153 l 735 0 l 101 0 m 419 884 l 167 1136 l 432 1136 l 562 884 l 419 884 z "},"í":{"ha":836,"x_min":101,"x_max":735,"o":"m 101 0 l 101 153 l 314 153 l 314 605 l 101 605 l 101 758 l 521 758 l 521 153 l 735 153 l 735 0 l 101 0 m 268 884 l 398 1136 l 663 1136 l 409 884 l 268 884 z "},"î":{"ha":836,"x_min":101,"x_max":735,"o":"m 101 0 l 101 153 l 314 153 l 314 605 l 101 605 l 101 758 l 521 758 l 521 153 l 735 153 l 735 0 l 101 0 m 193 875 l 126 970 l 338 1165 l 495 1165 l 710 970 l 643 875 l 417 1013 l 193 875 z "},"ï":{"ha":836,"x_min":101,"x_max":735,"o":"m 101 0 l 101 153 l 314 153 l 314 605 l 101 605 l 101 758 l 521 758 l 521 153 l 735 153 l 735 0 l 101 0 m 271 881 q 195 900 225 881 q 165 967 165 919 l 165 982 q 195 1053 165 1033 q 271 1073 225 1073 q 347 1053 318 1073 q 376 982 376 1033 l 376 967 q 347 900 376 919 q 271 881 317 881 m 564 881 q 489 900 518 881 q 460 967 460 919 l 460 982 q 489 1053 460 1033 q 564 1073 518 1073 q 641 1053 612 1073 q 670 982 670 1033 l 670 967 q 641 900 670 919 q 564 881 611 881 z "},"ĩ":{"ha":836,"x_min":101,"x_max":735,"o":"m 101 0 l 101 153 l 314 153 l 314 605 l 101 605 l 101 758 l 521 758 l 521 153 l 735 153 l 735 0 l 101 0 m 524 896 q 444 915 473 896 q 394 961 414 934 q 358 1005 374 985 q 321 1025 342 1025 q 285 1005 301 1025 q 271 927 270 985 l 271 909 l 136 909 l 136 928 q 184 1097 136 1030 q 314 1164 231 1164 q 395 1145 365 1164 q 446 1100 424 1126 q 481 1056 466 1076 q 516 1035 496 1035 q 552 1056 537 1035 q 566 1134 567 1076 l 566 1152 l 701 1152 l 701 1133 q 654 963 701 1030 q 524 896 607 896 z "},"ī":{"ha":836,"x_min":101,"x_max":735,"o":"m 101 0 l 101 153 l 314 153 l 314 605 l 101 605 l 101 758 l 521 758 l 521 153 l 735 153 l 735 0 l 101 0 m 163 931 l 163 1090 l 673 1090 l 673 931 l 163 931 z "},"ĭ":{"ha":836,"x_min":101,"x_max":735,"o":"m 101 0 l 101 153 l 314 153 l 314 605 l 101 605 l 101 758 l 521 758 l 521 153 l 735 153 l 735 0 l 101 0 m 418 875 q 195 945 271 875 q 117 1163 119 1015 l 288 1163 q 319 1040 289 1074 q 418 1006 348 1006 q 517 1040 487 1006 q 548 1163 547 1074 l 718 1163 q 641 945 717 1015 q 418 875 564 875 z "},"į":{"ha":836,"x_min":101,"x_max":735,"o":"m 428 881 q 328 900 366 881 q 290 967 290 919 l 290 982 q 328 1053 290 1033 q 428 1073 366 1073 q 528 1053 490 1073 q 566 982 566 1033 l 566 967 q 527 900 566 919 q 428 881 489 881 m 101 0 l 101 153 l 314 153 l 314 605 l 101 605 l 101 758 l 521 758 l 521 153 l 735 153 l 735 0 l 101 0 m 500 -279 q 352 -238 407 -279 q 298 -121 298 -197 q 353 6 298 -49 q 476 82 408 61 l 508 29 q 459 -21 470 5 q 448 -74 448 -48 q 469 -125 448 -109 q 534 -141 490 -141 q 583 -138 554 -141 q 643 -129 611 -134 l 643 -263 q 568 -275 605 -271 q 500 -279 532 -279 z "},"j":{"ha":836,"x_min":83,"x_max":653,"o":"m 293 -264 q 188 -258 241 -264 q 83 -236 134 -253 l 107 -91 q 193 -112 153 -107 q 269 -116 234 -116 q 380 -86 340 -116 q 420 15 420 -56 l 420 605 l 125 605 l 125 758 l 629 758 l 629 -5 q 537 -196 629 -128 q 293 -264 444 -264 m 515 881 q 415 900 453 881 q 378 967 378 919 l 378 982 q 415 1053 378 1033 q 515 1073 453 1073 q 615 1053 577 1073 q 653 982 653 1033 l 653 967 q 614 900 653 919 q 515 881 576 881 z "},"ĵ":{"ha":836,"x_min":83,"x_max":775,"o":"m 293 -264 q 188 -258 241 -264 q 83 -236 134 -253 l 107 -91 q 193 -112 153 -107 q 269 -116 234 -116 q 380 -86 340 -116 q 420 15 420 -56 l 420 605 l 125 605 l 125 758 l 629 758 l 629 -5 q 537 -196 629 -128 q 293 -264 444 -264 m 259 875 l 192 970 l 404 1165 l 561 1165 l 775 970 l 708 875 l 482 1013 l 259 875 z "},"k":{"ha":836,"x_min":112,"x_max":771,"o":"m 321 323 l 321 0 l 112 0 l 112 1010 l 321 1010 l 321 465 l 366 465 l 553 758 l 771 758 l 538 413 l 768 0 l 545 0 l 366 323 l 321 323 z "},"ķ":{"ha":836,"x_min":112,"x_max":771,"o":"m 321 323 l 321 0 l 112 0 l 112 1010 l 321 1010 l 321 465 l 366 465 l 553 758 l 771 758 l 538 413 l 768 0 l 545 0 l 366 323 l 321 323 m 254 -379 l 338 -126 l 604 -126 l 396 -379 l 254 -379 z "},"l":{"ha":836,"x_min":110,"x_max":754,"o":"m 110 0 l 110 153 l 332 153 l 332 857 l 110 857 l 110 1010 l 540 1010 l 540 153 l 754 153 l 754 0 l 110 0 z "},"ĺ":{"ha":836,"x_min":110,"x_max":754,"o":"m 110 0 l 110 153 l 332 153 l 332 857 l 110 857 l 110 1010 l 540 1010 l 540 153 l 754 153 l 754 0 l 110 0 m 266 1136 l 396 1389 l 662 1389 l 408 1136 l 266 1136 z "},"ļ":{"ha":836,"x_min":110,"x_max":754,"o":"m 110 0 l 110 153 l 332 153 l 332 857 l 110 857 l 110 1010 l 540 1010 l 540 153 l 754 153 l 754 0 l 110 0 m 215 -379 l 299 -126 l 564 -126 l 357 -379 l 215 -379 z "},"ľ":{"ha":836,"x_min":110,"x_max":962,"o":"m 110 0 l 110 153 l 332 153 l 332 857 l 110 857 l 110 1010 l 540 1010 l 540 153 l 754 153 l 754 0 l 110 0 m 634 890 l 699 1263 l 962 1263 l 754 890 l 634 890 z "},"m":{"ha":836,"x_min":57,"x_max":779,"o":"m 227 545 l 227 0 l 57 0 l 57 758 l 226 758 l 226 658 l 259 658 q 311 739 279 712 q 384 766 343 766 q 453 740 424 766 q 494 658 482 713 l 525 658 q 580 739 545 712 q 663 766 615 766 q 748 720 717 766 q 779 588 779 673 l 779 0 l 609 0 l 609 557 q 600 612 609 593 q 576 631 592 631 q 537 608 557 631 q 500 545 516 585 l 500 0 l 336 0 l 336 557 q 327 612 336 593 q 302 631 318 631 q 265 609 284 631 q 227 545 245 587 z "},"n":{"ha":836,"x_min":92,"x_max":744,"o":"m 92 0 l 92 758 l 299 758 l 299 631 l 335 631 q 418 733 361 696 q 548 770 475 770 q 692 709 640 770 q 744 538 744 648 l 744 0 l 537 0 l 537 501 q 515 580 537 553 q 451 607 492 607 q 371 584 412 607 q 299 514 331 561 l 299 0 l 92 0 z "},"ñ":{"ha":836,"x_min":92,"x_max":744,"o":"m 92 0 l 92 758 l 299 758 l 299 631 l 335 631 q 418 733 361 696 q 548 770 475 770 q 692 709 640 770 q 744 538 744 648 l 744 0 l 537 0 l 537 501 q 515 580 537 553 q 451 607 492 607 q 371 584 412 607 q 299 514 331 561 l 299 0 l 92 0 m 548 896 q 468 915 497 896 q 418 961 438 934 q 382 1005 398 985 q 345 1025 366 1025 q 309 1005 324 1025 q 295 927 294 985 l 295 909 l 160 909 l 160 928 q 208 1097 160 1030 q 338 1164 255 1164 q 419 1145 389 1164 q 470 1100 448 1126 q 505 1056 490 1076 q 540 1035 520 1035 q 576 1056 561 1035 q 590 1134 591 1076 l 590 1152 l 725 1152 l 725 1133 q 678 963 725 1030 q 548 896 631 896 z "},"ń":{"ha":836,"x_min":92,"x_max":744,"o":"m 92 0 l 92 758 l 299 758 l 299 631 l 335 631 q 418 733 361 696 q 548 770 475 770 q 692 709 640 770 q 744 538 744 648 l 744 0 l 537 0 l 537 501 q 515 580 537 553 q 451 607 492 607 q 371 584 412 607 q 299 514 331 561 l 299 0 l 92 0 m 292 884 l 422 1136 l 687 1136 l 433 884 l 292 884 z "},"ņ":{"ha":836,"x_min":92,"x_max":744,"o":"m 235 -379 l 319 -126 l 585 -126 l 378 -379 l 235 -379 m 92 0 l 92 758 l 299 758 l 299 631 l 335 631 q 418 733 361 696 q 548 770 475 770 q 692 709 640 770 q 744 538 744 648 l 744 0 l 537 0 l 537 501 q 515 580 537 553 q 451 607 492 607 q 371 584 412 607 q 299 514 331 561 l 299 0 l 92 0 z "},"ň":{"ha":836,"x_min":92,"x_max":744,"o":"m 92 0 l 92 758 l 299 758 l 299 631 l 335 631 q 418 733 361 696 q 548 770 475 770 q 692 709 640 770 q 744 538 744 648 l 744 0 l 537 0 l 537 501 q 515 580 537 553 q 451 607 492 607 q 371 584 412 607 q 299 514 331 561 l 299 0 l 92 0 m 365 889 l 150 1085 l 217 1179 l 443 1043 l 667 1179 l 734 1085 l 521 889 l 365 889 z "},"o":{"ha":836,"x_min":92,"x_max":745,"o":"m 418 -13 q 178 61 264 -13 q 92 265 92 134 l 92 487 q 179 695 92 620 q 419 770 265 770 q 659 694 573 770 q 745 484 745 619 l 745 261 q 658 60 745 133 q 418 -13 572 -13 m 418 140 q 508 172 480 140 q 537 274 537 203 l 537 480 q 508 585 537 552 q 418 617 480 617 q 328 585 356 617 q 299 481 299 553 l 299 278 q 328 173 299 206 q 418 140 356 140 z "},"ò":{"ha":836,"x_min":92,"x_max":745,"o":"m 418 -13 q 178 61 264 -13 q 92 265 92 134 l 92 487 q 179 695 92 620 q 419 770 265 770 q 659 694 573 770 q 745 484 745 619 l 745 261 q 658 60 745 133 q 418 -13 572 -13 m 418 140 q 508 172 480 140 q 537 274 537 203 l 537 480 q 508 585 537 552 q 418 617 480 617 q 328 585 356 617 q 299 481 299 553 l 299 278 q 328 173 299 206 q 418 140 356 140 m 400 884 l 148 1136 l 413 1136 l 543 884 l 400 884 z "},"ó":{"ha":836,"x_min":92,"x_max":745,"o":"m 418 -13 q 178 61 264 -13 q 92 265 92 134 l 92 487 q 179 695 92 620 q 419 770 265 770 q 659 694 573 770 q 745 484 745 619 l 745 261 q 658 60 745 133 q 418 -13 572 -13 m 418 140 q 508 172 480 140 q 537 274 537 203 l 537 480 q 508 585 537 552 q 418 617 480 617 q 328 585 356 617 q 299 481 299 553 l 299 278 q 328 173 299 206 q 418 140 356 140 m 268 884 l 398 1136 l 663 1136 l 409 884 l 268 884 z "},"ô":{"ha":836,"x_min":92,"x_max":745,"o":"m 418 -13 q 178 61 264 -13 q 92 265 92 134 l 92 487 q 179 695 92 620 q 419 770 265 770 q 659 694 573 770 q 745 484 745 619 l 745 261 q 658 60 745 133 q 418 -13 572 -13 m 418 140 q 508 172 480 140 q 537 274 537 203 l 537 480 q 508 585 537 552 q 418 617 480 617 q 328 585 356 617 q 299 481 299 553 l 299 278 q 328 173 299 206 q 418 140 356 140 m 193 875 l 126 970 l 338 1165 l 495 1165 l 710 970 l 643 875 l 417 1013 l 193 875 z "},"õ":{"ha":836,"x_min":92,"x_max":745,"o":"m 418 -13 q 178 61 264 -13 q 92 265 92 134 l 92 487 q 179 695 92 620 q 419 770 265 770 q 659 694 573 770 q 745 484 745 619 l 745 261 q 658 60 745 133 q 418 -13 572 -13 m 418 140 q 508 172 480 140 q 537 274 537 203 l 537 480 q 508 585 537 552 q 418 617 480 617 q 328 585 356 617 q 299 481 299 553 l 299 278 q 328 173 299 206 q 418 140 356 140 m 524 896 q 444 915 473 896 q 394 961 414 934 q 358 1005 374 985 q 321 1025 342 1025 q 285 1005 301 1025 q 271 927 270 985 l 271 909 l 136 909 l 136 928 q 184 1097 136 1030 q 314 1164 231 1164 q 395 1145 365 1164 q 446 1100 424 1126 q 481 1056 466 1076 q 516 1035 496 1035 q 552 1056 537 1035 q 566 1134 567 1076 l 566 1152 l 701 1152 l 701 1133 q 654 963 701 1030 q 524 896 607 896 z "},"ö":{"ha":836,"x_min":92,"x_max":745,"o":"m 418 -13 q 178 61 264 -13 q 92 265 92 134 l 92 487 q 179 695 92 620 q 419 770 265 770 q 659 694 573 770 q 745 484 745 619 l 745 261 q 658 60 745 133 q 418 -13 572 -13 m 418 140 q 508 172 480 140 q 537 274 537 203 l 537 480 q 508 585 537 552 q 418 617 480 617 q 328 585 356 617 q 299 481 299 553 l 299 278 q 328 173 299 206 q 418 140 356 140 m 271 881 q 195 900 225 881 q 165 967 165 919 l 165 982 q 195 1053 165 1033 q 271 1073 225 1073 q 347 1053 318 1073 q 376 982 376 1033 l 376 967 q 347 900 376 919 q 271 881 317 881 m 564 881 q 489 900 518 881 q 460 967 460 919 l 460 982 q 489 1053 460 1033 q 564 1073 518 1073 q 641 1053 612 1073 q 670 982 670 1033 l 670 967 q 641 900 670 919 q 564 881 611 881 z "},"ō":{"ha":836,"x_min":92,"x_max":745,"o":"m 418 -13 q 178 61 264 -13 q 92 265 92 134 l 92 487 q 179 695 92 620 q 419 770 265 770 q 659 694 573 770 q 745 484 745 619 l 745 261 q 658 60 745 133 q 418 -13 572 -13 m 418 140 q 508 172 480 140 q 537 274 537 203 l 537 480 q 508 585 537 552 q 418 617 480 617 q 328 585 356 617 q 299 481 299 553 l 299 278 q 328 173 299 206 q 418 140 356 140 m 163 931 l 163 1090 l 673 1090 l 673 931 l 163 931 z "},"ŏ":{"ha":836,"x_min":92,"x_max":745,"o":"m 418 -13 q 178 61 264 -13 q 92 265 92 134 l 92 487 q 179 695 92 620 q 419 770 265 770 q 659 694 573 770 q 745 484 745 619 l 745 261 q 658 60 745 133 q 418 -13 572 -13 m 418 140 q 508 172 480 140 q 537 274 537 203 l 537 480 q 508 585 537 552 q 418 617 480 617 q 328 585 356 617 q 299 481 299 553 l 299 278 q 328 173 299 206 q 418 140 356 140 m 427 875 q 204 945 280 875 q 126 1163 128 1015 l 297 1163 q 328 1040 298 1074 q 427 1006 357 1006 q 526 1040 496 1006 q 557 1163 556 1074 l 727 1163 q 650 945 726 1015 q 427 875 573 875 z "},"ő":{"ha":836,"x_min":92,"x_max":745,"o":"m 418 -13 q 178 61 264 -13 q 92 265 92 134 l 92 487 q 179 695 92 620 q 419 770 265 770 q 659 694 573 770 q 745 484 745 619 l 745 261 q 658 60 745 133 q 418 -13 572 -13 m 418 140 q 508 172 480 140 q 537 274 537 203 l 537 480 q 508 585 537 552 q 418 617 480 617 q 328 585 356 617 q 299 481 299 553 l 299 278 q 328 173 299 206 q 418 140 356 140 m 473 884 l 529 1136 l 737 1136 l 583 884 l 473 884 m 207 884 l 263 1136 l 471 1136 l 317 884 l 207 884 z "},"p":{"ha":836,"x_min":92,"x_max":744,"o":"m 420 141 q 508 172 480 141 q 537 270 537 202 l 537 489 q 512 579 537 551 q 443 607 487 607 q 370 588 405 607 q 299 527 335 568 l 299 179 q 358 151 331 160 q 420 141 385 141 m 455 -10 q 374 -2 414 -10 q 299 21 333 6 l 299 -253 l 92 -253 l 92 758 l 299 758 l 299 631 l 335 631 q 413 733 359 696 q 539 770 467 770 q 689 703 635 770 q 744 519 744 636 l 744 268 q 666 65 744 140 q 455 -10 588 -10 z "},"q":{"ha":836,"x_min":92,"x_max":744,"o":"m 537 -253 l 537 126 l 503 126 q 427 27 479 67 q 297 -13 375 -13 q 145 59 198 -13 q 92 245 92 131 l 92 490 q 181 696 92 624 q 427 768 269 768 q 596 749 506 768 q 744 694 686 730 l 744 -253 l 537 -253 m 393 150 q 466 170 431 150 q 537 231 501 189 l 537 583 q 484 607 513 597 q 417 616 455 616 q 330 586 361 616 q 299 487 299 556 l 299 280 q 324 182 299 213 q 393 150 348 150 z "},"r":{"ha":836,"x_min":122,"x_max":755,"o":"m 122 0 l 122 758 l 330 758 l 330 625 l 365 625 q 444 735 389 701 q 573 770 499 770 q 708 715 660 770 q 755 557 755 659 l 755 426 l 567 426 l 567 495 q 547 580 567 552 q 477 607 527 607 q 396 584 434 607 q 330 509 357 561 l 330 0 l 122 0 z "},"ŕ":{"ha":836,"x_min":122,"x_max":755,"o":"m 122 0 l 122 758 l 330 758 l 330 625 l 365 625 q 444 735 389 701 q 573 770 499 770 q 708 715 660 770 q 755 557 755 659 l 755 426 l 567 426 l 567 495 q 547 580 567 552 q 477 607 527 607 q 396 584 434 607 q 330 509 357 561 l 330 0 l 122 0 m 301 884 l 431 1136 l 696 1136 l 442 884 l 301 884 z "},"ŗ":{"ha":836,"x_min":56,"x_max":755,"o":"m 122 0 l 122 758 l 330 758 l 330 625 l 365 625 q 444 735 389 701 q 573 770 499 770 q 708 715 660 770 q 755 557 755 659 l 755 426 l 567 426 l 567 495 q 547 580 567 552 q 477 607 527 607 q 396 584 434 607 q 330 509 357 561 l 330 0 l 122 0 m 56 -379 l 140 -126 l 405 -126 l 198 -379 l 56 -379 z "},"ř":{"ha":836,"x_min":122,"x_max":755,"o":"m 122 0 l 122 758 l 330 758 l 330 625 l 365 625 q 444 735 389 701 q 573 770 499 770 q 708 715 660 770 q 755 557 755 659 l 755 426 l 567 426 l 567 495 q 547 580 567 552 q 477 607 527 607 q 396 584 434 607 q 330 509 357 561 l 330 0 l 122 0 m 374 889 l 159 1085 l 226 1179 l 452 1043 l 676 1179 l 742 1085 l 530 889 l 374 889 z "},"s":{"ha":836,"x_min":85,"x_max":745,"o":"m 415 -10 q 237 16 324 -10 q 85 86 149 42 l 136 217 q 277 152 201 176 q 418 129 354 129 q 507 147 476 129 q 538 208 538 165 q 507 271 538 253 q 393 307 476 290 q 178 381 249 332 q 107 533 107 429 q 190 706 107 643 q 407 770 273 770 q 564 746 486 770 q 703 683 641 722 l 660 557 q 537 612 598 592 q 418 633 475 633 q 341 614 369 633 q 313 556 313 596 q 350 494 313 513 q 486 456 388 476 q 683 379 621 432 q 745 230 745 327 q 657 54 745 119 q 415 -10 568 -10 z "},"ś":{"ha":836,"x_min":85,"x_max":745,"o":"m 415 -10 q 237 16 324 -10 q 85 86 149 42 l 136 217 q 277 152 201 176 q 418 129 354 129 q 507 147 476 129 q 538 208 538 165 q 507 271 538 253 q 393 307 476 290 q 178 381 249 332 q 107 533 107 429 q 190 706 107 643 q 407 770 273 770 q 564 746 486 770 q 703 683 641 722 l 660 557 q 537 612 598 592 q 418 633 475 633 q 341 614 369 633 q 313 556 313 596 q 350 494 313 513 q 486 456 388 476 q 683 379 621 432 q 745 230 745 327 q 657 54 745 119 q 415 -10 568 -10 m 275 884 l 405 1136 l 670 1136 l 417 884 l 275 884 z "},"ŝ":{"ha":836,"x_min":85,"x_max":745,"o":"m 415 -10 q 237 16 324 -10 q 85 86 149 42 l 136 217 q 277 152 201 176 q 418 129 354 129 q 507 147 476 129 q 538 208 538 165 q 507 271 538 253 q 393 307 476 290 q 178 381 249 332 q 107 533 107 429 q 190 706 107 643 q 407 770 273 770 q 564 746 486 770 q 703 683 641 722 l 660 557 q 537 612 598 592 q 418 633 475 633 q 341 614 369 633 q 313 556 313 596 q 350 494 313 513 q 486 456 388 476 q 683 379 621 432 q 745 230 745 327 q 657 54 745 119 q 415 -10 568 -10 m 191 875 l 124 970 l 336 1165 l 492 1165 l 707 970 l 640 875 l 414 1013 l 191 875 z "},"ş":{"ha":836,"x_min":85,"x_max":745,"o":"m 415 -10 q 237 16 324 -10 q 85 86 149 42 l 136 217 q 277 152 201 176 q 418 129 354 129 q 507 147 476 129 q 538 208 538 165 q 507 271 538 253 q 393 307 476 290 q 178 381 249 332 q 107 533 107 429 q 190 706 107 643 q 407 770 273 770 q 564 746 486 770 q 703 683 641 722 l 660 557 q 537 612 598 592 q 418 633 475 633 q 341 614 369 633 q 313 556 313 596 q 350 494 313 513 q 486 456 388 476 q 683 379 621 432 q 745 230 745 327 q 657 54 745 119 q 415 -10 568 -10 m 371 0 l 395 53 q 546 4 489 42 q 604 -112 604 -33 q 534 -240 604 -199 q 370 -280 465 -280 q 198 -243 264 -280 q 128 -124 133 -206 l 303 -111 q 319 -145 306 -135 q 361 -154 332 -154 q 409 -140 393 -154 q 426 -82 426 -125 q 414 -27 426 -45 q 371 0 403 -9 z "},"š":{"ha":836,"x_min":85,"x_max":745,"o":"m 415 -10 q 237 16 324 -10 q 85 86 149 42 l 136 217 q 277 152 201 176 q 418 129 354 129 q 507 147 476 129 q 538 208 538 165 q 507 271 538 253 q 393 307 476 290 q 178 381 249 332 q 107 533 107 429 q 190 706 107 643 q 407 770 273 770 q 564 746 486 770 q 703 683 641 722 l 660 557 q 537 612 598 592 q 418 633 475 633 q 341 614 369 633 q 313 556 313 596 q 350 494 313 513 q 486 456 388 476 q 683 379 621 432 q 745 230 745 327 q 657 54 745 119 q 415 -10 568 -10 m 338 889 l 124 1085 l 191 1179 l 417 1043 l 640 1179 l 707 1085 l 495 889 l 338 889 z "},"ș":{"ha":836,"x_min":85,"x_max":745,"o":"m 415 -10 q 237 16 324 -10 q 85 86 149 42 l 136 217 q 277 152 201 176 q 418 129 354 129 q 507 147 476 129 q 538 208 538 165 q 507 271 538 253 q 393 307 476 290 q 178 381 249 332 q 107 533 107 429 q 190 706 107 643 q 407 770 273 770 q 564 746 486 770 q 703 683 641 722 l 660 557 q 537 612 598 592 q 418 633 475 633 q 341 614 369 633 q 313 556 313 596 q 350 494 313 513 q 486 456 388 476 q 683 379 621 432 q 745 230 745 327 q 657 54 745 119 q 415 -10 568 -10 m 221 -379 l 306 -126 l 571 -126 l 364 -379 l 221 -379 z "},"t":{"ha":836,"x_min":85,"x_max":736,"o":"m 544 -13 q 330 56 405 -13 q 254 250 254 124 l 254 605 l 85 605 l 85 758 l 254 758 l 254 1010 l 461 1010 l 461 758 l 726 758 l 726 605 l 461 605 l 461 273 q 491 174 461 206 q 574 143 520 143 q 645 149 609 143 q 713 168 681 155 l 736 18 q 657 -4 708 5 q 544 -13 606 -13 z "},"ţ":{"ha":836,"x_min":85,"x_max":736,"o":"m 544 -13 q 330 56 405 -13 q 254 250 254 124 l 254 605 l 85 605 l 85 758 l 254 758 l 254 1010 l 461 1010 l 461 758 l 726 758 l 726 605 l 461 605 l 461 273 q 491 174 461 206 q 574 143 520 143 q 645 149 609 143 q 713 168 681 155 l 736 18 q 657 -4 708 5 q 544 -13 606 -13 m 438 0 l 462 53 q 613 4 556 42 q 670 -112 670 -33 q 601 -240 670 -199 q 437 -280 532 -280 q 265 -243 331 -280 q 194 -124 199 -206 l 370 -111 q 386 -145 372 -135 q 428 -154 399 -154 q 476 -140 460 -154 q 492 -82 492 -125 q 481 -27 492 -45 q 438 0 470 -9 z "},"ť":{"ha":836,"x_min":85,"x_max":902,"o":"m 544 -13 q 330 56 405 -13 q 254 250 254 124 l 254 605 l 85 605 l 85 758 l 254 758 l 254 1010 l 461 1010 l 461 758 l 726 758 l 726 605 l 461 605 l 461 273 q 491 174 461 206 q 574 143 520 143 q 645 149 609 143 q 713 168 681 155 l 736 18 q 657 -4 708 5 q 544 -13 606 -13 m 573 890 l 639 1263 l 902 1263 l 693 890 l 573 890 z "},"ț":{"ha":836,"x_min":85,"x_max":736,"o":"m 544 -13 q 330 56 405 -13 q 254 250 254 124 l 254 605 l 85 605 l 85 758 l 254 758 l 254 1010 l 461 1010 l 461 758 l 726 758 l 726 605 l 461 605 l 461 273 q 491 174 461 206 q 574 143 520 143 q 645 149 609 143 q 713 168 681 155 l 736 18 q 657 -4 708 5 q 544 -13 606 -13 m 263 -379 l 347 -126 l 612 -126 l 405 -379 l 263 -379 z "},"u":{"ha":836,"x_min":92,"x_max":744,"o":"m 292 -13 q 148 49 205 -13 q 92 220 92 110 l 92 758 l 299 758 l 299 271 q 321 181 299 211 q 384 150 342 150 q 462 179 423 150 q 537 259 501 207 l 537 758 l 744 758 l 744 0 l 537 0 l 537 126 l 503 126 q 415 22 475 57 q 292 -13 356 -13 z "},"ù":{"ha":836,"x_min":92,"x_max":744,"o":"m 292 -13 q 148 49 205 -13 q 92 220 92 110 l 92 758 l 299 758 l 299 271 q 321 181 299 211 q 384 150 342 150 q 462 179 423 150 q 537 259 501 207 l 537 758 l 744 758 l 744 0 l 537 0 l 537 126 l 503 126 q 415 22 475 57 q 292 -13 356 -13 m 403 884 l 150 1136 l 415 1136 l 545 884 l 403 884 z "},"ú":{"ha":836,"x_min":92,"x_max":744,"o":"m 292 -13 q 148 49 205 -13 q 92 220 92 110 l 92 758 l 299 758 l 299 271 q 321 181 299 211 q 384 150 342 150 q 462 179 423 150 q 537 259 501 207 l 537 758 l 744 758 l 744 0 l 537 0 l 537 126 l 503 126 q 415 22 475 57 q 292 -13 356 -13 m 323 884 l 453 1136 l 718 1136 l 465 884 l 323 884 z "},"û":{"ha":836,"x_min":92,"x_max":744,"o":"m 292 -13 q 148 49 205 -13 q 92 220 92 110 l 92 758 l 299 758 l 299 271 q 321 181 299 211 q 384 150 342 150 q 462 179 423 150 q 537 259 501 207 l 537 758 l 744 758 l 744 0 l 537 0 l 537 126 l 503 126 q 415 22 475 57 q 292 -13 356 -13 m 202 875 l 135 970 l 347 1165 l 504 1165 l 718 970 l 652 875 l 426 1013 l 202 875 z "},"ü":{"ha":836,"x_min":92,"x_max":744,"o":"m 292 -13 q 148 49 205 -13 q 92 220 92 110 l 92 758 l 299 758 l 299 271 q 321 181 299 211 q 384 150 342 150 q 462 179 423 150 q 537 259 501 207 l 537 758 l 744 758 l 744 0 l 537 0 l 537 126 l 503 126 q 415 22 475 57 q 292 -13 356 -13 m 280 881 q 204 900 234 881 q 174 967 174 919 l 174 982 q 204 1053 174 1033 q 280 1073 234 1073 q 356 1053 327 1073 q 385 982 385 1033 l 385 967 q 355 900 385 919 q 280 881 326 881 m 573 881 q 497 900 527 881 q 468 967 468 919 l 468 982 q 497 1053 468 1033 q 573 1073 527 1073 q 650 1053 621 1073 q 679 982 679 1033 l 679 967 q 650 900 679 919 q 573 881 620 881 z "},"ũ":{"ha":836,"x_min":92,"x_max":744,"o":"m 292 -13 q 148 49 205 -13 q 92 220 92 110 l 92 758 l 299 758 l 299 271 q 321 181 299 211 q 384 150 342 150 q 462 179 423 150 q 537 259 501 207 l 537 758 l 744 758 l 744 0 l 537 0 l 537 126 l 503 126 q 415 22 475 57 q 292 -13 356 -13 m 524 896 q 444 915 473 896 q 394 961 414 934 q 358 1005 374 985 q 321 1025 342 1025 q 285 1005 301 1025 q 271 927 270 985 l 271 909 l 136 909 l 136 928 q 184 1097 136 1030 q 314 1164 231 1164 q 395 1145 365 1164 q 446 1100 424 1126 q 481 1056 466 1076 q 516 1035 496 1035 q 552 1056 537 1035 q 566 1134 567 1076 l 566 1152 l 701 1152 l 701 1133 q 654 963 701 1030 q 524 896 607 896 z "},"ū":{"ha":836,"x_min":92,"x_max":744,"o":"m 292 -13 q 148 49 205 -13 q 92 220 92 110 l 92 758 l 299 758 l 299 271 q 321 181 299 211 q 384 150 342 150 q 462 179 423 150 q 537 259 501 207 l 537 758 l 744 758 l 744 0 l 537 0 l 537 126 l 503 126 q 415 22 475 57 q 292 -13 356 -13 m 163 931 l 163 1090 l 673 1090 l 673 931 l 163 931 z "},"ŭ":{"ha":836,"x_min":92,"x_max":744,"o":"m 292 -13 q 148 49 205 -13 q 92 220 92 110 l 92 758 l 299 758 l 299 271 q 321 181 299 211 q 384 150 342 150 q 462 179 423 150 q 537 259 501 207 l 537 758 l 744 758 l 744 0 l 537 0 l 537 126 l 503 126 q 415 22 475 57 q 292 -13 356 -13 m 427 875 q 204 945 280 875 q 126 1163 128 1015 l 297 1163 q 328 1040 298 1074 q 427 1006 357 1006 q 526 1040 496 1006 q 557 1163 556 1074 l 727 1163 q 650 945 726 1015 q 427 875 573 875 z "},"ů":{"ha":836,"x_min":92,"x_max":744,"o":"m 292 -13 q 148 49 205 -13 q 92 220 92 110 l 92 758 l 299 758 l 299 271 q 321 181 299 211 q 384 150 342 150 q 462 179 423 150 q 537 259 501 207 l 537 758 l 744 758 l 744 0 l 537 0 l 537 126 l 503 126 q 415 22 475 57 q 292 -13 356 -13 m 427 857 q 259 904 323 857 q 196 1048 196 951 l 196 1088 q 259 1235 196 1187 q 427 1283 323 1283 q 595 1235 532 1283 q 658 1088 658 1187 l 658 1048 q 594 904 658 951 q 427 857 530 857 m 427 962 q 491 982 468 962 q 513 1048 513 1001 l 513 1088 q 491 1157 513 1135 q 427 1178 468 1178 q 362 1157 384 1178 q 341 1088 341 1135 l 341 1048 q 362 982 341 1001 q 427 962 384 962 z "},"ű":{"ha":836,"x_min":92,"x_max":744,"o":"m 292 -13 q 148 49 205 -13 q 92 220 92 110 l 92 758 l 299 758 l 299 271 q 321 181 299 211 q 384 150 342 150 q 462 179 423 150 q 537 259 501 207 l 537 758 l 744 758 l 744 0 l 537 0 l 537 126 l 503 126 q 415 22 475 57 q 292 -13 356 -13 m 479 884 l 534 1136 l 742 1136 l 588 884 l 479 884 m 212 884 l 268 1136 l 476 1136 l 322 884 l 212 884 z "},"ų":{"ha":836,"x_min":92,"x_max":814,"o":"m 672 -279 q 524 -238 578 -279 q 470 -121 470 -197 q 525 6 470 -49 q 648 82 580 61 l 679 29 q 631 -21 641 5 q 620 -74 620 -48 q 641 -125 620 -109 q 706 -141 662 -141 q 754 -138 726 -141 q 814 -129 783 -134 l 814 -263 q 740 -275 777 -271 q 672 -279 703 -279 m 292 -13 q 148 49 205 -13 q 92 220 92 110 l 92 758 l 299 758 l 299 271 q 321 181 299 211 q 384 150 342 150 q 462 179 423 150 q 537 259 501 207 l 537 758 l 744 758 l 744 0 l 537 0 l 537 126 l 503 126 q 415 22 475 57 q 292 -13 356 -13 z "},"v":{"ha":836,"x_min":71,"x_max":764,"o":"m 554 0 l 280 0 l 71 758 l 270 758 l 422 168 l 573 758 l 764 758 l 554 0 z "},"w":{"ha":836,"x_min":30,"x_max":806,"o":"m 511 0 l 418 400 l 330 0 l 143 0 l 30 758 l 208 758 l 270 226 l 350 624 l 482 624 l 569 237 l 628 758 l 806 758 l 693 0 l 511 0 z "},"ŵ":{"ha":836,"x_min":30,"x_max":806,"o":"m 511 0 l 418 400 l 330 0 l 143 0 l 30 758 l 208 758 l 270 226 l 350 624 l 482 624 l 569 237 l 628 758 l 806 758 l 693 0 l 511 0 m 202 875 l 135 970 l 347 1165 l 504 1165 l 718 970 l 652 875 l 426 1013 l 202 875 z "},"ẁ":{"ha":836,"x_min":30,"x_max":806,"o":"m 511 0 l 418 400 l 330 0 l 143 0 l 30 758 l 208 758 l 270 226 l 350 624 l 482 624 l 569 237 l 628 758 l 806 758 l 693 0 l 511 0 m 400 884 l 148 1136 l 413 1136 l 543 884 l 400 884 z "},"ẃ":{"ha":836,"x_min":30,"x_max":806,"o":"m 511 0 l 418 400 l 330 0 l 143 0 l 30 758 l 208 758 l 270 226 l 350 624 l 482 624 l 569 237 l 628 758 l 806 758 l 693 0 l 511 0 m 313 884 l 443 1136 l 708 1136 l 455 884 l 313 884 z "},"ẅ":{"ha":836,"x_min":30,"x_max":806,"o":"m 511 0 l 418 400 l 330 0 l 143 0 l 30 758 l 208 758 l 270 226 l 350 624 l 482 624 l 569 237 l 628 758 l 806 758 l 693 0 l 511 0 m 280 881 q 204 900 234 881 q 174 967 174 919 l 174 982 q 204 1053 174 1033 q 280 1073 234 1073 q 356 1053 327 1073 q 385 982 385 1033 l 385 967 q 355 900 385 919 q 280 881 326 881 m 573 881 q 497 900 527 881 q 468 967 468 919 l 468 982 q 497 1053 468 1033 q 573 1073 527 1073 q 650 1053 621 1073 q 679 982 679 1033 l 679 967 q 650 900 679 919 q 573 881 620 881 z "},"x":{"ha":836,"x_min":66,"x_max":768,"o":"m 556 0 l 408 235 l 274 0 l 66 0 l 316 385 l 83 758 l 293 758 l 424 548 l 544 758 l 751 758 l 520 394 l 768 0 l 556 0 z "},"y":{"ha":836,"x_min":52,"x_max":783,"o":"m 234 -265 q 154 -261 196 -265 q 66 -250 112 -258 l 78 -98 q 158 -112 122 -107 q 221 -116 193 -116 q 322 -86 287 -116 q 378 20 357 -56 l 381 32 l 254 32 l 52 758 l 265 758 l 418 168 l 578 758 l 783 758 l 561 1 q 441 -204 518 -143 q 234 -265 365 -265 z "},"ý":{"ha":836,"x_min":52,"x_max":783,"o":"m 234 -265 q 154 -261 196 -265 q 66 -250 112 -258 l 78 -98 q 158 -112 122 -107 q 221 -116 193 -116 q 322 -86 287 -116 q 378 20 357 -56 l 381 32 l 254 32 l 52 758 l 265 758 l 418 168 l 578 758 l 783 758 l 561 1 q 441 -204 518 -143 q 234 -265 365 -265 m 274 884 l 404 1136 l 669 1136 l 415 884 l 274 884 z "},"ÿ":{"ha":836,"x_min":52,"x_max":783,"o":"m 234 -265 q 154 -261 196 -265 q 66 -250 112 -258 l 78 -98 q 158 -112 122 -107 q 221 -116 193 -116 q 322 -86 287 -116 q 378 20 357 -56 l 381 32 l 254 32 l 52 758 l 265 758 l 418 168 l 578 758 l 783 758 l 561 1 q 441 -204 518 -143 q 234 -265 365 -265 m 271 881 q 195 900 225 881 q 165 967 165 919 l 165 982 q 195 1053 165 1033 q 271 1073 225 1073 q 347 1053 318 1073 q 376 982 376 1033 l 376 967 q 347 900 376 919 q 271 881 317 881 m 564 881 q 489 900 518 881 q 460 967 460 919 l 460 982 q 489 1053 460 1033 q 564 1073 518 1073 q 641 1053 612 1073 q 670 982 670 1033 l 670 967 q 641 900 670 919 q 564 881 611 881 z "},"ŷ":{"ha":836,"x_min":52,"x_max":783,"o":"m 234 -265 q 154 -261 196 -265 q 66 -250 112 -258 l 78 -98 q 158 -112 122 -107 q 221 -116 193 -116 q 322 -86 287 -116 q 378 20 357 -56 l 381 32 l 254 32 l 52 758 l 265 758 l 418 168 l 578 758 l 783 758 l 561 1 q 441 -204 518 -143 q 234 -265 365 -265 m 193 875 l 126 970 l 338 1165 l 495 1165 l 710 970 l 643 875 l 417 1013 l 193 875 z "},"ỳ":{"ha":836,"x_min":52,"x_max":783,"o":"m 234 -265 q 154 -261 196 -265 q 66 -250 112 -258 l 78 -98 q 158 -112 122 -107 q 221 -116 193 -116 q 322 -86 287 -116 q 378 20 357 -56 l 381 32 l 254 32 l 52 758 l 265 758 l 418 168 l 578 758 l 783 758 l 561 1 q 441 -204 518 -143 q 234 -265 365 -265 m 400 884 l 148 1136 l 413 1136 l 543 884 l 400 884 z "},"z":{"ha":836,"x_min":106,"x_max":731,"o":"m 731 0 l 106 0 l 106 153 l 509 605 l 106 605 l 106 758 l 731 758 l 731 605 l 335 153 l 731 153 l 731 0 z "},"ź":{"ha":836,"x_min":106,"x_max":731,"o":"m 731 0 l 106 0 l 106 153 l 509 605 l 106 605 l 106 758 l 731 758 l 731 605 l 335 153 l 731 153 l 731 0 m 308 884 l 438 1136 l 703 1136 l 449 884 l 308 884 z "},"ż":{"ha":836,"x_min":106,"x_max":731,"o":"m 731 0 l 106 0 l 106 153 l 509 605 l 106 605 l 106 758 l 731 758 l 731 605 l 335 153 l 731 153 l 731 0 m 414 881 q 314 900 352 881 q 277 967 277 919 l 277 982 q 314 1053 277 1033 q 414 1073 352 1073 q 514 1053 476 1073 q 552 982 552 1033 l 552 967 q 513 900 552 919 q 414 881 475 881 z "},"ž":{"ha":836,"x_min":106,"x_max":731,"o":"m 731 0 l 106 0 l 106 153 l 509 605 l 106 605 l 106 758 l 731 758 l 731 605 l 335 153 l 731 153 l 731 0 m 338 889 l 124 1085 l 191 1179 l 417 1043 l 640 1179 l 707 1085 l 495 889 l 338 889 z "},"ª":{"ha":836,"x_min":98,"x_max":778,"o":"m 346 491 q 419 504 384 491 q 485 544 455 516 l 485 636 l 342 636 q 287 621 306 636 q 268 561 268 605 q 286 509 268 527 q 346 491 304 491 m 308 376 q 164 420 229 376 q 98 551 98 463 q 160 688 98 641 q 324 734 221 734 l 485 734 l 485 794 q 460 873 485 848 q 385 898 434 898 q 313 879 338 898 q 271 803 288 861 l 112 831 q 198 977 133 932 q 390 1023 263 1023 q 589 972 518 1023 q 660 801 660 920 l 660 591 q 689 521 660 535 q 778 515 717 508 l 778 389 q 638 390 694 372 q 558 480 581 408 l 532 480 q 442 406 504 436 q 308 376 380 376 z "},"º":{"ha":836,"x_min":133,"x_max":703,"o":"m 418 376 q 213 436 293 376 q 133 615 133 496 l 133 779 q 213 961 133 900 q 419 1023 293 1023 q 624 961 544 1023 q 703 779 703 900 l 703 615 q 624 436 703 496 q 418 376 544 376 m 418 505 q 502 533 477 505 q 527 625 527 562 l 527 777 q 502 864 527 835 q 418 893 477 893 q 334 863 359 893 q 309 775 309 833 l 309 625 q 334 533 309 562 q 418 505 359 505 z "},"ß":{"ha":836,"x_min":62,"x_max":792,"o":"m 544 -8 q 422 15 484 -8 q 318 76 360 37 l 369 201 q 448 145 408 167 q 529 124 487 124 q 590 143 567 124 q 612 202 612 162 q 586 259 612 240 q 484 307 561 279 q 366 384 404 336 q 328 506 328 432 q 378 653 328 596 q 511 723 428 710 q 472 836 506 803 q 384 869 438 869 q 297 832 333 869 q 260 711 260 795 l 260 0 l 62 0 l 62 729 q 152 947 62 874 q 384 1020 241 1020 q 616 932 530 1020 q 702 707 702 845 l 702 625 q 553 601 598 624 q 508 535 508 578 q 539 475 508 496 q 641 427 569 455 q 755 347 718 395 q 792 221 792 298 q 721 53 792 114 q 544 -8 650 -8 z "},"æ":{"ha":836,"x_min":38,"x_max":798,"o":"m 797 188 q 721 37 775 87 q 581 -13 667 -13 q 479 14 523 -13 q 412 95 436 40 l 379 95 q 320 18 361 48 q 220 -13 279 -13 q 90 41 141 -13 q 38 199 38 95 q 95 366 38 309 q 246 422 152 422 l 354 422 l 354 513 q 337 600 354 572 q 285 628 321 628 q 237 605 253 628 q 203 516 222 582 l 56 548 q 130 716 78 662 q 273 770 182 770 q 364 749 326 770 q 424 678 403 727 q 496 747 452 725 q 591 770 539 770 q 741 702 683 770 q 798 496 798 634 l 798 338 l 510 338 l 510 235 q 525 151 510 181 q 574 121 539 121 q 623 141 605 121 q 650 212 641 162 l 797 188 m 510 516 l 510 447 l 648 447 l 648 513 q 632 610 648 581 q 581 640 616 640 q 528 611 545 640 q 510 516 510 582 m 354 169 l 354 313 l 284 313 q 227 291 247 313 q 207 212 207 269 q 221 142 207 167 q 265 117 235 117 q 311 131 289 117 q 354 169 332 145 z "},"ǽ":{"ha":836,"x_min":38,"x_max":798,"o":"m 797 188 q 721 37 775 87 q 581 -13 667 -13 q 479 14 523 -13 q 412 95 436 40 l 379 95 q 320 18 361 48 q 220 -13 279 -13 q 90 41 141 -13 q 38 199 38 95 q 95 366 38 309 q 246 422 152 422 l 354 422 l 354 513 q 337 600 354 572 q 285 628 321 628 q 237 605 253 628 q 203 516 222 582 l 56 548 q 130 716 78 662 q 273 770 182 770 q 364 749 326 770 q 424 678 403 727 q 496 747 452 725 q 591 770 539 770 q 741 702 683 770 q 798 496 798 634 l 798 338 l 510 338 l 510 235 q 525 151 510 181 q 574 121 539 121 q 623 141 605 121 q 650 212 641 162 l 797 188 m 510 516 l 510 447 l 648 447 l 648 513 q 632 610 648 581 q 581 640 616 640 q 528 611 545 640 q 510 516 510 582 m 354 169 l 354 313 l 284 313 q 227 291 247 313 q 207 212 207 269 q 221 142 207 167 q 265 117 235 117 q 311 131 289 117 q 354 169 332 145 m 362 884 l 492 1136 l 758 1136 l 504 884 l 362 884 z "},"ð":{"ha":836,"x_min":82,"x_max":754,"o":"m 418 -13 q 175 61 268 -13 q 82 284 82 134 l 82 362 q 156 559 82 486 q 347 631 230 631 q 466 604 419 631 q 530 538 513 576 l 556 538 q 524 672 549 616 q 453 770 499 729 l 256 674 l 256 790 l 347 836 q 268 871 312 855 q 172 903 223 888 l 294 1037 q 430 989 369 1015 q 538 929 491 962 l 720 1018 l 720 902 l 628 856 q 723 691 692 787 q 754 468 754 595 l 754 292 q 661 61 754 134 q 418 -13 568 -13 m 419 140 q 516 173 487 140 q 545 274 545 206 l 545 356 q 516 448 545 418 q 419 477 487 477 q 321 448 350 477 q 293 356 293 418 l 293 274 q 321 173 293 206 q 419 140 350 140 z "},"ø":{"ha":836,"x_min":82,"x_max":754,"o":"m 271 283 q 275 232 271 254 q 288 193 279 210 l 480 617 q 451 623 467 621 q 418 625 436 625 q 305 588 338 625 q 271 476 271 552 l 271 283 m 418 133 q 531 168 497 133 q 564 283 564 203 l 564 479 q 560 526 564 505 q 547 563 556 547 l 357 139 q 385 134 370 135 q 418 133 400 133 m 418 -13 q 364 -9 391 -13 q 312 -1 336 -6 l 254 -126 l 119 -126 l 198 43 q 113 138 144 78 q 82 271 82 198 l 82 481 q 174 694 82 619 q 419 770 265 770 q 473 767 446 770 q 525 759 501 764 l 582 884 l 717 884 l 638 715 q 723 618 692 679 q 754 481 754 557 l 754 271 q 663 62 754 136 q 418 -13 572 -13 z "},"ǿ":{"ha":836,"x_min":82,"x_max":754,"o":"m 271 283 q 275 232 271 254 q 288 193 279 210 l 480 617 q 451 623 467 621 q 418 625 436 625 q 305 588 338 625 q 271 476 271 552 l 271 283 m 418 133 q 531 168 497 133 q 564 283 564 203 l 564 479 q 560 526 564 505 q 547 563 556 547 l 357 139 q 385 134 370 135 q 418 133 400 133 m 418 -13 q 364 -9 391 -13 q 312 -1 336 -6 l 254 -126 l 119 -126 l 198 43 q 113 138 144 78 q 82 271 82 198 l 82 481 q 174 694 82 619 q 419 770 265 770 q 473 767 446 770 q 525 759 501 764 l 582 884 l 717 884 l 638 715 q 723 618 692 679 q 754 481 754 557 l 754 271 q 663 62 754 136 q 418 -13 572 -13 m 313 884 l 443 1136 l 708 1136 l 455 884 l 313 884 z "},"þ":{"ha":836,"x_min":92,"x_max":744,"o":"m 419 141 q 508 172 479 141 q 537 270 537 202 l 537 489 q 512 579 537 551 q 443 607 487 607 q 370 588 405 607 q 299 527 335 568 l 299 179 q 358 151 331 160 q 419 141 385 141 m 455 -10 q 373 -2 413 -10 q 299 21 333 6 l 299 -253 l 92 -253 l 92 1010 l 299 1010 l 299 631 l 335 631 q 413 734 359 697 q 539 770 467 770 q 689 703 634 770 q 744 519 744 636 l 744 268 q 667 65 744 140 q 455 -10 590 -10 z "},"đ":{"ha":836,"x_min":92,"x_max":860,"o":"m 393 150 q 466 170 431 150 q 537 231 501 191 l 537 501 q 475 528 506 519 q 409 538 444 538 q 327 508 355 538 q 299 409 299 477 l 299 278 q 324 182 299 213 q 393 150 348 150 m 503 126 q 427 27 480 66 q 295 -13 375 -13 q 145 59 197 -13 q 92 245 92 131 l 92 410 q 168 614 92 540 q 376 688 244 688 q 461 679 420 688 q 537 654 501 670 l 537 773 l 342 773 l 342 889 l 537 889 l 537 1010 l 744 1010 l 744 889 l 860 889 l 860 773 l 744 773 l 744 0 l 537 0 l 537 126 l 503 126 z "},"ħ":{"ha":836,"x_min":-24,"x_max":744,"o":"m 299 418 l 299 0 l 92 0 l 92 773 l -24 773 l -24 889 l 92 889 l 92 1010 l 299 1010 l 299 889 l 494 889 l 494 773 l 299 773 l 299 552 l 335 552 q 415 655 360 617 q 543 692 471 692 q 689 631 634 692 q 744 470 744 571 l 744 0 l 537 0 l 537 415 q 515 500 537 471 q 453 529 494 529 q 374 500 414 529 q 299 418 335 471 z "},"ı":{"ha":836,"x_min":101,"x_max":735,"o":"m 101 0 l 101 153 l 314 153 l 314 605 l 101 605 l 101 758 l 521 758 l 521 153 l 735 153 l 735 0 l 101 0 z "},"ĳ":{"ha":836,"x_min":57,"x_max":771,"o":"m 187 881 q 93 900 129 881 q 57 967 57 919 l 57 982 q 93 1053 57 1033 q 187 1073 129 1073 q 280 1053 245 1073 q 314 982 314 1033 l 314 967 q 278 900 314 919 q 187 881 242 881 m 641 881 q 549 900 585 881 q 514 967 514 919 l 514 982 q 549 1053 514 1033 q 641 1073 585 1073 q 735 1053 699 1073 q 771 982 771 1033 l 771 967 q 735 900 771 919 q 641 881 698 881 m 289 0 l 100 0 l 100 758 l 289 758 l 289 0 m 462 -264 q 373 -258 418 -264 q 285 -236 328 -251 l 308 -91 q 377 -110 345 -104 q 437 -116 409 -116 q 525 -86 494 -116 q 557 15 557 -56 l 557 605 l 408 605 l 408 758 l 746 758 l 746 -5 q 666 -198 746 -133 q 462 -264 586 -264 z "},"ĸ":{"ha":836,"x_min":112,"x_max":771,"o":"m 321 323 l 321 0 l 112 0 l 112 758 l 321 758 l 321 465 l 366 465 l 553 758 l 771 758 l 538 413 l 768 0 l 545 0 l 366 323 l 321 323 z "},"ŀ":{"ha":836,"x_min":110,"x_max":958,"o":"m 110 0 l 110 153 l 332 153 l 332 857 l 110 857 l 110 1010 l 540 1010 l 540 153 l 754 153 l 754 0 l 110 0 m 821 408 q 721 427 759 408 q 683 494 683 446 l 683 509 q 721 580 683 559 q 821 600 759 600 q 920 580 883 600 q 958 509 958 559 l 958 494 q 920 427 958 446 q 821 408 881 408 z "},"ł":{"ha":836,"x_min":110,"x_max":754,"o":"m 110 0 l 110 153 l 332 153 l 332 420 l 150 369 l 150 500 l 332 552 l 332 857 l 110 857 l 110 1010 l 540 1010 l 540 612 l 659 646 l 659 515 l 540 481 l 540 153 l 754 153 l 754 0 l 110 0 z "},"ŉ":{"ha":836,"x_min":-21,"x_max":744,"o":"m 92 0 l 92 758 l 299 758 l 299 631 l 335 631 q 418 733 361 696 q 548 770 475 770 q 692 709 640 770 q 744 538 744 648 l 744 0 l 537 0 l 537 501 q 515 580 537 553 q 451 607 492 607 q 371 584 412 607 q 299 514 331 561 l 299 0 l 92 0 m -21 884 l 109 1136 l 374 1136 l 120 884 l -21 884 z "},"ŋ":{"ha":836,"x_min":92,"x_max":745,"o":"m 473 -264 q 395 -256 434 -264 q 317 -236 356 -249 l 341 -91 q 398 -109 371 -102 q 449 -116 426 -116 q 513 -86 490 -116 q 537 13 537 -57 l 537 506 q 515 582 537 557 q 451 607 492 607 q 371 584 412 607 q 299 514 331 561 l 299 0 l 92 0 l 92 758 l 299 758 l 299 631 l 335 631 q 422 735 362 701 q 548 770 482 770 q 691 711 639 770 q 744 544 744 653 l 745 -8 q 663 -203 745 -141 q 473 -264 581 -264 z "},"œ":{"ha":836,"x_min":54,"x_max":790,"o":"m 790 183 q 721 31 773 74 q 580 -13 669 -13 q 481 9 525 -13 q 409 76 437 32 q 346 9 385 30 q 259 -13 307 -13 q 112 49 170 -13 q 54 240 54 111 l 54 513 q 113 707 54 644 q 260 770 172 770 q 346 749 307 770 q 409 682 385 727 q 479 749 436 727 q 574 770 521 770 q 723 710 665 770 q 782 524 782 649 l 782 338 l 497 338 l 497 210 q 513 143 497 165 q 564 121 529 121 q 622 137 600 121 q 650 207 644 153 l 790 183 m 497 548 l 497 447 l 614 447 l 614 539 q 601 615 614 592 q 556 638 588 638 q 511 616 524 638 q 497 548 497 595 m 280 135 q 325 161 312 135 q 338 246 338 187 l 338 515 q 325 596 338 569 q 280 622 312 622 q 235 595 249 622 q 222 513 222 567 l 222 246 q 235 161 222 187 q 280 135 249 135 z "},"ŧ":{"ha":836,"x_min":85,"x_max":736,"o":"m 544 -13 q 330 56 405 -13 q 254 250 254 124 l 254 331 l 112 331 l 112 467 l 254 467 l 254 605 l 85 605 l 85 758 l 254 758 l 254 1010 l 461 1010 l 461 758 l 726 758 l 726 605 l 461 605 l 461 467 l 701 467 l 701 331 l 461 331 l 461 273 q 491 174 461 206 q 574 143 520 143 q 645 149 609 143 q 713 168 681 155 l 736 18 q 657 -4 708 5 q 544 -13 606 -13 z "},"ſ":{"ha":836,"x_min":176,"x_max":764,"o":"m 314 0 l 314 605 l 176 605 l 176 758 l 314 758 l 314 801 q 394 982 314 918 q 598 1045 473 1045 q 681 1037 638 1045 q 764 1015 725 1028 l 741 876 q 679 894 708 888 q 625 900 650 900 q 549 874 577 900 q 521 788 521 847 l 521 0 l 314 0 z "},"ȷ":{"ha":836,"x_min":83,"x_max":629,"o":"m 293 -264 q 188 -258 241 -264 q 83 -236 134 -253 l 107 -91 q 193 -112 153 -107 q 269 -116 234 -116 q 380 -86 340 -116 q 420 15 420 -56 l 420 605 l 125 605 l 125 758 l 629 758 l 629 -5 q 537 -196 629 -128 q 293 -264 444 -264 z "},"α":{"ha":836,"x_min":90,"x_max":789,"o":"m 376 150 q 437 170 409 150 q 492 226 466 189 l 492 533 q 436 589 465 569 q 374 609 408 609 q 318 579 338 609 q 297 485 297 549 l 297 269 q 318 179 297 207 q 376 150 338 150 m 562 146 l 527 146 q 435 30 495 71 q 298 -11 375 -11 q 146 56 203 -11 q 90 240 90 122 l 90 503 q 143 698 90 624 q 282 771 196 771 q 388 738 343 771 q 458 639 433 705 l 492 639 l 492 758 l 701 758 l 701 235 q 721 160 701 177 q 789 152 741 144 l 789 3 q 635 16 691 -18 q 562 146 580 51 z "},"ά":{"ha":836,"x_min":90,"x_max":789,"o":"m 376 150 q 437 170 409 150 q 492 226 466 189 l 492 533 q 436 589 465 569 q 374 609 408 609 q 318 579 338 609 q 297 485 297 549 l 297 269 q 318 179 297 207 q 376 150 338 150 m 562 146 l 527 146 q 435 30 495 71 q 298 -11 375 -11 q 146 56 203 -11 q 90 240 90 122 l 90 503 q 143 698 90 624 q 282 771 196 771 q 388 738 343 771 q 458 639 433 705 l 492 639 l 492 758 l 701 758 l 701 235 q 721 160 701 177 q 789 152 741 144 l 789 3 q 635 16 691 -18 q 562 146 580 51 m 376 884 l 436 1136 l 691 1136 l 506 884 l 376 884 z "},"β":{"ha":836,"x_min":92,"x_max":744,"o":"m 415 145 q 500 177 466 145 q 534 289 534 210 l 534 338 q 503 444 534 414 q 409 475 471 475 l 364 475 l 364 601 l 403 601 q 478 626 453 601 q 503 707 503 652 l 503 747 q 477 836 503 809 q 400 862 452 862 q 323 830 346 862 q 299 726 299 797 l 299 183 q 353 155 324 164 q 415 145 381 145 m 455 -13 q 372 -5 412 -13 q 299 16 333 3 l 299 -253 l 92 -253 l 92 732 q 174 948 92 874 q 400 1023 256 1023 q 622 960 538 1023 q 707 783 707 896 l 707 746 q 665 629 707 676 q 535 566 624 582 l 535 529 q 689 465 635 519 q 744 323 744 410 l 744 263 q 663 59 744 131 q 455 -13 582 -13 z "},"γ":{"ha":836,"x_min":52,"x_max":783,"o":"m 543 -253 l 293 -253 l 314 25 l 52 758 l 263 758 l 418 212 l 573 758 l 783 758 l 521 25 l 543 -253 z "},"δ":{"ha":836,"x_min":91,"x_max":745,"o":"m 418 -13 q 179 58 266 -13 q 91 266 91 129 l 91 390 q 131 518 91 465 q 253 606 170 571 q 155 681 184 640 q 126 787 126 722 q 201 954 126 898 q 414 1010 275 1010 l 648 1010 l 648 857 l 423 857 q 350 843 374 857 q 326 788 326 828 q 363 731 326 753 q 504 673 400 710 q 688 567 631 626 q 745 394 745 508 l 745 266 q 657 58 745 129 q 418 -13 569 -13 m 418 140 q 507 169 477 140 q 537 266 537 198 l 537 394 q 504 489 537 456 q 381 554 471 523 q 321 494 343 532 q 299 398 299 456 l 299 266 q 330 169 299 198 q 418 140 360 140 z "},"ε":{"ha":836,"x_min":87,"x_max":765,"o":"m 431 -13 q 172 40 258 -13 q 87 202 87 93 l 87 222 q 132 328 87 283 q 268 379 177 372 l 268 407 q 150 447 193 412 q 107 544 107 482 l 107 569 q 191 722 107 673 q 431 770 275 770 q 659 713 582 770 q 745 528 736 655 l 557 518 q 523 610 551 582 q 431 638 495 638 q 342 618 367 638 q 316 554 316 598 l 316 537 q 342 473 316 490 q 431 456 369 456 l 495 456 l 495 340 l 431 340 q 321 316 347 340 q 294 242 294 292 l 294 230 q 323 153 294 178 q 431 129 351 129 q 542 159 514 129 q 577 254 569 189 l 765 245 q 686 51 756 115 q 431 -13 615 -13 z "},"έ":{"ha":836,"x_min":87,"x_max":765,"o":"m 431 -13 q 172 40 258 -13 q 87 202 87 93 l 87 222 q 132 328 87 283 q 268 379 177 372 l 268 407 q 150 447 193 412 q 107 544 107 482 l 107 569 q 191 722 107 673 q 431 770 275 770 q 659 713 582 770 q 745 528 736 655 l 557 518 q 523 610 551 582 q 431 638 495 638 q 342 618 367 638 q 316 554 316 598 l 316 537 q 342 473 316 490 q 431 456 369 456 l 495 456 l 495 340 l 431 340 q 321 316 347 340 q 294 242 294 292 l 294 230 q 323 153 294 178 q 431 129 351 129 q 542 159 514 129 q 577 254 569 189 l 765 245 q 686 51 756 115 q 431 -13 615 -13 m 333 884 l 393 1136 l 648 1136 l 463 884 l 333 884 z "},"ζ":{"ha":836,"x_min":37,"x_max":750,"o":"m 479 -253 l 323 -253 l 323 -107 l 477 -107 q 539 -93 516 -107 q 561 -34 561 -80 q 539 28 561 13 q 477 44 516 44 l 398 44 q 167 114 244 44 q 90 309 90 184 q 128 479 90 408 q 246 644 167 551 l 365 788 l 357 806 q 162 840 242 785 q 37 1005 82 894 l 154 1067 q 278 942 201 970 q 484 944 356 914 l 712 1045 l 750 855 l 535 811 l 393 596 q 323 464 347 520 q 298 338 298 408 q 324 227 298 264 q 409 189 351 189 l 515 189 q 684 136 622 189 q 745 -28 745 83 q 673 -196 745 -139 q 479 -253 601 -253 z "},"η":{"ha":836,"x_min":92,"x_max":744,"o":"m 537 -253 l 537 506 q 515 582 537 557 q 451 607 492 607 q 371 584 410 607 q 299 514 331 561 l 299 0 l 92 0 l 92 758 l 299 758 l 299 631 l 335 631 q 418 733 361 696 q 549 770 475 770 q 692 710 640 770 q 744 544 744 650 l 744 -253 l 537 -253 z "},"ή":{"ha":836,"x_min":92,"x_max":744,"o":"m 537 -253 l 537 506 q 515 582 537 557 q 451 607 492 607 q 371 584 410 607 q 299 514 331 561 l 299 0 l 92 0 l 92 758 l 299 758 l 299 631 l 335 631 q 418 733 361 696 q 549 770 475 770 q 692 710 640 770 q 744 544 744 650 l 744 -253 l 537 -253 m 367 884 l 427 1136 l 682 1136 l 497 884 l 367 884 z "},"θ":{"ha":836,"x_min":92,"x_max":744,"o":"m 418 -13 q 180 63 268 -13 q 92 274 92 139 l 92 731 q 181 946 92 870 q 419 1023 269 1023 q 657 946 569 1023 q 744 731 744 870 l 744 274 q 656 63 744 139 q 418 -13 568 -13 m 290 726 l 290 580 l 545 580 l 545 729 q 516 834 545 798 q 418 870 487 870 q 319 834 348 870 q 290 726 290 798 m 418 140 q 516 175 487 140 q 545 285 545 210 l 545 443 l 290 443 l 290 285 q 319 175 290 210 q 418 140 348 140 z "},"ι":{"ha":836,"x_min":96,"x_max":758,"o":"m 577 -9 q 372 62 448 -9 q 295 246 295 133 l 295 605 l 96 605 l 96 758 l 504 758 l 504 277 q 532 181 504 212 q 611 150 561 150 q 672 158 643 150 q 725 176 702 165 l 758 28 q 665 0 711 9 q 577 -9 620 -9 z "},"ΐ":{"ha":836,"x_min":63,"x_max":758,"o":"m 577 -9 q 372 62 448 -9 q 295 246 295 133 l 295 605 l 96 605 l 96 758 l 504 758 l 504 277 q 532 181 504 212 q 611 150 561 150 q 672 158 643 150 q 725 176 702 165 l 758 28 q 665 0 711 9 q 577 -9 620 -9 m 309 884 l 362 1136 l 548 1136 l 426 884 l 309 884 m 158 876 q 90 895 116 876 q 63 963 63 914 l 63 977 q 90 1048 63 1028 q 158 1068 116 1068 q 226 1048 201 1068 q 251 977 251 1028 l 251 963 q 225 895 251 914 q 158 876 198 876 m 655 876 q 588 895 614 876 q 562 963 562 914 l 562 977 q 588 1048 562 1028 q 655 1068 614 1068 q 724 1048 698 1068 q 750 977 750 1028 l 750 963 q 723 895 750 914 q 655 876 696 876 z "},"ί":{"ha":836,"x_min":96,"x_max":758,"o":"m 577 -9 q 372 62 448 -9 q 295 246 295 133 l 295 605 l 96 605 l 96 758 l 504 758 l 504 277 q 532 181 504 212 q 611 150 561 150 q 672 158 643 150 q 725 176 702 165 l 758 28 q 665 0 711 9 q 577 -9 620 -9 m 318 884 l 378 1136 l 633 1136 l 448 884 l 318 884 z "},"ϊ":{"ha":836,"x_min":96,"x_max":758,"o":"m 577 -9 q 372 62 448 -9 q 295 246 295 133 l 295 605 l 96 605 l 96 758 l 504 758 l 504 277 q 532 181 504 212 q 611 150 561 150 q 672 158 643 150 q 725 176 702 165 l 758 28 q 665 0 711 9 q 577 -9 620 -9 m 266 881 q 190 900 220 881 q 160 967 160 919 l 160 982 q 190 1053 160 1033 q 266 1073 220 1073 q 342 1053 313 1073 q 371 982 371 1033 l 371 967 q 342 900 371 919 q 266 881 312 881 m 559 881 q 484 900 513 881 q 455 967 455 919 l 455 982 q 484 1053 455 1033 q 559 1073 513 1073 q 636 1053 607 1073 q 665 982 665 1033 l 665 967 q 636 900 665 919 q 559 881 606 881 z "},"κ":{"ha":836,"x_min":112,"x_max":771,"o":"m 321 323 l 321 0 l 112 0 l 112 758 l 321 758 l 321 465 l 366 465 l 553 758 l 771 758 l 538 413 l 768 0 l 545 0 l 366 323 l 321 323 z "},"λ":{"ha":836,"x_min":52,"x_max":783,"o":"m 573 0 l 412 598 l 260 0 l 52 0 l 236 688 l 388 688 l 379 717 q 320 832 357 799 q 208 865 283 865 q 161 863 187 865 q 106 856 135 861 l 83 1008 q 155 1015 120 1013 q 222 1018 191 1018 q 437 964 359 1018 q 552 785 515 910 l 783 0 l 573 0 z "},"μ":{"ha":836,"x_min":90,"x_max":787,"o":"m 308 25 l 321 -253 l 90 -253 l 101 25 l 101 758 l 308 758 l 308 265 q 332 180 308 206 q 390 154 356 154 q 451 171 426 154 q 500 220 476 188 l 500 758 l 707 758 l 707 235 q 725 160 707 177 q 787 152 744 144 l 787 3 q 657 9 703 -15 q 587 105 610 33 l 554 105 q 499 21 534 54 q 409 -11 465 -11 q 352 1 376 -11 q 308 39 327 14 l 308 25 z "},"ν":{"ha":836,"x_min":52,"x_max":783,"o":"m 524 0 l 311 0 l 52 758 l 261 758 l 441 186 q 533 478 499 326 q 577 758 568 630 l 783 758 q 690 354 761 544 q 524 0 619 163 z "},"ξ":{"ha":836,"x_min":23,"x_max":749,"o":"m 749 -28 q 677 -196 749 -139 q 473 -253 606 -253 l 337 -253 l 337 -107 l 473 -107 q 540 -93 515 -107 q 566 -34 566 -80 q 540 28 566 13 q 473 44 515 44 l 379 44 q 176 107 250 44 q 101 277 101 169 l 101 303 q 152 434 101 378 q 306 499 203 490 l 306 528 q 205 565 240 528 q 170 653 170 602 q 203 737 170 701 q 302 788 236 774 l 302 817 q 126 865 194 816 q 23 1005 58 914 l 134 1067 q 259 953 186 980 q 453 949 332 926 l 696 1045 l 729 855 l 475 807 l 436 780 q 391 729 405 759 q 378 664 378 699 q 398 602 378 620 q 448 583 418 583 l 645 583 l 645 439 l 441 439 q 340 405 371 439 q 308 322 308 371 l 308 295 q 338 219 308 249 q 434 189 369 189 l 499 189 q 684 136 620 189 q 749 -28 749 82 z "},"ο":{"ha":836,"x_min":92,"x_max":745,"o":"m 418 -13 q 178 61 264 -13 q 92 265 92 134 l 92 487 q 179 695 92 620 q 419 770 265 770 q 659 694 573 770 q 745 484 745 619 l 745 261 q 658 60 745 133 q 418 -13 572 -13 m 418 140 q 508 172 480 140 q 537 274 537 203 l 537 480 q 508 585 537 552 q 418 617 480 617 q 328 585 356 617 q 299 481 299 553 l 299 278 q 328 173 299 206 q 418 140 356 140 z "},"ό":{"ha":836,"x_min":92,"x_max":745,"o":"m 418 -13 q 178 61 264 -13 q 92 265 92 134 l 92 487 q 179 695 92 620 q 419 770 265 770 q 659 694 573 770 q 745 484 745 619 l 745 261 q 658 60 745 133 q 418 -13 572 -13 m 418 140 q 508 172 480 140 q 537 274 537 203 l 537 480 q 508 585 537 552 q 418 617 480 617 q 328 585 356 617 q 299 481 299 553 l 299 278 q 328 173 299 206 q 418 140 356 140 m 314 884 l 374 1136 l 629 1136 l 444 884 l 314 884 z "},"π":{"ha":836,"x_min":32,"x_max":779,"o":"m 761 758 l 761 605 l 659 605 l 659 241 q 685 161 659 181 q 779 152 711 141 l 779 3 q 549 25 628 -24 q 470 197 470 74 l 470 605 l 309 605 l 309 0 l 120 0 l 120 605 l 32 605 l 32 758 l 761 758 z "},"ρ":{"ha":836,"x_min":92,"x_max":744,"o":"m 443 150 q 513 182 490 150 q 537 280 537 215 l 537 487 q 507 585 537 556 q 420 615 477 615 q 330 585 361 615 q 299 487 299 556 l 299 231 q 371 170 335 189 q 443 150 408 150 m 92 -253 l 92 489 q 176 696 92 625 q 413 768 259 768 q 658 696 573 768 q 744 489 744 625 l 744 253 q 682 59 744 131 q 515 -13 621 -13 q 398 24 444 -13 q 335 126 351 61 l 299 126 l 299 -253 l 92 -253 z "},"ς":{"ha":836,"x_min":92,"x_max":745,"o":"m 314 -253 l 314 -100 l 470 -100 q 530 -86 508 -100 q 553 -30 553 -73 q 530 30 553 15 q 470 44 508 44 l 367 44 q 162 121 232 44 q 92 336 92 197 l 92 485 q 177 695 92 620 q 422 770 261 770 q 645 699 572 770 q 734 490 717 629 l 534 475 q 503 586 529 554 q 415 617 477 617 q 325 585 351 617 q 299 476 299 552 l 299 338 q 326 230 299 263 q 422 197 354 197 l 523 197 q 686 142 628 197 q 745 -21 745 87 q 664 -192 745 -131 q 443 -253 583 -253 l 314 -253 z "},"σ":{"ha":836,"x_min":92,"x_max":823,"o":"m 395 140 q 468 170 447 140 q 490 271 490 201 l 490 475 q 468 578 490 543 q 395 612 447 612 q 321 580 343 612 q 299 482 299 547 l 299 271 q 321 170 299 201 q 395 140 343 140 m 395 -13 q 174 60 256 -13 q 92 265 92 133 l 92 482 q 174 684 92 611 q 396 758 256 758 l 823 758 l 823 592 l 641 606 q 684 531 669 574 q 698 433 698 487 l 698 265 q 616 60 698 133 q 395 -13 534 -13 z "},"τ":{"ha":836,"x_min":82,"x_max":765,"o":"m 660 3 q 403 23 491 -27 q 314 197 314 72 l 314 597 l 82 597 l 82 758 l 765 758 l 765 597 l 521 597 l 521 239 q 552 160 521 179 q 660 152 583 140 l 660 3 z "},"υ":{"ha":836,"x_min":92,"x_max":744,"o":"m 419 -13 q 178 66 264 -13 q 92 287 92 145 l 92 758 l 299 758 l 299 290 q 327 182 299 216 q 418 148 355 148 q 509 181 481 148 q 537 288 537 215 l 537 758 l 744 758 l 744 287 q 658 66 744 145 q 419 -13 573 -13 z "},"ΰ":{"ha":836,"x_min":74,"x_max":761,"o":"m 419 -13 q 178 66 264 -13 q 92 287 92 145 l 92 758 l 299 758 l 299 290 q 327 182 299 216 q 418 148 355 148 q 509 181 481 148 q 537 288 537 215 l 537 758 l 744 758 l 744 287 q 658 66 744 145 q 419 -13 573 -13 m 321 884 l 374 1136 l 559 1136 l 437 884 l 321 884 m 169 876 q 101 895 128 876 q 74 963 74 914 l 74 977 q 101 1048 74 1028 q 169 1068 128 1068 q 237 1048 212 1068 q 263 977 263 1028 l 263 963 q 236 895 263 914 q 169 876 210 876 m 667 876 q 599 895 625 876 q 573 963 573 914 l 573 977 q 599 1048 573 1028 q 667 1068 625 1068 q 735 1048 710 1068 q 761 977 761 1028 l 761 963 q 734 895 761 914 q 667 876 707 876 z "},"ϋ":{"ha":836,"x_min":92,"x_max":744,"o":"m 419 -13 q 178 66 264 -13 q 92 287 92 145 l 92 758 l 299 758 l 299 290 q 327 182 299 216 q 418 148 355 148 q 509 181 481 148 q 537 288 537 215 l 537 758 l 744 758 l 744 287 q 658 66 744 145 q 419 -13 573 -13 m 271 881 q 195 900 225 881 q 165 967 165 919 l 165 982 q 195 1053 165 1033 q 271 1073 225 1073 q 347 1053 318 1073 q 376 982 376 1033 l 376 967 q 347 900 376 919 q 271 881 317 881 m 564 881 q 489 900 518 881 q 460 967 460 919 l 460 982 q 489 1053 460 1033 q 564 1073 518 1073 q 641 1053 612 1073 q 670 982 670 1033 l 670 967 q 641 900 670 919 q 564 881 611 881 z "},"ύ":{"ha":836,"x_min":92,"x_max":744,"o":"m 419 -13 q 178 66 264 -13 q 92 287 92 145 l 92 758 l 299 758 l 299 290 q 327 182 299 216 q 418 148 355 148 q 509 181 481 148 q 537 288 537 215 l 537 758 l 744 758 l 744 287 q 658 66 744 145 q 419 -13 573 -13 m 306 884 l 365 1136 l 620 1136 l 436 884 l 306 884 z "},"φ":{"ha":836,"x_min":61,"x_max":775,"o":"m 503 -253 l 340 -253 l 340 -6 q 134 112 208 15 q 61 370 61 208 l 61 465 q 74 638 61 559 q 116 771 87 717 l 282 731 q 245 616 259 684 q 231 465 231 547 l 231 370 q 259 213 231 268 q 352 141 288 158 l 352 758 l 461 758 q 691 665 606 758 q 775 404 775 573 l 775 331 q 702 102 775 189 q 503 -5 629 15 l 503 -253 m 490 610 l 490 141 q 592 200 562 154 q 622 331 622 246 l 622 404 q 590 561 622 511 q 490 610 557 610 z "},"χ":{"ha":836,"x_min":66,"x_max":770,"o":"m 535 -253 l 405 38 l 270 -253 l 66 -253 l 313 247 l 86 758 l 293 758 l 426 461 l 566 758 l 770 758 l 518 253 l 745 -253 l 535 -253 z "},"ψ":{"ha":836,"x_min":61,"x_max":775,"o":"m 503 -253 l 333 -253 l 333 -15 q 128 88 196 5 q 61 307 61 170 l 61 758 l 232 758 l 232 321 q 258 196 232 241 q 342 139 284 152 l 342 758 l 494 758 l 494 139 q 578 196 553 152 q 604 321 604 241 l 604 758 l 775 758 l 775 307 q 708 88 775 170 q 503 -15 640 5 l 503 -253 z "},"ω":{"ha":836,"x_min":61,"x_max":775,"o":"m 236 -13 q 109 68 157 -13 q 61 304 61 149 l 61 467 q 75 642 61 562 q 115 779 90 722 l 280 739 q 246 606 260 677 q 232 467 232 535 l 232 295 q 246 185 232 222 q 285 148 260 148 q 328 174 314 148 q 342 259 342 199 l 342 566 l 494 566 l 494 259 q 508 174 494 199 q 551 148 523 148 q 591 185 578 148 q 604 295 604 222 l 604 467 q 589 606 604 535 q 556 739 574 677 l 722 779 q 761 642 746 722 q 775 467 775 562 l 775 304 q 727 68 775 149 q 596 -13 678 -13 q 497 23 540 -13 q 432 149 453 59 l 400 149 q 340 23 385 58 q 236 -13 295 -13 z "},"ώ":{"ha":836,"x_min":61,"x_max":775,"o":"m 236 -13 q 109 68 157 -13 q 61 304 61 149 l 61 467 q 75 642 61 562 q 115 779 90 722 l 280 739 q 246 606 260 677 q 232 467 232 535 l 232 295 q 246 185 232 222 q 285 148 260 148 q 328 174 314 148 q 342 259 342 199 l 342 566 l 494 566 l 494 259 q 508 174 494 199 q 551 148 523 148 q 591 185 578 148 q 604 295 604 222 l 604 467 q 589 606 604 535 q 556 739 574 677 l 722 779 q 761 642 746 722 q 775 467 775 562 l 775 304 q 727 68 775 149 q 596 -13 678 -13 q 497 23 540 -13 q 432 149 453 59 l 400 149 q 340 23 385 58 q 236 -13 295 -13 m 322 884 l 381 1136 l 636 1136 l 452 884 l 322 884 z "},"а":{"ha":836,"x_min":66,"x_max":798,"o":"m 342 122 q 420 137 384 122 q 487 181 456 152 l 487 308 l 336 308 q 276 288 297 308 q 255 212 255 268 q 275 146 255 169 q 342 122 295 122 m 290 -13 q 129 45 192 -13 q 66 206 66 104 q 133 366 66 311 q 311 422 201 422 l 487 422 l 487 520 q 460 598 487 574 q 376 622 432 622 q 292 598 319 622 q 253 508 265 574 l 83 538 q 177 717 107 663 q 383 770 246 770 q 608 711 529 770 q 687 528 687 653 l 687 223 q 715 156 687 169 q 798 152 744 143 l 798 3 q 646 8 706 -18 q 566 114 586 33 l 534 114 q 434 25 499 62 q 290 -13 370 -13 z "},"б":{"ha":836,"x_min":91,"x_max":745,"o":"m 418 -13 q 177 65 264 -13 q 91 302 91 143 l 91 592 q 172 879 91 783 q 414 995 253 975 l 686 1029 l 703 867 l 447 833 q 329 775 367 821 q 289 636 290 730 l 288 571 l 314 571 q 389 652 341 622 q 511 682 437 682 q 680 615 615 682 q 745 434 745 548 l 745 278 q 658 61 745 134 q 418 -13 572 -13 m 417 140 q 508 172 481 140 q 535 268 535 203 l 535 413 q 508 499 535 471 q 417 528 481 528 q 326 499 352 528 q 299 413 299 471 l 299 268 q 326 172 299 203 q 417 140 352 140 z "},"в":{"ha":836,"x_min":92,"x_max":765,"o":"m 92 0 l 92 758 l 418 758 q 659 713 573 758 q 745 569 745 669 l 745 543 q 702 445 745 481 q 585 404 659 409 l 585 376 q 720 326 676 370 q 765 220 765 282 l 765 199 q 686 51 765 101 q 418 0 606 0 l 92 0 m 290 451 l 428 451 q 519 467 492 451 q 545 527 545 482 l 545 544 q 521 607 545 588 q 428 625 496 625 l 290 625 l 290 451 m 290 141 l 428 141 q 537 164 506 141 q 567 234 567 187 l 567 246 q 538 314 567 293 q 428 335 509 335 l 290 335 l 290 141 z "},"г":{"ha":836,"x_min":140,"x_max":729,"o":"m 140 0 l 140 758 l 729 758 l 729 597 l 348 597 l 348 0 l 140 0 z "},"ѓ":{"ha":836,"x_min":140,"x_max":729,"o":"m 140 0 l 140 758 l 729 758 l 729 597 l 348 597 l 348 0 l 140 0 m 290 884 l 420 1136 l 686 1136 l 432 884 l 290 884 z "},"д":{"ha":836,"x_min":40,"x_max":795,"o":"m 304 189 l 304 160 l 509 160 l 509 597 l 355 597 l 352 360 q 338 264 351 304 q 304 189 326 223 m 230 0 l 230 -189 l 40 -189 l 40 160 l 114 160 q 152 227 139 181 q 167 365 165 274 l 173 758 l 698 758 l 698 160 l 795 160 l 795 -189 l 606 -189 l 606 0 l 230 0 z "},"е":{"ha":836,"x_min":92,"x_max":755,"o":"m 755 174 q 643 30 716 72 q 424 -13 571 -13 q 185 59 278 -13 q 92 269 92 130 l 92 490 q 181 697 92 624 q 419 770 269 770 q 657 696 571 770 q 744 482 744 621 l 744 338 l 299 338 l 299 258 q 330 160 299 193 q 431 126 360 126 q 524 146 489 126 q 581 221 559 167 l 755 174 m 299 505 l 299 452 l 537 452 l 537 496 q 510 604 537 572 q 418 636 484 636 q 326 606 352 636 q 299 505 299 576 z "},"ѐ":{"ha":836,"x_min":92,"x_max":755,"o":"m 755 174 q 643 30 716 72 q 424 -13 571 -13 q 185 59 278 -13 q 92 269 92 130 l 92 490 q 181 697 92 624 q 419 770 269 770 q 657 696 571 770 q 744 482 744 621 l 744 338 l 299 338 l 299 258 q 330 160 299 193 q 431 126 360 126 q 524 146 489 126 q 581 221 559 167 l 755 174 m 299 505 l 299 452 l 537 452 l 537 496 q 510 604 537 572 q 418 636 484 636 q 326 606 352 636 q 299 505 299 576 m 405 884 l 153 1136 l 418 1136 l 548 884 l 405 884 z "},"ё":{"ha":836,"x_min":92,"x_max":755,"o":"m 755 174 q 643 30 716 72 q 424 -13 571 -13 q 185 59 278 -13 q 92 269 92 130 l 92 490 q 181 697 92 624 q 419 770 269 770 q 657 696 571 770 q 744 482 744 621 l 744 338 l 299 338 l 299 258 q 330 160 299 193 q 431 126 360 126 q 524 146 489 126 q 581 221 559 167 l 755 174 m 299 505 l 299 452 l 537 452 l 537 496 q 510 604 537 572 q 418 636 484 636 q 326 606 352 636 q 299 505 299 576 m 271 881 q 195 900 225 881 q 165 967 165 919 l 165 982 q 195 1053 165 1033 q 271 1073 225 1073 q 347 1053 318 1073 q 376 982 376 1033 l 376 967 q 347 900 376 919 q 271 881 317 881 m 564 881 q 489 900 518 881 q 460 967 460 919 l 460 982 q 489 1053 460 1033 q 564 1073 518 1073 q 641 1053 612 1073 q 670 982 670 1033 l 670 967 q 641 900 670 919 q 564 881 611 881 z "},"ж":{"ha":836,"x_min":15,"x_max":817,"o":"m 295 333 l 188 0 l 19 0 l 176 419 l 15 758 l 187 758 l 309 465 l 343 465 l 343 758 l 494 758 l 494 465 l 524 465 l 641 758 l 817 758 l 659 419 l 817 0 l 644 0 l 537 333 l 494 333 l 494 0 l 343 0 l 343 333 l 295 333 z "},"з":{"ha":836,"x_min":87,"x_max":765,"o":"m 422 -13 q 176 49 255 -13 q 87 245 96 110 l 275 254 q 315 147 284 174 q 422 120 346 120 q 531 148 504 120 q 558 230 558 176 l 558 242 q 532 316 558 293 q 422 340 505 340 l 366 340 l 366 456 l 422 456 q 510 472 484 456 q 537 537 537 489 l 537 554 q 511 619 537 601 q 422 638 486 638 q 330 613 357 638 q 295 518 303 588 l 107 528 q 192 713 116 655 q 422 770 268 770 q 665 722 586 770 q 745 569 745 674 l 745 544 q 702 447 745 482 q 585 407 659 412 l 585 379 q 720 328 676 372 q 765 222 765 283 l 765 202 q 684 40 765 92 q 422 -13 602 -13 z "},"и":{"ha":836,"x_min":92,"x_max":744,"o":"m 566 0 l 566 511 l 309 0 l 92 0 l 92 758 l 270 758 l 270 216 l 542 758 l 744 758 l 744 0 l 566 0 z "},"й":{"ha":836,"x_min":92,"x_max":744,"o":"m 566 0 l 566 511 l 309 0 l 92 0 l 92 758 l 270 758 l 270 216 l 542 758 l 744 758 l 744 0 l 566 0 m 418 875 q 209 939 293 875 q 126 1150 125 1004 l 307 1163 q 330 1042 306 1078 q 418 1006 354 1006 q 506 1042 482 1006 q 529 1163 530 1078 l 710 1150 q 627 939 711 1004 q 418 875 543 875 z "},"ѝ":{"ha":836,"x_min":92,"x_max":744,"o":"m 566 0 l 566 511 l 309 0 l 92 0 l 92 758 l 270 758 l 270 216 l 542 758 l 744 758 l 744 0 l 566 0 m 419 884 l 167 1136 l 432 1136 l 562 884 l 419 884 z "},"к":{"ha":836,"x_min":112,"x_max":771,"o":"m 321 323 l 321 0 l 112 0 l 112 758 l 321 758 l 321 465 l 366 465 l 553 758 l 771 758 l 538 413 l 768 0 l 545 0 l 366 323 l 321 323 z "},"ќ":{"ha":836,"x_min":112,"x_max":771,"o":"m 321 323 l 321 0 l 112 0 l 112 758 l 321 758 l 321 465 l 366 465 l 553 758 l 771 758 l 538 413 l 768 0 l 545 0 l 366 323 l 321 323 m 341 884 l 471 1136 l 736 1136 l 482 884 l 341 884 z "},"л":{"ha":836,"x_min":20,"x_max":754,"o":"m 545 0 l 545 605 l 369 605 l 366 290 q 307 59 365 134 q 135 -15 250 -15 q 78 -9 107 -15 q 20 4 49 -4 l 43 157 q 73 148 59 152 q 98 144 86 144 q 152 179 134 144 q 170 306 169 215 l 176 758 l 754 758 l 754 0 l 545 0 z "},"м":{"ha":836,"x_min":80,"x_max":756,"o":"m 348 189 l 237 505 l 258 0 l 80 0 l 80 758 l 287 758 l 422 371 l 554 758 l 756 758 l 756 0 l 578 0 l 597 500 l 490 189 l 348 189 z "},"н":{"ha":836,"x_min":92,"x_max":744,"o":"m 92 0 l 92 758 l 299 758 l 299 500 l 537 500 l 537 758 l 744 758 l 744 0 l 537 0 l 537 340 l 299 340 l 299 0 l 92 0 z "},"о":{"ha":836,"x_min":92,"x_max":745,"o":"m 418 -13 q 178 61 264 -13 q 92 265 92 134 l 92 487 q 179 695 92 620 q 419 770 265 770 q 659 694 573 770 q 745 484 745 619 l 745 261 q 658 60 745 133 q 418 -13 572 -13 m 418 140 q 508 172 480 140 q 537 274 537 203 l 537 480 q 508 585 537 552 q 418 617 480 617 q 328 585 356 617 q 299 481 299 553 l 299 278 q 328 173 299 206 q 418 140 356 140 z "},"п":{"ha":836,"x_min":92,"x_max":744,"o":"m 92 0 l 92 758 l 744 758 l 744 0 l 537 0 l 537 597 l 299 597 l 299 0 l 92 0 z "},"р":{"ha":836,"x_min":92,"x_max":744,"o":"m 420 141 q 508 172 480 141 q 537 270 537 202 l 537 489 q 512 579 537 551 q 443 607 487 607 q 370 588 405 607 q 299 527 335 568 l 299 179 q 358 151 331 160 q 420 141 385 141 m 455 -10 q 374 -2 414 -10 q 299 21 333 6 l 299 -253 l 92 -253 l 92 758 l 299 758 l 299 631 l 335 631 q 413 733 359 696 q 539 770 467 770 q 689 703 635 770 q 744 519 744 636 l 744 268 q 666 65 744 140 q 455 -10 588 -10 z "},"с":{"ha":836,"x_min":92,"x_max":747,"o":"m 429 -13 q 179 61 265 -13 q 92 274 92 135 l 92 485 q 179 696 92 622 q 428 770 266 770 q 656 700 580 770 q 747 495 732 630 l 547 480 q 513 586 542 556 q 423 617 485 617 q 328 585 357 617 q 299 475 299 553 l 299 282 q 328 172 299 205 q 426 140 357 140 q 515 165 487 140 q 547 253 543 189 l 747 237 q 667 51 740 114 q 429 -13 595 -13 z "},"т":{"ha":836,"x_min":76,"x_max":761,"o":"m 314 0 l 314 597 l 76 597 l 76 758 l 761 758 l 761 597 l 521 597 l 521 0 l 314 0 z "},"у":{"ha":836,"x_min":52,"x_max":783,"o":"m 234 -265 q 154 -261 196 -265 q 66 -250 112 -258 l 78 -98 q 158 -112 122 -107 q 221 -116 193 -116 q 322 -86 287 -116 q 378 20 357 -56 l 381 32 l 254 32 l 52 758 l 265 758 l 418 168 l 578 758 l 783 758 l 561 1 q 441 -204 518 -143 q 234 -265 365 -265 z "},"ў":{"ha":836,"x_min":52,"x_max":783,"o":"m 234 -265 q 154 -261 196 -265 q 66 -250 112 -258 l 78 -98 q 158 -112 122 -107 q 221 -116 193 -116 q 322 -86 287 -116 q 378 20 357 -56 l 381 32 l 254 32 l 52 758 l 265 758 l 418 168 l 578 758 l 783 758 l 561 1 q 441 -204 518 -143 q 234 -265 365 -265 m 418 875 q 209 939 293 875 q 126 1150 125 1004 l 307 1163 q 330 1042 306 1078 q 418 1006 354 1006 q 506 1042 482 1006 q 529 1163 530 1078 l 710 1150 q 627 939 711 1004 q 418 875 543 875 z "},"ф":{"ha":836,"x_min":61,"x_max":775,"o":"m 533 0 l 503 0 l 503 -253 l 333 -253 l 333 0 l 303 0 q 125 70 189 0 q 61 265 61 140 l 61 494 q 125 688 61 619 q 303 758 189 758 l 333 758 l 333 1010 l 503 1010 l 503 758 l 533 758 q 711 688 646 758 q 775 494 775 619 l 775 265 q 711 70 775 140 q 533 0 646 0 m 323 133 l 348 133 l 348 624 l 323 624 q 255 592 282 624 q 229 489 229 559 l 229 268 q 255 165 229 197 q 323 133 282 133 m 513 624 l 487 624 l 487 133 l 513 133 q 581 165 556 133 q 607 268 607 197 l 607 489 q 581 592 607 559 q 513 624 556 624 z "},"х":{"ha":836,"x_min":66,"x_max":768,"o":"m 556 0 l 408 235 l 274 0 l 66 0 l 316 385 l 83 758 l 293 758 l 424 548 l 544 758 l 751 758 l 520 394 l 768 0 l 556 0 z "},"ц":{"ha":836,"x_min":92,"x_max":807,"o":"m 610 -189 l 610 0 l 92 0 l 92 758 l 299 758 l 299 160 l 511 160 l 511 758 l 718 758 l 718 160 l 807 160 l 807 -189 l 610 -189 z "},"ч":{"ha":836,"x_min":78,"x_max":723,"o":"m 723 758 l 723 0 l 515 0 l 515 237 q 457 224 490 230 q 378 218 424 218 q 153 292 229 218 q 78 513 78 366 l 78 758 l 285 758 l 285 515 q 316 407 285 438 q 405 376 347 376 q 465 382 437 375 q 515 398 494 389 l 515 758 l 723 758 z "},"ш":{"ha":836,"x_min":61,"x_max":775,"o":"m 61 0 l 61 758 l 229 758 l 229 149 l 335 149 l 335 758 l 501 758 l 501 149 l 607 149 l 607 758 l 775 758 l 775 0 l 61 0 z "},"щ":{"ha":836,"x_min":61,"x_max":822,"o":"m 822 -189 l 655 -189 l 655 0 l 61 0 l 61 758 l 229 758 l 229 149 l 335 149 l 335 758 l 501 758 l 501 149 l 607 149 l 607 758 l 775 758 l 775 152 l 822 152 l 822 -189 z "},"ъ":{"ha":836,"x_min":13,"x_max":788,"o":"m 510 0 l 187 0 l 187 597 l 13 597 l 13 758 l 394 758 l 394 534 l 511 534 q 715 472 641 534 q 788 298 788 409 l 788 234 q 715 62 788 124 q 510 0 641 0 m 394 153 l 479 153 q 556 174 532 153 q 581 245 581 196 l 581 297 q 556 366 581 346 q 479 385 532 385 l 394 385 l 394 153 z "},"ы":{"ha":836,"x_min":66,"x_max":770,"o":"m 66 0 l 66 758 l 237 758 l 237 551 l 283 551 q 459 494 396 551 q 521 337 521 438 l 521 226 q 458 59 521 119 q 282 0 395 0 l 66 0 m 598 0 l 598 758 l 770 758 l 770 0 l 598 0 m 237 143 l 275 143 q 342 165 321 143 q 364 241 364 187 l 364 317 q 342 390 364 369 q 275 410 321 410 l 237 410 l 237 143 z "},"ь":{"ha":836,"x_min":86,"x_max":764,"o":"m 86 0 l 86 758 l 293 758 l 293 534 l 468 534 q 686 472 607 534 q 764 295 764 409 l 764 236 q 686 62 764 124 q 467 0 607 0 l 86 0 m 293 153 l 433 153 q 526 173 496 153 q 556 244 556 193 l 556 290 q 526 363 556 341 q 433 385 496 385 l 293 385 l 293 153 z "},"э":{"ha":836,"x_min":78,"x_max":744,"o":"m 404 -13 q 166 48 245 -13 q 78 236 87 109 l 280 251 q 310 155 285 183 q 407 128 335 128 q 508 161 479 128 q 537 270 537 194 l 537 330 l 338 330 l 338 453 l 537 453 l 537 491 q 508 597 537 564 q 409 629 480 629 q 314 603 342 629 q 280 510 285 577 l 78 525 q 172 711 92 652 q 405 770 251 770 q 655 698 566 770 q 744 485 744 625 l 744 275 q 657 62 744 136 q 404 -13 569 -13 z "},"ю":{"ha":836,"x_min":58,"x_max":778,"o":"m 547 -13 q 376 53 433 -13 q 318 234 318 119 l 318 343 l 231 343 l 231 0 l 58 0 l 58 758 l 231 758 l 231 487 l 318 487 l 318 519 q 376 703 318 636 q 548 770 434 770 q 720 703 663 770 q 778 519 778 636 l 778 234 q 720 54 778 120 q 547 -13 662 -13 m 547 133 q 594 157 581 133 q 607 234 607 182 l 607 519 q 594 599 607 573 q 547 625 581 625 q 499 599 511 625 q 486 519 486 573 l 486 234 q 499 157 486 182 q 547 133 511 133 z "},"я":{"ha":836,"x_min":81,"x_max":744,"o":"m 400 385 l 537 385 l 537 612 l 400 612 q 338 592 357 612 q 318 515 318 572 l 318 487 q 338 407 318 428 q 400 385 357 385 m 537 242 l 461 242 l 306 0 l 81 0 l 250 263 q 146 340 182 284 q 110 484 110 396 l 110 519 q 172 696 110 634 q 352 758 235 758 l 744 758 l 744 0 l 537 0 l 537 242 z "},"ђ":{"ha":836,"x_min":-24,"x_max":744,"o":"m 465 -264 q 386 -256 426 -264 q 308 -236 347 -249 l 331 -91 q 390 -109 362 -102 q 439 -116 417 -116 q 511 -87 485 -116 q 537 9 537 -58 l 537 419 q 515 501 537 473 q 452 529 492 529 q 373 501 413 529 q 299 423 333 473 l 299 0 l 92 0 l 92 773 l -24 773 l -24 889 l 92 889 l 92 1010 l 299 1010 l 299 889 l 494 889 l 494 773 l 299 773 l 299 553 l 335 553 q 416 655 361 617 q 543 692 471 692 q 688 633 633 692 q 744 471 744 573 l 744 -10 q 662 -201 744 -138 q 465 -264 580 -264 z "},"є":{"ha":836,"x_min":92,"x_max":758,"o":"m 758 236 q 670 48 749 109 q 434 -13 592 -13 q 180 62 268 -13 q 92 275 92 136 l 92 485 q 182 698 92 625 q 433 770 273 770 q 665 711 587 770 q 758 525 744 652 l 557 510 q 523 602 552 576 q 427 629 494 629 q 329 597 359 629 q 299 491 299 566 l 299 449 l 519 449 l 519 333 l 299 333 l 299 270 q 329 162 299 194 q 429 129 359 129 q 525 156 499 129 q 557 251 552 183 l 758 236 z "},"ѕ":{"ha":836,"x_min":85,"x_max":745,"o":"m 415 -10 q 237 16 324 -10 q 85 86 149 42 l 136 217 q 277 152 201 176 q 418 129 354 129 q 507 147 476 129 q 538 208 538 165 q 507 271 538 253 q 393 307 476 290 q 178 381 249 332 q 107 533 107 429 q 190 706 107 643 q 407 770 273 770 q 564 746 486 770 q 703 683 641 722 l 660 557 q 537 612 598 592 q 418 633 475 633 q 341 614 369 633 q 313 556 313 596 q 350 494 313 513 q 486 456 388 476 q 683 379 621 432 q 745 230 745 327 q 657 54 745 119 q 415 -10 568 -10 z "},"і":{"ha":836,"x_min":101,"x_max":735,"o":"m 101 0 l 101 153 l 314 153 l 314 605 l 101 605 l 101 758 l 521 758 l 521 153 l 735 153 l 735 0 l 101 0 m 428 881 q 328 900 366 881 q 290 967 290 919 l 290 982 q 328 1053 290 1033 q 428 1073 366 1073 q 528 1053 490 1073 q 566 982 566 1033 l 566 967 q 527 900 566 919 q 428 881 489 881 z "},"ї":{"ha":836,"x_min":101,"x_max":735,"o":"m 101 0 l 101 153 l 314 153 l 314 605 l 101 605 l 101 758 l 521 758 l 521 153 l 735 153 l 735 0 l 101 0 m 271 881 q 195 900 225 881 q 165 967 165 919 l 165 982 q 195 1053 165 1033 q 271 1073 225 1073 q 347 1053 318 1073 q 376 982 376 1033 l 376 967 q 347 900 376 919 q 271 881 317 881 m 564 881 q 489 900 518 881 q 460 967 460 919 l 460 982 q 489 1053 460 1033 q 564 1073 518 1073 q 641 1053 612 1073 q 670 982 670 1033 l 670 967 q 641 900 670 919 q 564 881 611 881 z "},"ј":{"ha":836,"x_min":83,"x_max":653,"o":"m 293 -264 q 188 -258 241 -264 q 83 -236 134 -253 l 107 -91 q 193 -112 153 -107 q 269 -116 234 -116 q 380 -86 340 -116 q 420 15 420 -56 l 420 605 l 125 605 l 125 758 l 629 758 l 629 -5 q 537 -196 629 -128 q 293 -264 444 -264 m 515 881 q 415 900 453 881 q 378 967 378 919 l 378 982 q 415 1053 378 1033 q 515 1073 453 1073 q 615 1053 577 1073 q 653 982 653 1033 l 653 967 q 614 900 653 919 q 515 881 576 881 z "},"љ":{"ha":836,"x_min":-4,"x_max":778,"o":"m 259 621 l 255 168 q 208 37 254 82 q 82 -8 162 -8 q 40 -4 62 -8 q -4 5 18 -1 l 19 154 q 36 148 28 150 q 53 146 44 146 q 83 160 71 146 q 97 212 96 173 l 104 758 l 513 758 l 513 534 l 585 534 q 727 479 676 534 q 778 324 778 424 l 778 226 q 727 59 778 119 q 583 0 676 0 l 352 0 l 352 621 l 259 621 m 513 135 l 552 135 q 602 159 587 135 q 617 239 617 183 l 617 311 q 602 381 617 360 q 552 402 587 402 l 513 402 l 513 135 z "},"њ":{"ha":836,"x_min":62,"x_max":775,"o":"m 510 135 l 549 135 q 600 157 585 135 q 615 229 615 178 l 615 323 q 600 396 615 374 q 549 418 585 418 l 510 418 l 510 135 m 222 365 l 222 0 l 62 0 l 62 758 l 222 758 l 222 508 l 350 508 l 350 758 l 510 758 l 510 551 l 583 551 q 725 496 674 551 q 775 345 775 442 l 775 213 q 724 56 775 112 q 582 0 673 0 l 350 0 l 350 365 l 222 365 z "},"ћ":{"ha":836,"x_min":-24,"x_max":744,"o":"m 299 418 l 299 0 l 92 0 l 92 773 l -24 773 l -24 889 l 92 889 l 92 1010 l 299 1010 l 299 889 l 494 889 l 494 773 l 299 773 l 299 552 l 335 552 q 415 655 360 617 q 543 692 471 692 q 689 631 634 692 q 744 470 744 571 l 744 0 l 537 0 l 537 415 q 515 500 537 471 q 453 529 494 529 q 374 500 414 529 q 299 418 335 471 z "},"џ":{"ha":836,"x_min":92,"x_max":744,"o":"m 319 -189 l 319 0 l 92 0 l 92 758 l 299 758 l 299 160 l 537 160 l 537 758 l 744 758 l 744 0 l 516 0 l 516 -189 l 319 -189 z "},"ґ":{"ha":836,"x_min":140,"x_max":729,"o":"m 140 0 l 140 758 l 532 758 l 532 947 l 729 947 l 729 597 l 348 597 l 348 0 l 140 0 z "},"ⁿ":{"ha":836,"x_min":140,"x_max":696,"o":"m 140 380 l 140 1011 l 317 1011 l 317 909 l 350 909 q 379 958 361 937 q 419 995 396 980 q 468 1016 442 1009 q 523 1023 494 1023 q 594 1007 562 1023 q 649 960 626 991 q 684 885 672 929 q 696 784 696 841 l 696 380 l 519 380 l 519 773 q 515 821 519 799 q 500 856 510 842 q 479 877 491 870 q 451 884 466 884 q 415 877 433 884 q 381 856 398 870 q 348 824 365 842 q 317 783 332 806 l 317 380 l 140 380 z "},"̀":{"ha":0,"x_min":-270,"x_max":125,"o":"m -18 884 l -270 1136 l -5 1136 l 125 884 l -18 884 z "},"́":{"ha":0,"x_min":-150,"x_max":245,"o":"m -150 884 l -20 1136 l 245 1136 l -9 884 l -150 884 z "},"̂":{"ha":0,"x_min":-292,"x_max":292,"o":"m -225 875 l -292 970 l -80 1165 l 77 1165 l 292 970 l 225 875 l -1 1013 l -225 875 z "},"̃":{"ha":0,"x_min":-282,"x_max":283,"o":"m 106 896 q 26 915 56 896 q -24 961 -4 934 q -60 1005 -44 985 q -97 1025 -76 1025 q -133 1005 -117 1025 q -146 927 -148 985 l -146 909 l -282 909 l -282 928 q -234 1097 -282 1030 q -104 1164 -187 1164 q -23 1145 -53 1164 q 28 1100 6 1126 q 63 1056 48 1076 q 98 1035 78 1035 q 134 1056 119 1035 q 148 1134 149 1076 l 148 1152 l 283 1152 l 283 1133 q 236 963 283 1030 q 106 896 189 896 z "},"̄":{"ha":0,"x_min":-255,"x_max":255,"o":"m -255 931 l -255 1090 l 255 1090 l 255 931 l -255 931 z "},"̆":{"ha":0,"x_min":-301,"x_max":301,"o":"m 0 875 q -223 945 -146 875 q -301 1163 -299 1015 l -130 1163 q -99 1040 -129 1074 q 0 1006 -69 1006 q 99 1040 69 1006 q 130 1163 129 1074 l 301 1163 q 223 945 299 1015 q 0 875 146 875 z "},"̇":{"ha":0,"x_min":-138,"x_max":138,"o":"m 0 881 q -100 900 -62 881 q -138 967 -138 919 l -138 982 q -100 1053 -138 1033 q 0 1073 -62 1073 q 100 1053 62 1073 q 138 982 138 1033 l 138 967 q 99 900 138 919 q 0 881 61 881 z "},"̈":{"ha":0,"x_min":-253,"x_max":253,"o":"m -146 881 q -223 900 -193 881 q -253 967 -253 919 l -253 982 q -223 1053 -253 1033 q -146 1073 -193 1073 q -71 1053 -100 1073 q -42 982 -42 1033 l -42 967 q -71 900 -42 919 q -146 881 -101 881 m 146 881 q 71 900 100 881 q 42 967 42 919 l 42 982 q 71 1053 42 1033 q 146 1073 100 1073 q 223 1053 194 1073 q 253 982 253 1033 l 253 967 q 223 900 253 919 q 146 881 193 881 z "},"̊":{"ha":0,"x_min":-231,"x_max":231,"o":"m 0 857 q -167 904 -104 857 q -231 1048 -231 951 l -231 1088 q -167 1235 -231 1187 q 0 1283 -104 1283 q 168 1235 105 1283 q 231 1088 231 1187 l 231 1048 q 167 904 231 951 q 0 857 104 857 m 0 962 q 64 982 42 962 q 86 1048 86 1001 l 86 1088 q 64 1157 86 1135 q 0 1178 42 1178 q -64 1157 -43 1178 q -86 1088 -86 1135 l -86 1048 q -64 982 -86 1001 q 0 962 -43 962 z "},"̋":{"ha":0,"x_min":-215,"x_max":316,"o":"m 52 884 l 107 1136 l 316 1136 l 162 884 l 52 884 m -215 884 l -159 1136 l 49 1136 l -105 884 l -215 884 z "},"̌":{"ha":0,"x_min":-292,"x_max":292,"o":"m -77 889 l -292 1085 l -225 1179 l 1 1043 l 225 1179 l 292 1085 l 80 889 l -77 889 z "},"̒":{"ha":0,"x_min":-173,"x_max":176,"o":"m -173 884 l 34 1136 l 176 1136 l 92 884 l -173 884 z "},"̦":{"ha":0,"x_min":-183,"x_max":167,"o":"m -183 -379 l -98 -126 l 167 -126 l -40 -379 l -183 -379 z "},"̧":{"ha":0,"x_min":-279,"x_max":197,"o":"m -35 0 l -11 53 q 140 4 82 42 q 197 -112 197 -33 q 128 -240 197 -199 q -37 -280 58 -280 q -208 -243 -143 -280 q -279 -124 -274 -206 l -104 -111 q -88 -145 -101 -135 q -45 -154 -74 -154 q 3 -140 -14 -154 q 19 -82 19 -125 q 8 -27 19 -45 q -35 0 -4 -9 z "},"̨":{"ha":0,"x_min":-174,"x_max":170,"o":"m 28 -279 q -120 -238 -66 -279 q -174 -121 -174 -197 q -119 6 -174 -49 q 4 82 -64 61 l 35 29 q -13 -21 -3 5 q -24 -74 -24 -48 q -3 -125 -24 -109 q 62 -141 18 -141 q 110 -138 82 -141 q 170 -129 139 -134 l 170 -263 q 96 -275 133 -271 q 28 -279 59 -279 z "},"¼":{"ha":836,"x_min":13,"x_max":823,"o":"m 205 519 l 205 624 l 362 624 l 362 878 l 340 878 q 321 831 335 852 q 289 794 308 809 q 246 770 269 779 q 197 760 222 761 l 191 878 q 243 891 217 881 q 293 919 269 902 q 336 962 317 937 q 365 1019 355 987 l 523 1019 l 523 624 l 667 624 l 667 519 l 205 519 m 13 311 l 13 461 l 381 436 l 381 336 l 13 311 m 471 336 l 471 436 l 823 461 l 823 311 l 471 336 m 711 -143 l 602 -143 l 602 -265 l 442 -265 l 442 -143 l 148 -143 l 148 -32 l 410 273 l 602 273 l 602 -32 l 711 -32 l 711 -143 m 273 -32 l 442 -32 l 442 163 l 273 -32 z "},"½":{"ha":836,"x_min":13,"x_max":823,"o":"m 205 519 l 205 624 l 362 624 l 362 878 l 340 878 q 321 831 335 852 q 289 794 308 809 q 246 770 269 779 q 197 760 222 761 l 191 878 q 242 891 216 881 q 293 919 269 902 q 336 961 317 936 q 365 1019 355 986 l 523 1019 l 523 624 l 667 624 l 667 519 l 205 519 m 13 311 l 13 461 l 381 436 l 381 336 l 13 311 m 471 336 l 471 436 l 823 461 l 823 311 l 471 336 m 158 -265 l 158 -148 q 165 -90 158 -116 q 189 -44 173 -64 q 232 -8 206 -23 q 293 15 258 8 l 434 47 q 470 56 457 52 q 492 67 484 61 q 506 82 501 73 q 510 104 510 91 l 510 116 q 503 139 510 130 q 484 154 496 148 q 455 162 472 159 q 417 164 438 164 q 379 161 395 164 q 352 152 364 158 q 334 130 341 144 q 326 96 327 116 l 164 105 q 182 177 167 146 q 227 227 197 207 q 304 258 258 247 q 417 268 351 268 q 530 258 482 268 q 609 229 578 247 q 655 180 640 208 q 670 114 670 152 l 670 83 q 661 33 670 56 q 634 -6 652 10 q 592 -34 616 -23 q 538 -52 568 -45 l 396 -83 q 360 -93 374 -88 q 337 -104 347 -97 q 324 -121 328 -111 q 318 -145 319 -130 l 678 -145 l 678 -265 l 158 -265 z "},"¾":{"ha":836,"x_min":13,"x_max":823,"o":"m 422 510 q 305 520 355 510 q 222 551 255 530 q 170 603 188 572 q 150 676 153 634 l 311 683 q 320 648 313 662 q 338 628 327 635 q 371 616 351 619 q 420 612 390 612 q 465 615 447 612 q 495 624 484 617 q 511 637 506 629 q 516 658 516 645 l 516 677 q 511 699 516 691 q 494 713 505 708 q 462 722 481 720 q 417 725 443 725 l 302 725 l 302 827 l 417 827 q 456 829 441 827 q 482 836 472 831 q 497 850 492 841 q 503 871 503 859 l 503 885 q 497 904 503 896 q 480 915 491 912 q 453 921 470 919 q 410 923 436 923 q 371 920 386 923 q 346 913 355 918 q 331 899 336 908 q 326 876 327 890 l 164 884 q 184 948 167 920 q 231 992 201 975 q 307 1017 263 1009 q 410 1025 351 1025 q 518 1019 471 1025 q 597 999 564 1013 q 646 961 629 985 q 663 907 663 938 l 663 893 q 655 854 663 871 q 633 823 646 836 q 600 802 619 811 q 559 790 581 794 l 559 768 q 602 758 581 765 q 640 737 622 751 q 668 706 658 725 q 678 664 678 687 l 678 652 q 662 588 678 615 q 612 544 645 561 q 533 518 581 527 q 422 510 485 510 m 13 311 l 13 461 l 381 436 l 381 336 l 13 311 m 471 336 l 471 436 l 823 461 l 823 311 l 471 336 m 713 -143 l 606 -143 l 606 -265 l 446 -265 l 446 -143 l 150 -143 l 150 -32 l 413 273 l 606 273 l 606 -32 l 713 -32 l 713 -143 m 275 -32 l 446 -32 l 446 163 l 275 -32 z "},"⅛":{"ha":836,"x_min":13,"x_max":823,"o":"m 202 519 l 202 624 l 360 624 l 360 878 l 337 878 q 319 831 332 852 q 287 794 306 809 q 243 770 266 779 q 194 760 220 761 l 187 878 q 240 891 213 881 q 290 919 266 902 q 333 961 314 936 q 362 1019 352 986 l 520 1019 l 520 624 l 664 624 l 664 519 l 202 519 m 13 311 l 13 461 l 381 436 l 381 336 l 13 311 m 471 336 l 471 436 l 823 461 l 823 311 l 471 336 m 427 -270 q 304 -260 354 -270 q 223 -231 254 -250 q 181 -185 194 -212 q 168 -121 168 -158 l 168 -104 q 176 -62 168 -81 q 199 -29 184 -43 q 237 -6 215 -15 q 289 5 260 3 l 289 28 q 247 37 266 30 q 212 54 227 44 q 190 81 198 66 q 182 114 182 96 l 182 139 q 198 198 182 173 q 245 239 213 223 q 321 263 275 255 q 427 270 367 270 q 533 263 487 270 q 609 240 578 255 q 656 199 640 225 q 672 139 672 174 l 672 114 q 664 81 672 96 q 641 54 657 66 q 608 37 628 44 q 566 28 588 30 l 566 5 q 616 -6 593 3 q 655 -29 639 -15 q 679 -62 670 -43 q 687 -104 687 -81 l 687 -121 q 674 -186 687 -158 q 631 -231 660 -213 q 551 -260 601 -250 q 427 -270 500 -270 m 427 56 q 463 58 447 56 q 490 66 479 61 q 507 79 501 71 q 513 100 513 87 l 513 124 q 507 145 513 136 q 490 158 501 153 q 463 165 479 163 q 427 167 447 167 q 391 165 407 167 q 365 158 376 163 q 348 145 354 153 q 342 124 342 136 l 342 100 q 348 79 342 87 q 365 66 354 71 q 391 58 376 61 q 427 56 407 56 m 427 -168 q 476 -164 457 -168 q 506 -154 495 -160 q 522 -137 518 -146 q 527 -114 527 -128 l 527 -97 q 522 -73 527 -83 q 506 -56 518 -63 q 477 -45 496 -49 q 427 -42 457 -42 q 378 -45 396 -42 q 347 -56 359 -49 q 333 -73 337 -63 q 328 -97 328 -83 l 328 -114 q 333 -137 328 -128 q 347 -154 337 -146 q 378 -164 359 -160 q 427 -168 396 -168 z "},"⅜":{"ha":836,"x_min":13,"x_max":823,"o":"m 422 510 q 306 520 355 510 q 222 551 256 530 q 170 603 188 572 q 150 676 153 634 l 311 683 q 320 648 313 662 q 338 628 327 635 q 371 616 351 619 q 420 612 390 612 q 465 615 447 612 q 495 624 484 617 q 511 637 506 629 q 516 658 516 645 l 516 677 q 511 699 516 691 q 494 713 505 708 q 462 722 481 720 q 417 725 443 725 l 302 725 l 302 827 l 417 827 q 456 829 441 827 q 482 836 472 831 q 497 850 492 841 q 503 871 503 859 l 503 885 q 497 904 503 896 q 480 915 491 912 q 453 921 470 919 q 410 923 436 923 q 371 920 386 923 q 346 913 355 918 q 331 899 336 908 q 326 876 327 890 l 164 884 q 184 951 167 923 q 234 995 202 979 q 309 1018 265 1011 q 410 1025 352 1025 q 514 1020 468 1025 q 593 1000 559 1014 q 645 964 626 987 q 663 907 663 941 l 663 893 q 655 854 663 871 q 633 823 646 836 q 600 802 619 811 q 559 790 581 794 l 559 768 q 602 758 581 765 q 640 737 622 751 q 668 706 658 725 q 678 664 678 687 l 678 652 q 660 584 678 611 q 609 540 643 557 q 529 517 576 524 q 422 510 482 510 m 13 311 l 13 461 l 381 436 l 381 336 l 13 311 m 471 336 l 471 436 l 823 461 l 823 311 l 471 336 m 427 -270 q 304 -260 354 -270 q 223 -231 254 -250 q 181 -185 194 -212 q 168 -121 168 -158 l 168 -104 q 176 -62 168 -81 q 199 -29 184 -43 q 237 -6 215 -15 q 289 5 260 3 l 289 28 q 247 37 266 30 q 212 54 227 44 q 190 81 198 66 q 182 114 182 96 l 182 139 q 198 198 182 173 q 245 239 213 223 q 321 263 275 255 q 427 270 367 270 q 533 263 487 270 q 609 240 578 255 q 656 199 640 225 q 672 139 672 174 l 672 114 q 664 81 672 96 q 641 54 657 66 q 608 37 628 44 q 566 28 588 30 l 566 5 q 616 -6 593 3 q 655 -29 639 -15 q 679 -62 670 -43 q 687 -104 687 -81 l 687 -121 q 674 -186 687 -158 q 631 -231 660 -213 q 551 -260 601 -250 q 427 -270 500 -270 m 427 56 q 463 58 447 56 q 490 66 479 61 q 507 79 501 71 q 513 100 513 87 l 513 124 q 507 145 513 136 q 490 158 501 153 q 463 165 479 163 q 427 167 447 167 q 391 165 407 167 q 365 158 376 163 q 348 145 354 153 q 342 124 342 136 l 342 100 q 348 79 342 87 q 365 66 354 71 q 391 58 376 61 q 427 56 407 56 m 427 -168 q 476 -164 457 -168 q 506 -154 495 -160 q 522 -137 518 -146 q 527 -114 527 -128 l 527 -97 q 522 -73 527 -83 q 506 -56 518 -63 q 477 -45 496 -49 q 427 -42 457 -42 q 378 -45 396 -42 q 347 -56 359 -49 q 333 -73 337 -63 q 328 -97 328 -83 l 328 -114 q 333 -137 328 -128 q 347 -154 337 -146 q 378 -164 359 -160 q 427 -168 396 -168 z "},"⅝":{"ha":836,"x_min":13,"x_max":823,"o":"m 423 504 q 300 513 350 504 q 217 540 250 521 q 169 593 186 561 q 150 672 153 625 l 311 679 q 319 645 313 658 q 340 622 326 631 q 373 611 352 615 q 426 607 394 607 q 473 610 455 607 q 500 621 491 614 q 513 639 510 628 q 516 668 516 650 l 516 689 q 512 713 516 703 q 494 729 508 722 q 455 737 481 734 q 388 740 429 740 l 172 740 l 172 1019 l 658 1019 l 658 915 l 332 915 l 332 843 l 452 843 q 551 835 509 843 q 621 808 593 826 q 664 763 650 790 q 678 699 678 736 l 678 657 q 664 596 678 624 q 619 548 649 568 q 539 515 587 527 q 423 504 490 504 m 13 311 l 13 461 l 381 436 l 381 336 l 13 311 m 471 336 l 471 436 l 823 461 l 823 311 l 471 336 m 427 -270 q 304 -260 354 -270 q 223 -231 254 -250 q 181 -185 194 -212 q 168 -121 168 -158 l 168 -104 q 176 -62 168 -81 q 199 -29 184 -43 q 237 -6 215 -15 q 289 5 260 3 l 289 28 q 247 37 266 30 q 212 56 227 44 q 190 81 198 66 q 182 115 182 96 l 182 140 q 198 199 182 174 q 245 239 213 223 q 322 263 277 255 q 427 270 367 270 q 533 263 487 270 q 609 240 578 255 q 656 199 640 225 q 672 140 672 174 l 672 115 q 664 81 672 96 q 641 56 657 66 q 608 37 628 44 q 566 28 588 30 l 566 5 q 616 -6 593 3 q 655 -29 639 -15 q 679 -62 670 -43 q 687 -104 687 -81 l 687 -121 q 674 -186 687 -158 q 631 -231 660 -213 q 551 -260 601 -250 q 427 -270 500 -270 m 427 56 q 463 58 447 56 q 490 66 479 61 q 507 79 501 71 q 513 100 513 87 l 513 124 q 507 145 513 136 q 490 158 501 153 q 463 165 479 163 q 427 167 447 167 q 391 165 407 167 q 365 158 376 163 q 348 145 354 153 q 342 124 342 136 l 342 100 q 348 79 342 87 q 365 66 354 71 q 391 58 376 61 q 427 56 407 56 m 427 -168 q 476 -164 457 -168 q 506 -154 495 -160 q 522 -137 518 -146 q 527 -114 527 -128 l 527 -97 q 522 -73 527 -83 q 506 -56 518 -63 q 477 -45 496 -49 q 427 -42 457 -42 q 378 -45 396 -42 q 347 -56 359 -49 q 333 -73 337 -63 q 328 -97 328 -83 l 328 -114 q 333 -137 328 -128 q 347 -154 337 -146 q 378 -164 359 -160 q 427 -168 396 -168 z "},"⅞":{"ha":836,"x_min":13,"x_max":823,"o":"m 328 519 q 366 629 345 578 q 413 726 386 681 q 470 814 438 771 q 544 900 503 856 l 184 900 l 184 1019 l 705 1019 l 705 900 q 631 807 664 854 q 573 715 598 761 q 527 619 547 668 q 495 519 508 569 l 328 519 m 13 311 l 13 461 l 381 436 l 381 336 l 13 311 m 471 336 l 471 436 l 823 461 l 823 311 l 471 336 m 427 -270 q 304 -260 354 -270 q 223 -231 254 -250 q 181 -185 194 -212 q 168 -121 168 -158 l 168 -104 q 176 -62 168 -81 q 199 -29 184 -43 q 237 -6 215 -15 q 289 5 260 3 l 289 28 q 247 37 266 30 q 212 54 227 44 q 190 81 198 66 q 182 114 182 96 l 182 139 q 198 198 182 173 q 245 239 213 223 q 321 263 275 255 q 427 270 367 270 q 533 263 487 270 q 609 240 578 255 q 656 199 640 225 q 672 139 672 174 l 672 114 q 664 81 672 96 q 641 54 657 66 q 608 37 628 44 q 566 28 588 30 l 566 5 q 616 -6 593 3 q 655 -29 639 -15 q 679 -62 670 -43 q 687 -104 687 -81 l 687 -121 q 674 -186 687 -158 q 631 -231 660 -213 q 551 -260 601 -250 q 427 -270 500 -270 m 427 56 q 463 58 447 56 q 490 66 479 61 q 507 79 501 71 q 513 100 513 87 l 513 124 q 507 145 513 136 q 490 158 501 153 q 463 165 479 163 q 427 167 447 167 q 391 165 407 167 q 365 158 376 163 q 348 145 354 153 q 342 124 342 136 l 342 100 q 348 79 342 87 q 365 66 354 71 q 391 58 376 61 q 427 56 407 56 m 427 -168 q 476 -164 457 -168 q 506 -154 495 -160 q 522 -137 518 -146 q 527 -114 527 -128 l 527 -97 q 522 -73 527 -83 q 506 -56 518 -63 q 477 -45 496 -49 q 427 -42 457 -42 q 378 -45 396 -42 q 347 -56 359 -49 q 333 -73 337 -63 q 328 -97 328 -83 l 328 -114 q 333 -137 328 -128 q 347 -154 337 -146 q 378 -164 359 -160 q 427 -168 396 -168 z "},"_":{"ha":836,"x_min":85,"x_max":751,"o":"m 85 -253 l 85 -72 l 751 -72 l 751 -253 l 85 -253 z "},"-":{"ha":836,"x_min":85,"x_max":751,"o":"m 85 356 l 85 537 l 751 537 l 751 356 l 85 356 z "},"–":{"ha":836,"x_min":73,"x_max":763,"o":"m 73 356 l 73 537 l 763 537 l 763 356 l 73 356 z "},"—":{"ha":836,"x_min":13,"x_max":823,"o":"m 13 356 l 13 537 l 823 537 l 823 356 l 13 356 z "},"―":{"ha":836,"x_min":13,"x_max":823,"o":"m 13 356 l 13 537 l 823 537 l 823 356 l 13 356 z "},"(":{"ha":836,"x_min":198,"x_max":698,"o":"m 678 -265 q 311 -47 424 -220 q 198 379 198 126 q 311 802 198 626 q 678 1023 424 977 l 698 884 q 471 711 535 838 q 407 379 407 585 q 471 50 407 174 q 698 -120 535 -74 l 678 -265 z "},")":{"ha":836,"x_min":139,"x_max":638,"o":"m 159 -265 l 139 -120 q 366 52 301 -74 q 431 379 431 178 q 366 706 431 574 q 139 884 301 838 l 159 1023 q 525 802 413 977 q 638 379 638 626 q 525 -47 638 126 q 159 -265 413 -220 z "},"[":{"ha":836,"x_min":198,"x_max":696,"o":"m 198 -253 l 198 1010 l 696 1010 l 696 857 l 407 857 l 407 -106 l 696 -106 l 696 -253 l 198 -253 z "},"]":{"ha":836,"x_min":140,"x_max":638,"o":"m 140 -253 l 140 -106 l 431 -106 l 431 857 l 140 857 l 140 1010 l 638 1010 l 638 -253 l 140 -253 z "},"#":{"ha":836,"x_min":24,"x_max":812,"o":"m 484 374 l 496 636 l 352 636 l 341 374 l 484 374 m 467 0 l 477 230 l 335 230 l 323 0 l 164 0 l 174 230 l 24 230 l 24 374 l 181 374 l 193 636 l 24 636 l 24 780 l 199 780 l 210 1010 l 370 1010 l 359 780 l 503 780 l 513 1010 l 672 1010 l 662 780 l 812 780 l 812 636 l 655 636 l 643 374 l 812 374 l 812 230 l 636 230 l 626 0 l 467 0 z "},"%":{"ha":836,"x_min":33,"x_max":808,"o":"m 241 586 q 96 633 152 586 q 40 779 40 681 l 40 841 q 97 987 40 939 q 241 1035 153 1035 q 386 987 332 1035 q 441 841 441 939 l 441 779 q 386 633 441 681 q 241 586 331 586 m 241 698 q 282 715 268 698 q 297 770 297 732 l 297 847 q 282 902 297 884 q 241 919 268 919 q 200 902 216 919 q 184 847 184 884 l 184 770 q 200 715 184 732 q 241 698 216 698 m 33 261 l 729 846 l 808 746 l 109 160 l 33 261 m 596 -28 q 450 19 505 -28 q 395 164 395 66 l 395 227 q 451 374 395 326 q 596 422 506 422 q 741 374 686 422 q 795 227 795 326 l 795 164 q 740 19 795 66 q 596 -28 684 -28 m 596 82 q 636 98 621 82 q 652 153 652 115 l 652 230 q 636 285 652 268 q 596 303 621 303 q 554 285 569 303 q 539 230 539 268 l 539 153 q 554 98 539 115 q 596 82 569 82 z "},"‰":{"ha":836,"x_min":21,"x_max":809,"o":"m 222 586 q 87 633 139 586 q 35 779 35 681 l 35 841 q 87 987 35 939 q 222 1035 139 1035 q 356 987 306 1035 q 407 841 407 939 l 407 779 q 355 633 407 681 q 222 586 304 586 m 170 770 q 184 715 170 732 q 222 698 198 698 q 259 715 246 698 q 271 770 271 732 l 271 846 q 259 902 271 884 q 222 919 246 919 q 184 902 198 919 q 170 846 170 884 l 170 770 m 804 737 l 82 245 l 21 337 l 741 830 l 804 737 m 662 -28 q 598 -11 626 -28 q 553 40 569 5 q 506 -11 535 5 q 438 -28 476 -28 q 338 19 376 -28 q 299 164 299 66 l 299 221 q 341 367 299 319 q 447 415 383 415 q 510 398 482 415 q 554 347 538 381 q 599 398 571 381 q 662 415 628 415 q 769 367 729 415 q 809 221 809 319 l 809 164 q 768 19 809 66 q 662 -28 727 -28 m 419 152 q 429 98 419 115 q 456 82 439 82 q 483 98 473 82 q 492 152 492 115 l 492 230 q 483 285 492 268 q 456 303 473 303 q 429 285 439 303 q 419 230 419 268 l 419 152 m 615 152 q 625 98 615 115 q 653 82 635 82 q 679 98 669 82 q 689 152 689 115 l 689 230 q 679 285 689 268 q 653 303 669 303 q 625 285 635 303 q 615 230 615 268 l 615 152 z "},"'":{"ha":836,"x_min":289,"x_max":548,"o":"m 328 466 l 289 1010 l 548 1010 l 508 466 l 328 466 z "},"\"":{"ha":836,"x_min":105,"x_max":731,"o":"m 525 466 l 485 1010 l 731 1010 l 692 466 l 525 466 m 144 466 l 105 1010 l 351 1010 l 311 466 l 144 466 z "},"ʻ":{"ha":836,"x_min":207,"x_max":629,"o":"m 207 466 l 491 1010 l 629 1010 l 514 466 l 207 466 z "},"’":{"ha":836,"x_min":208,"x_max":629,"o":"m 208 466 l 322 1010 l 629 1010 l 345 466 l 208 466 z "},"“":{"ha":836,"x_min":38,"x_max":804,"o":"m 414 466 l 682 1010 l 804 1010 l 702 466 l 414 466 m 38 466 l 311 1010 l 433 1010 l 326 466 l 38 466 z "},"”":{"ha":836,"x_min":32,"x_max":798,"o":"m 403 466 l 510 1010 l 798 1010 l 525 466 l 403 466 m 32 466 l 134 1010 l 422 1010 l 154 466 l 32 466 z "},"‛":{"ha":836,"x_min":191,"x_max":612,"o":"m 476 466 l 191 1010 l 499 1010 l 612 466 l 476 466 z "},"‚":{"ha":836,"x_min":226,"x_max":624,"o":"m 226 -213 l 316 330 l 624 330 l 362 -213 l 226 -213 z "},"„":{"ha":836,"x_min":-42,"x_max":725,"o":"m 330 -215 l 437 330 l 725 330 l 452 -215 l 330 -215 m -42 -215 l 61 330 l 348 330 l 81 -215 l -42 -215 z "},"‹":{"ha":836,"x_min":198,"x_max":638,"o":"m 638 64 l 198 340 l 198 544 l 638 819 l 638 638 l 328 442 l 638 246 l 638 64 z "},"›":{"ha":836,"x_min":198,"x_max":638,"o":"m 198 64 l 198 246 l 509 442 l 198 638 l 198 819 l 638 544 l 638 340 l 198 64 z "},"«":{"ha":836,"x_min":53,"x_max":784,"o":"m 784 64 l 446 340 l 446 543 l 784 819 l 784 638 l 544 442 l 784 246 l 784 64 m 390 64 l 53 340 l 53 543 l 390 819 l 390 638 l 152 442 l 390 246 l 390 64 z "},"»":{"ha":836,"x_min":53,"x_max":784,"o":"m 53 64 l 53 246 l 293 442 l 53 638 l 53 819 l 391 543 l 391 340 l 53 64 m 447 64 l 447 246 l 686 442 l 447 638 l 447 819 l 784 543 l 784 340 l 447 64 z "},"*":{"ha":836,"x_min":73,"x_max":763,"o":"m 674 355 l 455 564 l 505 260 l 328 260 l 380 563 l 162 355 l 73 513 l 351 636 l 73 760 l 162 918 l 380 708 l 328 1010 l 505 1010 l 455 707 l 674 918 l 763 760 l 484 636 l 763 513 l 674 355 z "},"†":{"ha":836,"x_min":59,"x_max":777,"o":"m 328 -253 l 328 605 l 244 605 l 203 332 l 59 332 l 95 758 l 327 758 l 317 1010 l 519 1010 l 509 758 l 742 758 l 777 332 l 633 332 l 592 605 l 508 605 l 508 -253 l 328 -253 z "},"‡":{"ha":836,"x_min":54,"x_max":782,"o":"m 317 -253 l 324 -24 l 90 -24 l 54 290 l 193 290 l 240 129 l 328 129 l 328 629 l 240 629 l 193 467 l 54 467 l 90 782 l 324 782 l 317 1010 l 519 1010 l 511 782 l 746 782 l 782 467 l 643 467 l 596 629 l 508 629 l 508 129 l 596 129 l 643 290 l 782 290 l 746 -24 l 511 -24 l 519 -253 l 317 -253 z "},".":{"ha":836,"x_min":254,"x_max":582,"o":"m 419 -13 q 299 21 345 -13 q 254 119 254 54 l 254 201 q 299 300 254 265 q 419 335 345 335 q 537 300 492 335 q 582 201 582 265 l 582 119 q 537 21 582 54 q 419 -13 491 -13 z "},",":{"ha":836,"x_min":220,"x_max":617,"o":"m 220 -213 l 309 330 l 617 330 l 356 -213 l 220 -213 z "},":":{"ha":836,"x_min":268,"x_max":569,"o":"m 419 490 q 309 520 351 490 q 268 609 268 551 l 268 676 q 309 766 268 735 q 419 797 351 797 q 528 766 487 797 q 569 676 569 735 l 569 609 q 527 520 569 551 q 419 490 484 490 m 419 -8 q 309 22 351 -8 q 268 110 268 52 l 268 178 q 309 267 268 236 q 419 298 351 298 q 528 267 487 298 q 569 178 569 236 l 569 110 q 527 22 569 52 q 419 -8 484 -8 z "},";":{"ha":836,"x_min":236,"x_max":601,"o":"m 419 490 q 309 520 351 490 q 268 609 268 551 l 268 676 q 309 766 268 735 q 419 797 351 797 q 528 766 487 797 q 569 676 569 735 l 569 609 q 527 520 569 551 q 419 490 484 490 m 236 -197 l 319 313 l 601 313 l 361 -197 l 236 -197 z "},"…":{"ha":836,"x_min":49,"x_max":787,"o":"m 694 -11 q 629 15 654 -11 q 604 95 604 40 l 604 226 q 629 308 604 282 q 694 335 654 335 q 761 308 736 335 q 787 226 787 282 l 787 95 q 760 15 787 40 q 694 -11 734 -11 m 418 -11 q 352 15 378 -11 q 327 95 327 40 l 327 226 q 352 308 327 282 q 418 335 378 335 q 484 308 460 335 q 509 226 509 282 l 509 95 q 483 15 509 40 q 418 -11 457 -11 m 143 -11 q 75 15 101 -11 q 49 95 49 40 l 49 226 q 75 308 49 282 q 143 335 101 335 q 208 308 183 335 q 232 226 232 282 l 232 95 q 207 15 232 40 q 143 -11 182 -11 z "},"!":{"ha":836,"x_min":261,"x_max":577,"o":"m 322 379 l 288 1010 l 542 1010 l 506 379 l 322 379 m 420 -13 q 301 13 341 -13 q 261 93 261 39 l 261 129 q 301 211 261 184 q 420 237 341 237 q 538 211 499 237 q 577 129 577 184 l 577 93 q 537 13 577 39 q 420 -13 496 -13 z "},"¡":{"ha":836,"x_min":261,"x_max":576,"o":"m 418 1023 q 537 997 497 1023 q 576 917 576 971 l 576 881 q 537 799 576 826 q 418 773 497 773 q 301 799 340 773 q 261 881 261 826 l 261 917 q 302 997 261 971 q 418 1023 342 1023 m 516 631 l 551 0 l 297 0 l 332 631 l 516 631 z "},"‼":{"ha":836,"x_min":86,"x_max":763,"o":"m 544 379 l 510 1010 l 727 1010 l 692 379 l 544 379 m 146 379 l 112 1010 l 330 1010 l 294 379 l 146 379 m 624 -13 q 563 -6 588 -13 q 519 13 537 0 q 492 46 501 27 q 484 93 484 66 l 484 129 q 492 177 484 157 q 519 211 501 198 q 563 231 537 225 q 624 237 588 237 q 685 231 659 237 q 729 211 711 225 q 754 177 745 198 q 763 129 763 157 l 763 93 q 754 46 763 66 q 727 13 745 27 q 684 -6 710 0 q 624 -13 658 -13 m 226 -13 q 165 -6 191 -13 q 121 13 139 0 q 95 46 104 27 q 86 93 86 66 l 86 129 q 95 177 86 157 q 121 211 104 198 q 165 231 139 225 q 226 237 191 237 q 287 231 261 237 q 331 211 313 225 q 356 177 347 198 q 365 129 365 157 l 365 93 q 356 46 365 66 q 330 13 347 27 q 286 -6 312 0 q 226 -13 260 -13 z "},"?":{"ha":836,"x_min":54,"x_max":770,"o":"m 280 356 l 256 497 q 501 574 438 529 q 563 697 563 620 l 563 727 q 533 833 563 795 q 419 870 503 870 q 301 831 330 870 q 263 693 271 793 l 54 706 q 148 947 63 871 q 418 1023 234 1023 q 681 942 591 1023 q 770 739 770 861 l 770 692 q 656 472 770 545 q 280 356 542 398 m 362 -13 q 244 13 284 -13 q 205 93 205 39 l 205 129 q 244 211 205 184 q 362 237 284 237 q 480 211 441 237 q 520 129 520 184 l 520 93 q 480 13 520 39 q 362 -13 439 -13 z "},"¿":{"ha":836,"x_min":63,"x_max":780,"o":"m 472 1023 q 590 997 551 1023 q 630 917 630 971 l 630 881 q 590 799 630 826 q 472 773 551 773 q 354 799 394 773 q 314 881 314 826 l 314 917 q 355 997 314 971 q 472 1023 395 1023 m 554 654 l 578 513 q 333 435 394 481 q 271 313 271 389 l 271 283 q 302 177 271 215 q 415 140 332 140 q 534 179 505 140 q 572 317 563 217 l 780 304 q 685 62 771 136 q 417 -13 598 -13 q 153 69 242 -13 q 63 271 63 150 l 63 318 q 178 538 63 463 q 554 654 293 612 z "},"/":{"ha":836,"x_min":101,"x_max":735,"o":"m 101 -253 l 564 1010 l 735 1010 l 271 -253 l 101 -253 z "},"\\":{"ha":836,"x_min":101,"x_max":735,"o":"m 564 -251 l 101 1011 l 271 1010 l 735 -253 l 564 -251 z "},"⁄":{"ha":836,"x_min":101,"x_max":735,"o":"m 101 0 l 564 1010 l 735 1010 l 271 0 l 101 0 z "},"|":{"ha":836,"x_min":333,"x_max":503,"o":"m 333 -253 l 333 1010 l 503 1010 l 503 -253 l 333 -253 z "},"¦":{"ha":836,"x_min":333,"x_max":503,"o":"m 333 505 l 333 1010 l 503 1010 l 503 505 l 333 505 m 333 -253 l 333 253 l 503 253 l 503 -253 l 333 -253 z "},"@":{"ha":836,"x_min":64,"x_max":771,"o":"m 482 -139 q 169 -25 273 -139 q 64 280 64 90 l 64 641 q 155 919 64 814 q 429 1023 245 1023 q 685 920 598 1023 q 771 635 771 817 l 771 365 q 706 200 770 253 q 528 148 643 148 q 351 206 408 148 q 294 366 294 264 l 294 500 q 343 662 294 601 q 471 723 391 723 q 573 699 534 723 q 629 638 611 676 l 663 638 q 610 844 660 777 q 428 912 559 912 q 243 840 299 912 q 187 641 187 769 l 187 289 q 256 58 187 140 q 482 -24 324 -24 q 606 -14 548 -24 q 711 10 664 -4 l 711 -105 q 604 -128 665 -117 q 482 -139 542 -139 m 532 275 q 586 294 567 275 q 605 370 605 312 l 605 490 q 584 571 605 547 q 532 596 563 596 q 479 571 497 596 q 460 487 460 545 l 460 379 q 478 299 460 323 q 532 275 496 275 z "},"&":{"ha":836,"x_min":40,"x_max":824,"o":"m 787 -20 q 665 30 725 -1 q 553 102 606 62 q 442 18 503 49 q 293 -13 381 -13 q 112 55 184 -13 q 40 244 40 122 q 81 410 40 341 q 208 537 122 479 q 167 651 182 597 q 153 747 153 705 q 217 951 153 878 q 394 1024 280 1024 q 558 960 501 1024 q 615 818 615 895 q 566 663 615 723 q 378 523 518 602 q 396 484 386 503 q 419 446 407 465 q 470 370 443 407 q 529 302 497 333 q 575 408 552 348 q 624 539 598 467 l 780 497 q 702 343 745 415 q 614 206 659 270 l 824 126 l 787 -20 m 322 746 q 327 683 322 715 q 342 620 332 652 q 426 693 395 653 q 457 790 457 734 q 440 863 457 838 q 393 888 423 888 q 338 855 355 888 q 322 746 322 822 m 347 122 q 407 137 379 122 q 460 181 434 152 q 390 256 423 216 q 327 335 356 295 q 296 378 311 356 q 269 420 282 400 q 239 348 249 389 q 229 264 229 307 q 259 157 229 192 q 347 122 289 122 z "},"§":{"ha":836,"x_min":66,"x_max":775,"o":"m 407 278 q 428 273 417 277 q 451 268 439 270 q 533 291 499 269 q 568 362 568 313 q 533 438 568 415 q 436 476 497 461 q 414 480 424 477 q 391 486 403 484 q 309 463 343 485 q 274 391 274 441 q 309 316 274 338 q 407 278 345 293 m 439 -261 q 247 -227 341 -261 q 91 -143 153 -193 l 148 6 q 287 -73 216 -44 q 444 -101 359 -101 q 537 -81 497 -101 q 576 -14 576 -61 q 525 66 576 42 q 393 111 475 91 q 148 200 230 144 q 66 366 66 256 q 108 479 66 436 q 217 544 150 523 q 105 635 145 581 q 66 770 66 689 q 159 951 66 888 q 403 1015 253 1015 q 592 981 501 1015 q 751 896 683 947 l 684 755 q 547 828 614 802 q 398 855 481 855 q 299 830 332 855 q 266 761 266 806 q 325 684 266 708 q 496 635 384 659 q 703 552 630 607 q 775 385 775 496 q 739 270 775 317 q 644 198 702 223 q 742 111 708 163 q 775 -16 775 59 q 684 -197 775 -133 q 439 -261 592 -261 z "},"¶":{"ha":836,"x_min":56,"x_max":764,"o":"m 586 429 l 482 429 l 482 -253 l 304 -253 l 304 429 q 127 493 198 433 q 56 678 56 553 l 56 744 q 133 944 56 879 q 321 1010 211 1010 l 764 1010 l 764 -253 l 586 -253 l 586 429 z "},"ℓ":{"ha":836,"x_min":90,"x_max":746,"o":"m 405 452 q 436 456 423 452 q 460 468 448 460 q 477 494 470 477 q 489 537 485 510 l 525 765 q 528 808 529 790 q 521 838 528 826 q 503 856 515 850 q 471 862 490 862 q 439 859 452 862 q 415 846 426 855 q 398 818 405 836 q 385 773 390 801 l 347 535 q 345 499 343 514 q 355 472 347 484 q 375 457 362 462 q 405 452 388 452 m 622 52 q 557 25 590 37 q 491 6 524 14 q 428 -5 460 -1 q 365 -9 396 -9 q 244 10 298 -9 q 154 67 191 29 q 104 162 117 105 q 102 295 90 220 l 181 789 q 218 896 191 851 q 287 968 246 941 q 379 1010 328 997 q 489 1023 429 1023 q 612 1009 561 1023 q 694 965 663 995 q 735 890 725 936 q 735 780 746 843 l 692 514 q 662 426 684 463 q 605 364 639 388 q 527 328 569 340 q 433 316 484 316 q 399 318 415 316 q 369 322 383 319 q 342 331 355 326 q 318 342 330 336 l 309 287 q 309 229 304 254 q 328 187 314 203 q 365 162 343 170 q 414 154 386 154 q 460 158 436 154 q 511 169 485 162 q 566 188 538 177 q 624 212 595 198 l 622 52 z "},"№":{"ha":836,"x_min":106,"x_max":731,"o":"m 280 798 l 280 495 l 106 495 l 106 1010 l 317 1010 l 556 687 l 556 1010 l 731 1010 l 731 495 l 505 495 l 280 798 m 499 -14 q 332 32 395 -14 q 269 168 269 77 l 269 232 q 332 371 269 324 q 499 418 395 418 q 667 371 605 418 q 730 232 730 324 l 730 168 q 667 32 730 77 q 499 -14 604 -14 m 499 98 q 551 116 533 98 q 568 176 568 134 l 568 225 q 551 280 568 261 q 499 298 533 298 q 448 280 465 298 q 431 225 431 261 l 431 176 q 448 116 431 134 q 499 98 465 98 z "},"·":{"ha":836,"x_min":254,"x_max":582,"o":"m 419 331 q 299 365 345 331 q 254 463 254 399 l 254 544 q 299 644 254 609 q 419 679 345 679 q 537 644 492 679 q 582 544 582 609 l 582 463 q 537 365 582 399 q 419 331 491 331 z "},"•":{"ha":836,"x_min":225,"x_max":612,"o":"m 419 298 q 278 336 332 298 q 225 457 225 375 l 225 548 q 278 671 225 631 q 419 711 332 711 q 559 671 506 711 q 612 548 612 631 l 612 457 q 558 336 612 375 q 419 298 504 298 z "},"·":{"ha":836,"x_min":260,"x_max":588,"o":"m 426 331 q 306 365 351 331 q 260 463 260 399 l 260 544 q 306 644 260 609 q 426 679 351 679 q 544 644 499 679 q 588 544 588 609 l 588 463 q 543 365 588 399 q 426 331 497 331 z "},"‗":{"ha":836,"x_min":85,"x_max":751,"o":"m 85 0 l 85 181 l 751 181 l 751 0 l 85 0 m 85 -324 l 85 -144 l 751 -144 l 751 -324 l 85 -324 z "},"′":{"ha":836,"x_min":215,"x_max":635,"o":"m 215 466 l 328 1010 l 635 1010 l 351 466 l 215 466 z "},"″":{"ha":836,"x_min":-52,"x_max":715,"o":"m 319 466 l 427 1010 l 715 1010 l 442 466 l 319 466 m -52 466 l 51 1010 l 338 1010 l 71 466 l -52 466 z "},"‾":{"ha":836,"x_min":85,"x_max":751,"o":"m 85 1082 l 85 1263 l 751 1263 l 751 1082 l 85 1082 z "},"+":{"ha":836,"x_min":85,"x_max":751,"o":"m 332 43 l 332 356 l 85 356 l 85 528 l 332 528 l 332 841 l 504 841 l 504 528 l 751 528 l 751 356 l 504 356 l 504 43 l 332 43 z "},"−":{"ha":836,"x_min":85,"x_max":751,"o":"m 85 356 l 85 528 l 751 528 l 751 356 l 85 356 z "},"±":{"ha":836,"x_min":85,"x_max":751,"o":"m 332 169 l 332 482 l 85 482 l 85 654 l 332 654 l 332 967 l 504 967 l 504 654 l 751 654 l 751 482 l 504 482 l 504 169 l 332 169 m 85 0 l 85 172 l 751 172 l 751 0 l 85 0 z "},"÷":{"ha":836,"x_min":85,"x_max":751,"o":"m 418 653 q 334 675 366 653 q 302 744 302 697 l 302 768 q 334 838 302 816 q 418 861 366 861 q 501 838 470 861 q 533 768 533 816 l 533 744 q 501 675 533 697 q 418 653 468 653 m 85 364 l 85 520 l 751 520 l 751 364 l 85 364 m 418 21 q 334 44 366 21 q 302 112 302 66 l 302 136 q 334 207 302 184 q 418 230 366 230 q 501 207 470 230 q 533 136 533 184 l 533 112 q 501 44 533 66 q 418 21 468 21 z "},"×":{"ha":836,"x_min":91,"x_max":745,"o":"m 206 48 l 91 150 l 308 442 l 93 731 l 206 836 l 418 553 l 631 833 l 745 730 l 528 442 l 745 154 l 631 51 l 418 331 l 206 48 z "},"=":{"ha":836,"x_min":85,"x_max":751,"o":"m 85 545 l 85 718 l 751 718 l 751 545 l 85 545 m 85 165 l 85 338 l 751 338 l 751 165 l 85 165 z "},"<":{"ha":836,"x_min":119,"x_max":717,"o":"m 717 10 l 119 340 l 119 544 l 717 874 l 717 707 l 237 442 l 717 177 l 717 10 z "},">":{"ha":836,"x_min":119,"x_max":717,"o":"m 119 10 l 119 168 l 614 442 l 119 716 l 119 874 l 717 544 l 717 340 l 119 10 z "},"≤":{"ha":836,"x_min":119,"x_max":717,"o":"m 717 253 l 119 529 l 119 734 l 717 1010 l 717 843 l 263 631 l 717 419 l 717 253 m 119 0 l 119 149 l 717 149 l 717 0 l 119 0 z "},"≥":{"ha":836,"x_min":119,"x_max":717,"o":"m 119 253 l 119 419 l 573 631 l 119 843 l 119 1010 l 717 734 l 717 529 l 119 253 m 717 0 l 119 0 l 119 149 l 717 149 l 717 0 z "},"≈":{"ha":836,"x_min":73,"x_max":754,"o":"m 568 485 q 515 492 539 485 q 467 516 490 500 q 424 559 444 533 q 381 621 403 585 q 321 722 333 705 q 297 747 309 739 q 283 754 290 751 q 269 756 277 756 q 246 749 256 756 q 227 726 235 741 q 215 684 220 710 q 211 622 211 659 l 211 520 l 73 520 l 73 630 q 86 754 73 699 q 124 845 98 808 q 182 900 148 881 q 259 919 216 919 q 313 912 288 919 q 360 888 337 904 q 404 846 383 871 q 447 784 426 821 q 491 708 486 715 q 506 684 495 701 q 532 658 519 668 q 559 649 544 649 q 583 657 572 649 q 601 679 593 664 q 612 721 609 696 q 616 783 616 746 l 616 884 l 754 884 l 754 774 q 741 650 754 705 q 703 559 729 596 q 645 504 679 523 q 568 485 611 485 m 568 -20 q 515 -13 539 -20 q 467 11 490 -5 q 424 54 444 28 q 381 116 403 80 q 326 210 321 220 q 321 216 332 199 q 295 242 308 234 q 268 251 283 251 q 244 244 254 251 q 226 221 234 237 q 215 179 218 205 q 211 117 211 154 l 211 15 l 73 15 l 73 125 q 86 249 73 194 q 124 340 98 303 q 182 395 148 376 q 259 414 216 414 q 313 407 288 414 q 360 383 337 399 q 404 341 383 366 q 447 279 426 316 q 485 211 476 227 q 508 179 495 196 q 533 153 520 163 q 562 144 547 144 q 585 151 574 144 q 602 174 595 158 q 612 216 609 191 q 616 278 616 241 l 616 379 l 754 379 l 754 269 q 741 145 754 199 q 703 54 729 91 q 645 -1 679 18 q 568 -20 611 -20 z "},"≠":{"ha":836,"x_min":85,"x_max":751,"o":"m 751 221 l 429 221 l 379 0 l 226 0 l 277 221 l 85 221 l 85 385 l 314 385 l 369 625 l 85 625 l 85 789 l 408 789 l 457 1010 l 610 1010 l 561 789 l 751 789 l 751 625 l 521 625 l 467 385 l 751 385 l 751 221 z "},"¬":{"ha":836,"x_min":85,"x_max":751,"o":"m 581 0 l 581 356 l 85 356 l 85 528 l 751 528 l 751 0 l 581 0 z "},"⎯":{"ha":836,"x_min":-13,"x_max":848,"o":"m -13 403 l -13 607 l 848 607 l 848 403 l -13 403 z "},"←":{"ha":836,"x_min":13,"x_max":823,"o":"m 441 56 l 13 492 l 13 518 l 441 955 l 463 955 l 463 607 l 823 607 l 823 403 l 463 403 l 463 56 l 441 56 z "}}}
